<svg width="77" height="23" viewBox="0 0 77 23" fill="none" xmlns="http://www.w3.org/2000/svg">
<path d="M17.2863 5.64217V12.7595C17.2863 12.8748 17.2401 12.9855 17.158 13.067C17.0758 13.1486 16.9644 13.1945 16.8482 13.1945H14.5857C14.4695 13.1944 14.3581 13.1486 14.276 13.067C14.1939 12.9854 14.1477 12.8748 14.1476 12.7595V1.18283C14.1476 1.06746 14.1938 0.956818 14.2759 0.87524C14.3581 0.793661 14.4695 0.747831 14.5857 0.747831H16.6794C16.7956 0.747831 16.907 0.793661 16.9892 0.87524C17.0713 0.956818 17.1175 1.06746 17.1175 1.18283V2.81313C17.1175 2.81313 17.8659 0.48756 20.0871 0.48756C20.0871 0.48756 22.2841 0.223835 23.1774 2.6453C23.1774 2.6453 23.9259 0.48756 26.1954 0.48756C26.1954 0.48756 29.5704 0.28828 29.5704 3.7562L29.5961 5.66614V12.7834C29.5961 12.8988 29.5499 13.0094 29.4678 13.091C29.3856 13.1726 29.2742 13.2184 29.158 13.2184H26.8953C26.7792 13.2184 26.6678 13.1725 26.5856 13.091C26.5035 13.0094 26.4573 12.8988 26.4573 12.7834L26.4366 5.01882C26.5009 3.26059 25.0685 3.38852 25.0685 3.38852C23.2659 3.42055 23.4394 5.66614 23.4394 5.66614V12.7834C23.4394 12.8988 23.3932 13.0094 23.311 13.091C23.2289 13.1726 23.1175 13.2184 23.0013 13.2184H20.7388C20.6226 13.2184 20.5112 13.1725 20.4291 13.091C20.3469 13.0094 20.3008 12.8988 20.3007 12.7834V5.19451C20.3007 5.19451 20.433 3.37241 18.8233 3.37241C18.8235 3.37241 17.2301 3.16469 17.2863 5.64217ZM75.608 5.62088V12.738C75.6079 12.8533 75.5617 12.9639 75.4796 13.0455C75.3975 13.1271 75.2861 13.1729 75.1699 13.173L72.8168 13.2182C72.7006 13.2182 72.5892 13.1723 72.5071 13.0908C72.4249 13.0092 72.3788 12.8986 72.3787 12.7832V5.19451C72.3787 5.19451 72.511 3.37241 70.9015 3.37241C70.9015 3.37241 69.3643 3.29723 69.3643 6.15408V12.7593C69.3642 12.8746 69.3181 12.9852 69.2359 13.0668C69.1538 13.1484 69.0424 13.1942 68.9262 13.1943H66.6635C66.5473 13.1942 66.436 13.1484 66.3538 13.0668C66.2717 12.9852 66.2255 12.8746 66.2254 12.7593V1.18283C66.2255 1.06748 66.2717 0.956864 66.3538 0.875296C66.436 0.793729 66.5473 0.747882 66.6635 0.747831H68.7572C68.8734 0.747831 68.9848 0.793661 69.067 0.87524C69.1491 0.956818 69.1953 1.06746 69.1953 1.18283V2.81313C69.1953 2.81313 69.9437 0.48756 72.1649 0.48756C72.1649 0.48756 74.5443 0.129087 75.3457 2.60023C75.3459 2.60004 75.608 3.10984 75.608 5.62088ZM59.2716 0.43961C56.3782 0.43961 54.0325 2.86108 54.0325 6.93681C54.0325 10.5252 55.8432 13.434 59.2716 13.434C62.5068 13.434 64.5107 10.5252 64.5107 6.93681C64.5107 2.933 62.1651 0.43961 59.2716 0.43961ZM61.0978 7.08066C61.0978 8.61506 60.9046 9.4302 60.9046 9.4302C60.6298 11.0522 59.4441 11.0546 59.2693 11.0459C59.0806 11.0534 57.8848 11.0365 57.6374 9.4302C57.6374 9.4302 57.4442 8.61506 57.4442 7.08066V6.82499C57.4442 5.2906 57.6374 4.47545 57.6374 4.47545C57.8848 2.86913 59.0808 2.85225 59.2693 2.85954C59.4441 2.85091 60.6298 2.85302 60.9046 4.47545C60.9046 4.47545 61.0978 5.2906 61.0978 6.82499V7.08066ZM52.7193 2.79702V1.13603C52.7192 1.02068 52.673 0.910065 52.5909 0.828497C52.5088 0.74693 52.3974 0.701083 52.2812 0.701032H44.8026C44.6864 0.701032 44.575 0.746862 44.4928 0.828441C44.4107 0.910019 44.3645 1.02066 44.3645 1.13603V2.78416C44.3646 2.89952 44.4107 3.01013 44.4929 3.0917C44.575 3.17327 44.6864 3.21911 44.8026 3.21917H48.7035L44.0862 9.87077C44.0862 9.87077 43.9042 10.1404 43.9102 10.4383V12.4616C43.9102 12.4616 43.8801 13.1553 44.6724 12.7527C44.6724 12.7527 46.0796 11.9084 48.4393 11.9084C48.4393 11.9084 50.7696 11.8797 52.3233 12.8254C52.3233 12.8254 52.9682 13.1166 52.9682 12.4764V10.7153C52.9682 10.7153 53.0268 10.2492 52.4112 9.95823C52.4112 9.95823 50.623 8.98312 48.278 9.14308L52.7193 2.79702ZM12.4014 11.1242L11.6931 10.0535C11.4677 9.65384 11.4839 9.20618 11.4839 9.20618V4.26754C11.5805 5.54323e-06 6.81616 0.367685 6.81616 0.367685C2.58083 0.367685 1.95523 3.64074 1.95523 3.64074C1.77869 4.2988 2.29208 4.31472 2.29208 4.31472L4.36165 4.52321C4.36165 4.52321 4.71453 4.60338 4.84297 4.18622C4.84297 4.18622 5.1155 2.75827 6.63962 2.75827C8.29798 2.75827 8.28079 4.17164 8.28079 4.17164V5.35485C4.97025 5.46475 3.43609 6.37733 3.43609 6.37733C1.39201 7.52813 1.52065 9.8138 1.52065 9.8138C1.52065 13.5378 5.09387 13.3778 5.09387 13.3778C7.37938 13.3778 8.7314 11.7157 8.7314 11.7157C9.13373 12.4192 9.87426 13.0901 9.87426 13.0901C10.2447 13.4891 10.6308 13.1542 10.6308 13.1542L12.3048 11.7318C12.6749 11.4598 12.4014 11.1242 12.4014 11.1242ZM6.20929 11.0781C5.13424 11.0781 4.73462 10.0173 4.91308 8.97468C5.09174 7.93206 6.01962 7.11269 8.28099 7.13667V7.77056C8.36114 10.5398 7.10414 11.0781 6.20929 11.0781ZM42.4678 11.1242L41.7597 10.0535C41.5343 9.65384 41.5504 9.20618 41.5504 9.20618V4.26754C41.6469 5.54323e-06 36.8826 0.367685 36.8826 0.367685C32.6472 0.367685 32.0216 3.64074 32.0216 3.64074C31.8451 4.2988 32.3585 4.31472 32.3585 4.31472L34.4281 4.52321C34.4281 4.52321 34.7809 4.60338 34.9094 4.18622C34.9094 4.18622 35.1819 2.75827 36.706 2.75827C38.3644 2.75827 38.3472 4.17164 38.3472 4.17164V5.35485C35.0369 5.46475 33.5025 6.37733 33.5025 6.37733C31.4584 7.52813 31.5871 9.8138 31.5871 9.8138C31.5871 13.5378 35.1603 13.3778 35.1603 13.3778C37.4458 13.3778 38.7978 11.7157 38.7978 11.7157C39.2003 12.4192 39.9405 13.0901 39.9405 13.0901C40.3109 13.4891 40.6972 13.1542 40.6972 13.1542L42.371 11.7318C42.7413 11.4598 42.4678 11.1242 42.4678 11.1242ZM36.2757 11.0781C35.2006 11.0781 34.801 10.0173 34.9795 8.97468C35.1582 7.93206 36.086 7.11269 38.3472 7.13667V7.77056C38.4276 10.5398 37.1707 11.0781 36.2757 11.0781Z" fill="black"/>
<path d="M48.1649 20.4721C48.1649 20.4721 47.9756 20.7991 48.2081 20.8722C48.2081 20.8722 48.4708 20.974 48.7984 20.6721C48.7984 20.6721 51.1874 18.5997 51.245 14.8267C51.245 14.8267 51.2626 14.3554 51.0721 14.2265C51.0721 14.2265 50.3237 13.569 47.6324 13.7691C47.6324 13.7691 45.2864 13.9264 44.0056 15.0555C44.0056 15.0555 43.8905 15.1554 43.8905 15.2839C43.8905 15.2839 43.8629 15.5614 44.5669 15.4412C44.5669 15.4412 46.9127 15.1122 48.3088 15.2839C48.3088 15.2839 49.0286 15.3696 49.2301 15.6128C49.2301 15.6128 49.5611 15.8844 49.3883 16.7845C49.3883 16.7849 48.9131 19.0716 48.1649 20.4721Z" fill="#F3971B"/>
<path d="M47.6919 16.8523C47.6919 16.8523 48.0423 17.303 47.4769 17.6918C47.4769 17.6918 41.4378 22.4887 31.2976 22.4887C31.2976 22.4887 20.8595 23 12.1438 15.1362C12.1438 15.1362 11.8382 14.8698 12.0279 14.6222C12.0279 14.6222 12.1975 14.3943 12.6365 14.6422C12.6365 14.6422 20.8354 19.7154 31.6033 19.7154C31.6033 19.7154 39.0878 20.0031 46.7654 16.7425C46.7654 16.7425 47.3771 16.4278 47.6919 16.8523Z" fill="#F3971B"/>
</svg>
