<svg width="108" height="33" viewBox="0 0 108 33" fill="none" xmlns="http://www.w3.org/2000/svg">
<g id="Amazon">
<path id="Vector" fill-rule="evenodd" clip-rule="evenodd" d="M66.9247 25.4102C60.7582 30.003 51.7888 32.4499 44.0526 32.4499C33.2145 32.4499 23.4976 28.4218 16.0978 21.7209C15.5372 21.1939 16.023 20.4786 16.7331 20.8927C24.6935 25.5608 34.5225 28.3466 44.6879 28.3466C51.5271 28.3466 59.0765 26.916 66.0278 23.942C67.0742 23.5279 67.9338 24.6573 66.9247 25.4102Z" fill="#8D8D8F"/>
<path id="Vector_2" fill-rule="evenodd" clip-rule="evenodd" d="M69.5033 22.4364C68.7185 21.4199 64.2711 21.947 62.2903 22.2105C61.6924 22.2858 61.5803 21.7587 62.1409 21.3823C65.6913 18.86 71.484 19.6129 72.1568 20.4412C72.8295 21.2694 71.9699 27.1421 68.6437 29.9279C68.1205 30.342 67.6346 30.1161 67.8589 29.5514C68.6063 27.6691 70.2881 23.4904 69.5033 22.4364Z" fill="#8D8D8F"/>
<path id="Vector_3" fill-rule="evenodd" clip-rule="evenodd" d="M62.4026 3.68859V1.24162C62.4026 0.865167 62.6642 0.639291 63.0005 0.639291L73.8386 0.639291C74.175 0.639291 74.474 0.902813 74.474 1.24162V3.31213C74.474 3.65095 74.175 4.1027 73.6518 4.85561L68.0459 12.9118C70.1387 12.8741 72.3437 13.1753 74.2124 14.2294C74.6235 14.4552 74.7356 14.8317 74.773 15.1705V17.7681C74.773 18.1445 74.3992 18.5586 73.9881 18.3327C70.662 16.5634 66.2146 16.3752 62.5521 18.3704C62.1783 18.5586 61.7672 18.1822 61.7672 17.8057V15.3211C61.7672 14.9446 61.7672 14.267 62.1783 13.6647L68.6812 4.29092H63.0379C62.7016 4.29092 62.4026 4.0274 62.4026 3.68859ZM22.8995 18.8598H19.6107C19.3118 18.8221 19.0502 18.5963 19.0128 18.2951L19.0128 1.27927C19.0128 0.940461 19.3118 0.676939 19.6481 0.676939L22.7127 0.676939C23.049 0.676939 23.2733 0.940459 23.3106 1.24162V3.46271H23.3854C24.1702 1.31691 25.7025 0.300483 27.7206 0.300483C29.7761 0.300483 31.0842 1.31691 31.9811 3.46271C32.766 1.31691 34.5972 0.300483 36.5406 0.300483C37.9234 0.300483 39.4183 0.865167 40.3526 2.18277C41.3991 3.6133 41.1748 5.68382 41.1748 7.52845V18.2951C41.1748 18.6339 40.8759 18.8974 40.5395 18.8974H37.2881C36.9517 18.8598 36.6901 18.5963 36.6901 18.2951V9.26014C36.6901 8.54488 36.7649 6.73788 36.6154 6.06026C36.3538 4.93089 35.6437 4.59208 34.672 4.59208C33.8871 4.59208 33.0276 5.11913 32.6912 5.98498C32.3549 6.85083 32.3922 8.28136 32.3922 9.26014V18.2951C32.3922 18.6339 32.0933 18.8974 31.7569 18.8974H28.4681C28.1317 18.8598 27.8701 18.5963 27.8701 18.2951L27.8701 9.26014C27.8701 7.37786 28.1691 4.55444 25.852 4.55444C23.4975 4.55444 23.5723 7.26492 23.5723 9.26014L23.5723 18.2951C23.5349 18.5963 23.2733 18.8598 22.8995 18.8598ZM83.8172 0.300483C88.713 0.300483 91.3665 4.5168 91.3665 9.90012C91.3665 15.0952 88.4514 19.2362 83.8172 19.2362C79.0335 19.2362 76.4174 15.0199 76.4174 9.74954C76.38 4.44151 79.0335 0.300483 83.8172 0.300483ZM83.8172 3.80152C81.3879 3.80152 81.2385 7.152 81.2385 9.22251C81.2385 11.293 81.2011 15.7352 83.7798 15.7352C86.3211 15.7352 86.4706 12.1589 86.4706 9.97542C86.4706 8.54488 86.3959 6.81318 85.9848 5.45794C85.6111 4.25328 84.8636 3.80152 83.8172 3.80152ZM97.6825 18.8598H94.3937C94.0573 18.8221 93.7957 18.5586 93.7957 18.2575V1.20398C93.8331 0.902811 94.0947 0.639291 94.431 0.639291L97.4956 0.639291C97.7946 0.639291 98.0188 0.865172 98.0936 1.12869V3.72624H98.1683C99.1026 1.39221 100.373 0.300483 102.653 0.300483C104.111 0.300483 105.568 0.827517 106.502 2.2957C107.362 3.65094 107.362 5.94733 107.362 7.60374V18.3327C107.325 18.6339 107.063 18.8598 106.727 18.8598H103.438C103.139 18.8221 102.877 18.5963 102.84 18.3327V9.07191C102.84 7.18963 103.064 4.47915 100.784 4.47915C99.9996 4.47915 99.2521 5.00619 98.8784 5.8344C98.4299 6.88848 98.3552 7.9049 98.3552 9.07191V18.2575C98.3178 18.5963 98.0188 18.8598 97.6825 18.8598ZM53.7695 10.7283C53.7695 12.0083 53.8068 13.1 53.1715 14.267C52.6483 15.2082 51.8261 15.7728 50.8918 15.7728C49.6211 15.7728 48.8736 14.7941 48.8736 13.3635C48.8736 10.5401 51.3776 10.0131 53.7695 10.0131V10.7283ZM57.0956 18.8221C56.8714 19.0104 56.5724 19.048 56.3108 18.8974C55.227 17.9939 55.0028 17.5422 54.4048 16.6763C52.6109 18.521 51.3029 19.0857 48.9857 19.0857C46.2202 19.0857 44.0525 17.354 44.0525 13.9282C44.0525 11.2177 45.5101 9.41073 47.5656 8.50723C49.3595 7.71667 51.8635 7.5661 53.7695 7.34022V6.92612C53.7695 6.13556 53.8442 5.19442 53.3584 4.5168C52.9473 3.91447 52.1998 3.65094 51.5271 3.65094C50.2564 3.65094 49.1352 4.29093 48.8736 5.64617C48.7989 5.94733 48.612 6.24849 48.313 6.24849L45.1363 5.90968C44.8747 5.83439 44.5758 5.64617 44.6505 5.23207C45.398 1.31692 48.8736 0.149902 52.0129 0.149902C53.62 0.149902 55.7128 0.564002 56.9835 1.80631C58.5906 3.31213 58.4411 5.345 58.4411 7.52845V12.6859C58.4411 14.2294 59.0764 14.907 59.6744 15.7728C59.8986 16.074 59.936 16.4505 59.6744 16.6387C58.9643 17.2034 57.7683 18.2575 57.0956 18.8221ZM10.6039 10.7283C10.6039 12.0083 10.6413 13.1 10.0059 14.267C9.48272 15.2082 8.66052 15.7728 7.7262 15.7728C6.45552 15.7728 5.70807 14.7941 5.70807 13.3635C5.70807 10.5401 8.21205 10.0131 10.6039 10.0131V10.7283ZM13.8927 18.8221C13.6685 19.0104 13.3695 19.048 13.1079 18.8974C12.0241 17.9939 11.7998 17.5422 11.2019 16.6763C9.40797 18.521 8.09993 19.0857 5.78281 19.0857C3.01723 19.0857 0.849609 17.354 0.849609 13.9282C0.849609 11.2177 2.30715 9.41073 4.36265 8.50723C6.15654 7.71667 8.66052 7.5661 10.5665 7.34022V6.92612C10.5665 6.13556 10.6413 5.19442 10.1554 4.5168C9.74433 3.91447 8.99687 3.65094 8.32416 3.65094C7.05349 3.65094 5.9323 4.29093 5.6707 5.64617C5.59595 5.94733 5.40909 6.24849 5.1101 6.24849L1.93342 5.90968C1.67181 5.83439 1.37283 5.64617 1.44758 5.23207C2.19503 1.31692 5.6707 0.149902 8.81001 0.149902C10.417 0.149902 12.5099 0.564002 13.7806 1.80631C15.3876 3.31213 15.2381 5.345 15.2381 7.52845V12.6859C15.2381 14.2294 15.8735 14.907 16.4714 15.7728C16.6957 16.074 16.733 16.4505 16.4714 16.6387C15.7613 17.2034 14.5654 18.2575 13.8927 18.8221Z" fill="#8D8D8F"/>
</g>
</svg>
