<svg width="108" height="36" viewBox="0 0 108 36" fill="none" xmlns="http://www.w3.org/2000/svg">
<g id="Apple">
<path id="Vector" d="M25.7525 19.0656C25.7366 16.1406 27.0555 13.9328 29.725 12.3069C28.2313 10.1629 25.975 8.98335 22.9957 8.75221C20.1752 8.52905 17.0926 10.402 15.9644 10.402C14.7727 10.402 12.0397 8.83192 9.89456 8.83192C5.46131 8.90365 0.75 12.3787 0.75 19.4482C0.75 21.5364 1.13135 23.6937 1.89406 25.92C2.91101 28.8451 6.58154 36.0182 10.411 35.8987C12.4131 35.8509 13.8273 34.472 16.4332 34.472C18.9597 34.472 20.2706 35.8987 22.5031 35.8987C26.3643 35.8429 29.6852 29.3233 30.6545 26.3903C25.4745 23.9434 25.7525 19.2171 25.7525 19.0656ZM21.2557 5.97859C23.4247 3.39624 23.2261 1.04504 23.1625 0.200195C21.2478 0.311778 19.0312 1.50731 17.7679 2.98179C16.3776 4.55989 15.5593 6.51259 15.734 8.71236C17.8077 8.87177 19.6985 7.80376 21.2557 5.97859Z" fill="#8D8D8F"/>
<path id="Vector_2" d="M42.83 23.6515L40.7484 29.987H38.0728L44.8855 9.85285H48.0078L54.8466 29.987H52.0798L49.9376 23.6515H42.83ZM49.4042 21.6181L47.4441 15.8225C46.9974 14.5076 46.7025 13.3145 46.4033 12.1475H46.3469C46.0477 13.3406 45.7224 14.5642 45.3365 15.7921L43.3764 21.6137L49.4042 21.6181ZM56.8761 20.2465C56.8761 18.3959 56.8197 16.898 56.7547 15.5265H59.1051L59.2265 18.0084H59.2829C60.354 16.2449 62.0496 15.1999 64.4 15.1999C67.8823 15.1999 70.4972 18.1564 70.4972 22.5499C70.4972 27.7489 67.3445 30.3135 63.9533 30.3135C62.0496 30.3135 60.3843 29.4775 59.5214 28.045H59.465V35.9001H56.8761V20.2465ZM59.4607 24.1C59.4607 24.4919 59.517 24.8446 59.5821 25.1755C60.0591 26.9956 61.6333 28.254 63.511 28.254C66.2777 28.254 67.8866 25.9854 67.8866 22.6674C67.8866 19.7675 66.3688 17.2943 63.6021 17.2943C61.8198 17.2943 60.1545 18.5788 59.6428 20.5513C59.5517 20.8778 59.465 21.2697 59.465 21.6268L59.4607 24.1ZM73.2032 20.2465C73.2032 18.3959 73.1468 16.898 73.0818 15.5265H75.4322L75.5536 18.0084H75.61C76.6811 16.2449 78.3767 15.1999 80.7271 15.1999C84.2094 15.1999 86.8243 18.1564 86.8243 22.5499C86.8243 27.7489 83.6717 30.3135 80.2805 30.3135C78.3767 30.3135 76.7115 29.4775 75.8485 28.045H75.7921V35.9001H73.2032V20.2465ZM75.7921 24.1C75.7921 24.4919 75.8485 24.8446 75.9136 25.1755C76.3906 26.9956 77.9648 28.254 79.8425 28.254C82.6092 28.254 84.2181 25.9854 84.2181 22.6674C84.2181 19.7675 82.7003 17.2943 79.9336 17.2943C78.1512 17.2943 76.486 18.5788 75.9743 20.5513C75.8832 20.8778 75.7965 21.2697 75.7965 21.6268L75.7921 24.1ZM89.5347 8.77734H92.154V29.9826H89.5347V8.77734ZM97.4186 23.2335C97.4749 26.7866 99.7386 28.254 102.354 28.254C104.227 28.254 105.359 27.9274 106.339 27.5094L106.786 29.3904C105.866 29.8084 104.288 30.2874 101.998 30.2874C97.566 30.2874 94.9164 27.3613 94.9164 22.9984C94.9164 18.6354 97.4749 15.1999 101.668 15.1999C106.369 15.1999 107.618 19.3495 107.618 22.0099C107.618 22.5499 107.562 22.9635 107.527 23.2335H97.4186ZM105.094 21.3525C105.125 19.6804 104.409 17.0809 101.465 17.0809C98.8149 17.0809 97.6571 19.5324 97.4489 21.3525H105.094Z" fill="#8D8D8F"/>
</g>
</svg>
