<svg width="34" height="34" viewBox="0 0 34 34" fill="none" xmlns="http://www.w3.org/2000/svg">
<path d="M17.3438 6.0594C21.6926 3.84861 25.8656 3.62071 28.1221 5.87725C31.5168 9.27195 29.2889 17.0038 23.1458 23.1468C22.8386 23.454 22.5274 23.7514 22.213 24.0389M16.9224 27.8025C12.4778 30.1414 8.1791 30.4259 5.87628 28.1231C2.48159 24.7284 4.70955 16.9966 10.8526 10.8535C11.1841 10.522 11.5202 10.2019 11.86 9.89352M28.1221 28.1231C24.7274 31.5178 16.9956 29.2898 10.8526 23.1468C4.70955 17.0038 2.48159 9.27195 5.87628 5.87725C9.27097 2.48256 17.0028 4.71052 23.1458 10.8535C29.2889 16.9966 31.5168 24.7284 28.1221 28.1231ZM18.4173 17.0002C18.4173 17.7826 17.783 18.4169 17.0006 18.4169C16.2182 18.4169 15.5839 17.7826 15.5839 17.0002C15.5839 16.2178 16.2182 15.5836 17.0006 15.5836C17.783 15.5836 18.4173 16.2178 18.4173 17.0002Z" stroke="#B02617" stroke-width="2" stroke-linecap="round" stroke-linejoin="round"/>
</svg>
