<svg width="160" height="44" viewBox="0 0 160 44" fill="none" xmlns="http://www.w3.org/2000/svg">
<path d="M11.844 28V16.432H16.26C18.516 16.432 19.892 17.584 19.892 19.488C19.892 20.816 19.316 21.712 18.164 22.192C19.444 22.608 20.1 23.536 20.1 24.912C20.1 26.832 18.708 28 16.42 28H11.844ZM16.164 17.824H13.412V21.536H16.26C17.556 21.536 18.292 20.832 18.292 19.632C18.292 18.48 17.524 17.824 16.164 17.824ZM16.388 22.896H13.412V26.608H16.388C17.732 26.608 18.484 25.92 18.484 24.72C18.484 23.568 17.716 22.896 16.388 22.896ZM24.3747 28.192C22.6947 28.192 21.7027 27.248 21.7027 25.824C21.7027 24.384 22.7747 23.488 24.6147 23.344L27.0788 23.152V22.928C27.0788 21.616 26.2948 21.152 25.2387 21.152C23.9747 21.152 23.2547 21.712 23.2547 22.656H21.9427C21.9427 21.024 23.2867 19.952 25.3028 19.952C27.2387 19.952 28.5508 20.976 28.5508 23.088V28H27.2708L27.1108 26.736C26.7108 27.632 25.6388 28.192 24.3747 28.192ZM24.8067 27.024C26.2308 27.024 27.0947 26.096 27.0947 24.624V24.208L25.0947 24.368C23.7667 24.496 23.2227 25.008 23.2227 25.776C23.2227 26.608 23.8307 27.024 24.8067 27.024ZM30.4016 24.096C30.4016 21.648 31.9536 19.952 34.2416 19.952C36.2096 19.952 37.5856 21.072 37.8576 22.816H36.3536C36.0976 21.824 35.2976 21.296 34.2896 21.296C32.8656 21.296 31.8896 22.384 31.8896 24.08C31.8896 25.76 32.8016 26.848 34.2256 26.848C35.2976 26.848 36.0976 26.288 36.3696 25.36H37.8736C37.5696 27.056 36.1136 28.192 34.2256 28.192C31.9216 28.192 30.4016 26.56 30.4016 24.096ZM41.2765 28H39.7725V16.224H41.2765V23.856L44.7485 20.176H46.6365L43.6445 23.296L46.6205 28H44.8925L42.6045 24.384L41.2765 25.776V28ZM55.0085 28H53.5045V21.44H51.9685V20.176H53.5045V17.728H55.0085V20.176H56.5445V21.44H55.0085V28ZM57.5841 24.08C57.5841 21.664 59.3121 19.968 61.6641 19.968C64.0001 19.968 65.7281 21.664 65.7281 24.08C65.7281 26.496 64.0001 28.192 61.6641 28.192C59.3121 28.192 57.5841 26.496 57.5841 24.08ZM59.1041 24.08C59.1041 25.712 60.1441 26.848 61.6641 26.848C63.1681 26.848 64.2241 25.712 64.2241 24.08C64.2241 22.448 63.1681 21.312 61.6641 21.312C60.1441 21.312 59.1041 22.448 59.1041 24.08ZM74.008 28L71.448 20.176H73L74.296 24.24C74.472 24.816 74.632 25.408 74.776 26.096C74.904 25.408 75.112 24.752 75.288 24.24L76.6 20.176H78.136L79.432 24.24C79.56 24.624 79.816 25.536 79.944 26.096C80.072 25.472 80.216 24.928 80.44 24.24L81.752 20.176H83.32L80.648 28H79.224L77.864 23.808C77.608 23.024 77.448 22.416 77.368 21.984C77.288 22.368 77.144 22.88 76.856 23.824L75.496 28H74.008ZM87.9059 28.192C85.6019 28.192 84.0179 26.528 84.0179 24.096C84.0179 21.648 85.5699 19.952 87.8419 19.952C90.0659 19.952 91.5219 21.488 91.5219 23.808V24.368L85.4739 24.384C85.5859 26.032 86.4499 26.944 87.9379 26.944C89.1059 26.944 89.8739 26.464 90.1299 25.568H91.5379C91.1539 27.248 89.8419 28.192 87.9059 28.192ZM87.8419 21.216C86.5299 21.216 85.6979 22 85.5059 23.376H90.0179C90.0179 22.08 89.1699 21.216 87.8419 21.216ZM94.8418 28H93.4818V16.224H94.9858V21.52C95.4978 20.496 96.5538 19.952 97.8338 19.952C100.074 19.952 101.418 21.712 101.418 24.128C101.418 26.496 100.01 28.192 97.7378 28.192C96.5058 28.192 95.4658 27.648 94.9538 26.576L94.8418 28ZM95.0018 24.064C95.0018 25.696 95.9298 26.832 97.4658 26.832C99.0018 26.832 99.9138 25.68 99.9138 24.064C99.9138 22.464 99.0018 21.312 97.4658 21.312C95.9298 21.312 95.0018 22.464 95.0018 24.064ZM102.716 25.728H104.156C104.156 26.528 104.764 27.008 105.756 27.008C106.812 27.008 107.42 26.576 107.42 25.856C107.42 25.328 107.164 25.008 106.348 24.8L104.972 24.48C103.58 24.144 102.924 23.456 102.924 22.304C102.924 20.864 104.14 19.952 105.868 19.952C107.58 19.952 108.7 20.912 108.732 22.4H107.292C107.26 21.616 106.732 21.12 105.82 21.12C104.876 21.12 104.348 21.536 104.348 22.256C104.348 22.784 104.732 23.136 105.5 23.328L106.876 23.664C108.204 23.984 108.86 24.592 108.86 25.76C108.86 27.248 107.58 28.192 105.724 28.192C103.884 28.192 102.716 27.216 102.716 25.728ZM111.543 18.32C110.999 18.32 110.551 17.872 110.551 17.328C110.551 16.768 110.999 16.336 111.543 16.336C112.087 16.336 112.535 16.768 112.535 17.328C112.535 17.872 112.087 18.32 111.543 18.32ZM110.807 28V20.176H112.311V28H110.807ZM116.983 28H115.479V21.44H113.943V20.176H115.479V17.728H116.983V20.176H118.519V21.44H116.983V28ZM123.446 28.192C121.142 28.192 119.558 26.528 119.558 24.096C119.558 21.648 121.11 19.952 123.382 19.952C125.606 19.952 127.062 21.488 127.062 23.808V24.368L121.014 24.384C121.126 26.032 121.99 26.944 123.478 26.944C124.646 26.944 125.414 26.464 125.67 25.568H127.078C126.694 27.248 125.382 28.192 123.446 28.192ZM123.382 21.216C122.07 21.216 121.238 22 121.046 23.376H125.558C125.558 22.08 124.71 21.216 123.382 21.216Z" fill="#0050B8"/>
<path d="M150.03 22.5303C150.323 22.2374 150.323 21.7626 150.03 21.4697L145.257 16.6967C144.964 16.4038 144.49 16.4038 144.197 16.6967C143.904 16.9896 143.904 17.4645 144.197 17.7574L148.439 22L144.197 26.2426C143.904 26.5355 143.904 27.0104 144.197 27.3033C144.49 27.5962 144.964 27.5962 145.257 27.3033L150.03 22.5303ZM136.5 22L136.5 22.75L149.5 22.75L149.5 22L149.5 21.25L136.5 21.25L136.5 22Z" fill="#0050B8"/>
</svg>
