<svg width="24" height="24" viewBox="0 0 24 24" fill="none" xmlns="http://www.w3.org/2000/svg">
<g id="Icons/Backend">
<path id="Icon" d="M6 18H9.3501M6 6H9.3501M17.9763 18H17.9863M17.9763 6H17.9863M6 22H18C19.4001 22 20.1002 22 20.635 21.7275C21.1054 21.4878 21.4878 21.1054 21.7275 20.635C22 20.1002 22 19.4001 22 18C22 16.5999 22 15.8998 21.7275 15.365C21.4878 14.8946 21.1054 14.5122 20.635 14.2725C20.1002 14 19.4001 14 18 14H6C4.59987 14 3.8998 14 3.36502 14.2725C2.89462 14.5122 2.51217 14.8946 2.27248 15.365C2 15.8998 2 16.5999 2 18C2 19.4001 2 20.1002 2.27248 20.635C2.51217 21.1054 2.89462 21.4878 3.36502 21.7275C3.8998 22 4.59987 22 6 22ZM6 10H18C19.4001 10 20.1002 10 20.635 9.72752C21.1054 9.48783 21.4878 9.10538 21.7275 8.63498C22 8.1002 22 7.40013 22 6C22 4.59987 22 3.8998 21.7275 3.36502C21.4878 2.89462 21.1054 2.51217 20.635 2.27248C20.1002 2 19.4001 2 18 2H6C4.59987 2 3.8998 2 3.36502 2.27248C2.89462 2.51217 2.51217 2.89462 2.27248 3.36502C2 3.8998 2 4.59987 2 6C2 7.40013 2 8.1002 2.27248 8.63498C2.51217 9.10538 2.89462 9.48783 3.36502 9.72752C3.8998 10 4.59987 10 6 10Z" stroke="#0050B8" stroke-width="1.41176" stroke-linecap="round" stroke-linejoin="round"/>
</g>
</svg>
