<svg width="60" height="60" viewBox="0 0 60 60" fill="none" xmlns="http://www.w3.org/2000/svg">
<g clip-path="url(#clip0_4822_1092)">
<rect width="60" height="60" fill="#006AF5"/>
<path d="M42.6641 27H42.6841M17.5703 33H17.5903M30 44C30 44 35 42 40 42C41.0656 42 42.1312 42.0908 43.1484 42.2338C45.9574 42.6286 47.3618 42.826 48.0946 42.5388C48.8307 42.2503 49.2255 41.9071 49.6136 41.2184C50 40.5327 50 39.3252 50 36.9102V19.2498C50 18.1114 50 17.5422 49.7716 16.9908C49.5885 16.5489 49.2055 16.0499 48.8259 15.7587C48.3523 15.3954 47.8706 15.2665 46.9073 15.0086C45.0288 14.5058 42.5144 14 40 14C35 14 30 16 30 16M30 44C30 44 25 46 20 46C17.4856 46 14.9712 45.4942 13.0927 44.9914C12.1294 44.7335 11.6477 44.6046 11.1741 44.2413C10.7945 43.9501 10.4115 43.4511 10.2284 43.0092C10 42.4578 10 41.8886 10 40.7502V23.0898C10 20.6748 10 19.4673 10.3864 18.7816C10.7745 18.0929 11.1693 17.7497 11.9054 17.4612C12.6382 17.174 14.0426 17.3714 16.8516 17.7662C17.8688 17.9092 18.9344 18 20 18C25 18 30 16 30 16M30 44Cnan nan nan nan nan nanCnan nan nan nan nan nanCnan nan nan nan nan nanCnan nan nan nan nan nanCnan nan nan nan nan nanCnan nan nan nan nan nanCnan nan nan nan nan nanCnan nan nan nan nan nanCnan nan nan nan 30 44ZM30 16Cnan nan nan nan nan nanCnan nan nan nan nan nanCnan nan nan nan nan nanCnan nan nan nan nan nanLnan nanCnan nan nan nan nan nanCnan nan nan nan nan nanCnan nan nan nan nan nanCnan nan nan nan 30 16ZM43.6641 27C43.6641 27.5523 43.2163 28 42.6641 28C42.1118 28 41.6641 27.5523 41.6641 27C41.6641 26.4477 42.1118 26 42.6641 26C43.2163 26 43.6641 26.4477 43.6641 27ZM18.5703 33C18.5703 33.5523 18.1226 34 17.5703 34C17.018 34 16.5703 33.5523 16.5703 33C16.5703 32.4477 17.018 32 17.5703 32C18.1226 32 18.5703 32.4477 18.5703 33ZM35.1914 30C35.1914 32.8024 32.9196 35.0742 30.1172 35.0742C27.3148 35.0742 25.043 32.8024 25.043 30C25.043 27.1976 27.3148 24.9258 30.1172 24.9258C32.9196 24.9258 35.1914 27.1976 35.1914 30Z" stroke="white" stroke-width="3.5" stroke-linecap="round" stroke-linejoin="round"/>
</g>
<defs>
<clipPath id="clip0_4822_1092">
<rect width="60" height="60" rx="4" fill="white"/>
</clipPath>
</defs>
</svg>
