<svg width="48" height="48" viewBox="0 0 48 48" fill="none" xmlns="http://www.w3.org/2000/svg">
<path d="M36.6641 21H36.6841M11.5703 27H11.5903M24 38C24 38 29 36 34 36C35.0656 36 36.1312 36.0908 37.1484 36.2338C39.9574 36.6286 41.3618 36.826 42.0946 36.5388C42.8307 36.2503 43.2255 35.9071 43.6136 35.2184C44 34.5327 44 33.3252 44 30.9102V13.2498C44 12.1114 44 11.5422 43.7716 10.9908C43.5885 10.5489 43.2055 10.0499 42.8259 9.7587C42.3523 9.39544 41.8706 9.2665 40.9073 9.00863C39.0288 8.50577 36.5144 8 34 8C29 8 24 10 24 10M24 38C24 38 19 40 14 40C11.4856 40 8.97122 39.4942 7.09269 38.9914C6.12936 38.7335 5.6477 38.6046 5.17412 38.2413C4.79455 37.9501 4.41154 37.4511 4.22845 37.0092C4 36.4578 4 35.8886 4 34.7502V17.0898C4 14.6748 4 13.4673 4.38636 12.7816C4.77446 12.0929 5.1693 11.7497 5.90538 11.4612C6.63815 11.174 8.04262 11.3714 10.8516 11.7662C11.8688 11.9092 12.9344 12 14 12C19 12 24 10 24 10M24 38Cnan nan nan nan nan nanCnan nan nan nan nan nanCnan nan nan nan nan nanCnan nan nan nan nan nanCnan nan nan nan nan nanCnan nan nan nan nan nanCnan nan nan nan nan nanCnan nan nan nan nan nanCnan nan nan nan 24 38ZM24 10Cnan nan nan nan nan nanCnan nan nan nan nan nanCnan nan nan nan nan nanCnan nan nan nan nan nanLnan nanCnan nan nan nan nan nanCnan nan nan nan nan nanCnan nan nan nan nan nanCnan nan nan nan 24 10ZM37.6641 21C37.6641 21.5523 37.2163 22 36.6641 22C36.1118 22 35.6641 21.5523 35.6641 21C35.6641 20.4477 36.1118 20 36.6641 20C37.2163 20 37.6641 20.4477 37.6641 21ZM12.5703 27C12.5703 27.5523 12.1226 28 11.5703 28C11.018 28 10.5703 27.5523 10.5703 27C10.5703 26.4477 11.018 26 11.5703 26C12.1226 26 12.5703 26.4477 12.5703 27ZM29.1914 24C29.1914 26.8024 26.9196 29.0742 24.1172 29.0742C21.3148 29.0742 19.043 26.8024 19.043 24C19.043 21.1976 21.3148 18.9258 24.1172 18.9258C26.9196 18.9258 29.1914 21.1976 29.1914 24Z" stroke="white" stroke-width="3.5" stroke-linecap="round" stroke-linejoin="round"/>
</svg>
