<svg width="48" height="48" viewBox="0 0 48 48" fill="none" xmlns="http://www.w3.org/2000/svg">
<path fill-rule="evenodd" clip-rule="evenodd" d="M24.7421 11.8572C24.7424 11.8571 24.7427 11.857 23.9999 10C23.2571 8.14305 23.2575 8.14291 23.2578 8.14277L23.2606 8.14168L23.2658 8.13959L23.2818 8.13326L23.3353 8.1124C23.3803 8.09497 23.444 8.07063 23.525 8.04038C23.687 7.9799 23.9189 7.89565 24.2106 7.79561C24.7934 7.59579 25.6197 7.33151 26.6096 7.06753C28.5711 6.54447 31.2579 6 33.9999 6C36.7575 6 39.4595 6.55069 41.4244 7.07666C41.4783 7.09108 41.5324 7.10544 41.5866 7.11983C42.3991 7.33555 43.2459 7.56037 44.043 8.17178C44.7012 8.67665 45.3017 9.45897 45.6192 10.2253C46.0046 11.1557 46.0024 12.1116 46.0002 13.0421C46.0001 13.1115 45.9999 13.1807 45.9999 13.2498V30.9102V30.9836C45.9999 32.1286 46 33.0927 45.9467 33.8525C45.8945 34.5984 45.7789 35.4496 45.356 36.2002C45.088 36.6758 44.7588 37.1364 44.2967 37.5381C43.8345 37.9399 43.3326 38.2017 42.8243 38.4009C41.9902 38.7278 41.0413 38.699 40.2423 38.6358C39.3875 38.5682 38.2847 38.4132 36.9378 38.2239L36.87 38.2143C35.9253 38.0816 34.9545 38 33.9999 38C31.7419 38 29.4288 38.4555 27.6402 38.9325C26.7552 39.1685 26.0189 39.4042 25.5079 39.5794C25.2528 39.6669 25.055 39.7389 24.924 39.7877C24.8586 39.8122 24.8099 39.8308 24.7793 39.8427L24.747 39.8553L24.7421 39.8572C24.7424 39.8571 24.7427 39.857 23.9999 38C23.2571 36.143 23.2575 36.1429 23.2578 36.1428L23.2606 36.1417L23.2658 36.1396L23.2818 36.1333L23.3353 36.1124C23.3803 36.095 23.444 36.0706 23.525 36.0404C23.687 35.9799 23.9189 35.8956 24.2106 35.7956C24.7934 35.5958 25.6197 35.3315 26.6096 35.0675C28.5711 34.5445 31.2579 34 33.9999 34C35.1766 34 36.3369 34.1001 37.4267 34.2533C38.8579 34.4544 39.8392 34.5914 40.5577 34.6483C41.189 34.6982 41.3917 34.661 41.3955 34.6645C41.5984 34.5825 41.6569 34.5328 41.6724 34.5193C41.6883 34.5055 41.7478 34.4526 41.8617 34.2531C41.8647 34.2405 41.9212 34.0775 41.9565 33.573C41.9987 32.9702 41.9999 32.148 41.9999 30.9102V13.2498C41.9999 11.9685 41.9665 11.8594 41.9238 11.7563C41.8751 11.6388 41.7095 11.4231 41.6085 11.3456C41.5637 11.3112 41.5131 11.2774 41.3624 11.2222C41.1652 11.1499 40.9026 11.0778 40.3901 10.9406C38.5978 10.4609 36.2711 10 33.9999 10C31.7419 10 29.4288 10.4555 27.6402 10.9325C26.7552 11.1685 26.0189 11.4042 25.5079 11.5794C25.2528 11.6669 25.055 11.7389 24.924 11.7877C24.8586 11.8122 24.8099 11.8308 24.7793 11.8427L24.747 11.8553L24.7421 11.8572ZM6.13808 13.7469C6.13513 13.7595 6.07866 13.9224 6.04332 14.427C6.00109 15.0298 5.99991 15.852 5.99991 17.0898V34.7502C5.99991 36.0315 6.03337 36.1406 6.07606 36.2437C6.12476 36.3612 6.29033 36.5769 6.39129 36.6544C6.43611 36.6888 6.48674 36.7226 6.63743 36.7778C6.83466 36.8501 7.09721 36.9222 7.60977 37.0594C9.40198 37.5391 11.7287 38 13.9999 38C16.2579 38 18.5711 37.5445 20.3596 37.0675C21.2447 36.8315 21.9809 36.5958 22.4919 36.4206C22.747 36.3331 22.9448 36.2611 23.0758 36.2123C23.1413 36.1878 23.1899 36.1692 23.2206 36.1573L23.2528 36.1447L23.2578 36.1428C23.2575 36.1429 23.2571 36.143 23.9999 38C24.7427 39.857 24.7424 39.8571 24.7421 39.8572L24.7411 39.8576L24.7393 39.8583L24.734 39.8604L24.718 39.8667L24.6645 39.8876C24.6195 39.905 24.5558 39.9294 24.4748 39.9596C24.3128 40.0201 24.081 40.1044 23.7892 40.2044C23.2064 40.4042 22.3802 40.6685 21.3902 40.9325C19.4288 41.4555 16.7419 42 13.9999 42C11.2424 42 8.54029 41.4493 6.57543 40.9233C6.52154 40.9089 6.46747 40.8946 6.41324 40.8802C5.60068 40.6644 4.75388 40.4396 3.95678 39.8282C3.2986 39.3233 2.69816 38.541 2.38066 37.7747C1.9952 36.8443 1.99743 35.8884 1.99959 34.9579C1.99975 34.8885 1.99991 34.8193 1.99991 34.7502V17.0898V17.0164C1.99989 15.8715 1.99987 14.9074 2.0531 14.1475C2.10535 13.4016 2.22094 12.5504 2.64385 11.7998C2.91186 11.3242 3.24103 10.8636 3.70318 10.4619C4.16533 10.0601 4.66723 9.79828 5.17554 9.59908C6.00961 9.27221 6.95848 9.30098 7.75755 9.36419C8.61234 9.43181 9.71516 9.58682 11.062 9.77613L11.1298 9.78566C12.0745 9.91843 13.0454 10 13.9999 10C16.2579 10 18.5711 9.54447 20.3596 9.06753C21.2447 8.83151 21.9809 8.59579 22.4919 8.42061C22.747 8.33315 22.9448 8.26115 23.0758 8.21225C23.1413 8.18782 23.1899 8.16919 23.2206 8.15733L23.2528 8.14474L23.2578 8.14277C23.2575 8.14291 23.2571 8.14305 23.9999 10C24.7427 11.857 24.7424 11.8571 24.7421 11.8572L24.7411 11.8576L24.7393 11.8583L24.734 11.8604L24.718 11.8667L24.6645 11.8876C24.6195 11.905 24.5558 11.9294 24.4748 11.9596C24.3128 12.0201 24.081 12.1044 23.7892 12.2044C23.2064 12.4042 22.3802 12.6685 21.3902 12.9325C19.4288 13.4555 16.7419 14 13.9999 14C12.8232 14 11.6629 13.8999 10.5731 13.7467C9.14189 13.5456 8.16067 13.4086 7.4421 13.3517C6.81084 13.3018 6.60816 13.339 6.60436 13.3355C6.40147 13.4175 6.34296 13.4672 6.32741 13.4807C6.31152 13.4945 6.25205 13.5474 6.13808 13.7469ZM24.1171 20.9258C22.4193 20.9258 21.0429 22.3022 21.0429 24C21.0429 25.6978 22.4193 27.0742 24.1171 27.0742C25.8149 27.0742 27.1913 25.6978 27.1913 24C27.1913 22.3022 25.8149 20.9258 24.1171 20.9258ZM17.0429 24C17.0429 20.093 20.2101 16.9258 24.1171 16.9258C28.0241 16.9258 31.1913 20.093 31.1913 24C31.1913 27.907 28.0241 31.0742 24.1171 31.0742C20.2101 31.0742 17.0429 27.907 17.0429 24ZM33.664 21C33.664 19.3431 35.0071 18 36.664 18C38.3208 18 39.664 19.3431 39.664 21C39.664 22.6569 38.3208 24 36.664 24C35.0071 24 33.664 22.6569 33.664 21ZM8.57023 27C8.57023 25.3431 9.91337 24 11.5702 24C13.2271 24 14.5702 25.3431 14.5702 27C14.5702 28.6569 13.2271 30 11.5702 30C9.91337 30 8.57023 28.6569 8.57023 27Z" fill="white"/>
</svg>
