<svg width="24" height="24" viewBox="0 0 24 24" fill="none" xmlns="http://www.w3.org/2000/svg">
<g id="Broadcast">
<path id="Vector" d="M12.0002 8.24989C11.2586 8.24989 10.5335 8.46982 9.91684 8.88188C9.30016 9.29393 8.81951 9.8796 8.53568 10.5648C8.25186 11.25 8.17759 12.004 8.32229 12.7315C8.46698 13.4589 8.82413 14.1271 9.34858 14.6515C9.87303 15.176 10.5412 15.5331 11.2686 15.6778C11.9961 15.8225 12.7501 15.7483 13.4353 15.4644C14.1205 15.1806 14.7062 14.7 15.1182 14.0833C15.5303 13.4666 15.7502 12.7416 15.7502 11.9999C15.7502 11.0053 15.3551 10.0515 14.6519 9.34824C13.9486 8.64498 12.9948 8.24989 12.0002 8.24989ZM12.0002 14.2499C11.5552 14.2499 11.1202 14.1179 10.7502 13.8707C10.3802 13.6235 10.0918 13.2721 9.9215 12.8609C9.75121 12.4498 9.70665 11.9974 9.79347 11.5609C9.88028 11.1245 10.0946 10.7236 10.4092 10.4089C10.7239 10.0942 11.1248 9.87994 11.5613 9.79312C11.9977 9.70631 12.4501 9.75086 12.8613 9.92116C13.2724 10.0915 13.6238 10.3798 13.871 10.7499C14.1183 11.1199 14.2502 11.5549 14.2502 11.9999C14.2502 12.5966 14.0132 13.1689 13.5912 13.5909C13.1693 14.0128 12.597 14.2499 12.0002 14.2499ZM18.9105 14.9193C18.5883 15.6811 18.1423 16.3843 17.5905 17.0005C17.4569 17.1451 17.2719 17.2313 17.0752 17.2406C16.8786 17.2499 16.6862 17.1816 16.5395 17.0503C16.3929 16.919 16.3037 16.7353 16.2912 16.5389C16.2788 16.3424 16.3441 16.1489 16.473 16.0002C17.4578 14.9006 18.0024 13.4764 18.0024 12.0004C18.0024 10.5243 17.4578 9.10007 16.473 8.00051C16.4055 7.92744 16.3532 7.84167 16.3191 7.74819C16.2851 7.6547 16.27 7.55537 16.2747 7.45599C16.2794 7.35661 16.3038 7.25915 16.3466 7.16931C16.3893 7.07946 16.4495 6.99901 16.5236 6.93265C16.5978 6.86629 16.6844 6.81535 16.7784 6.78278C16.8724 6.75022 16.9719 6.73669 17.0712 6.74297C17.1705 6.74926 17.2676 6.77524 17.3567 6.8194C17.4459 6.86356 17.5254 6.92502 17.5905 7.0002C18.5376 8.05989 19.1643 9.36662 19.398 10.7685C19.6317 12.1703 19.4626 13.6097 18.9105 14.9193ZM6.46898 9.66458C6.02646 10.7121 5.89074 11.8638 6.07764 12.9855C6.26453 14.1072 6.76635 15.1527 7.52461 16.0002C7.65355 16.1489 7.71884 16.3424 7.70641 16.5389C7.69397 16.7353 7.60479 16.919 7.45812 17.0503C7.31146 17.1816 7.11905 17.2499 6.92242 17.2406C6.7258 17.2313 6.54071 17.1451 6.40711 17.0005C5.17578 15.6261 4.49489 13.8457 4.49489 12.0004C4.49489 10.155 5.17578 8.37462 6.40711 7.0002C6.53976 6.85164 6.72599 6.76186 6.92484 6.7506C7.12368 6.73935 7.31886 6.80755 7.46742 6.9402C7.61598 7.07285 7.70577 7.25908 7.71702 7.45793C7.72827 7.65678 7.66007 7.85195 7.52742 8.00051C7.08492 8.49278 6.72724 9.05512 6.46898 9.66458ZM23.2502 11.9999C23.2548 14.9453 22.1 17.7741 20.0355 19.8749C19.9672 19.9479 19.885 20.0065 19.7937 20.0473C19.7025 20.0881 19.6039 20.1102 19.504 20.1124C19.404 20.1146 19.3046 20.0967 19.2117 20.0599C19.1187 20.0231 19.034 19.968 18.9626 19.898C18.8913 19.828 18.8346 19.7444 18.796 19.6522C18.7574 19.56 18.7376 19.461 18.7378 19.361C18.738 19.261 18.7582 19.1621 18.7972 19.07C18.8362 18.9779 18.8932 18.8946 18.9649 18.8249C20.7525 17.0037 21.7539 14.5537 21.7539 12.0018C21.7539 9.44986 20.7525 6.99986 18.9649 5.17864C18.8252 5.03667 18.7476 4.845 18.7492 4.6458C18.7507 4.4466 18.8314 4.25619 18.9734 4.11645C19.1153 3.97672 19.307 3.8991 19.5062 3.90068C19.7054 3.90227 19.8958 3.98292 20.0355 4.12489C22.1 6.22567 23.2548 9.05451 23.2502 11.9999ZM5.03555 18.823C5.10461 18.8933 5.15916 18.9765 5.19606 19.0679C5.23297 19.1593 5.25152 19.257 5.25065 19.3556C5.24978 19.4541 5.22951 19.5515 5.19099 19.6422C5.15248 19.733 5.09647 19.8152 5.02617 19.8843C4.95587 19.9533 4.87266 20.0079 4.78128 20.0448C4.6899 20.0817 4.59215 20.1002 4.4936 20.0994C4.39506 20.0985 4.29765 20.0782 4.20694 20.0397C4.11623 20.0012 4.03399 19.9452 3.96492 19.8749C1.90072 17.7735 0.744141 14.9456 0.744141 11.9999C0.744141 9.05422 1.90072 6.22632 3.96492 4.12489C4.03322 4.05187 4.11543 3.99324 4.20672 3.95245C4.29801 3.91166 4.39653 3.88954 4.4965 3.88738C4.59646 3.88523 4.69584 3.90308 4.78881 3.93989C4.88177 3.9767 4.96643 4.03173 5.03782 4.10174C5.1092 4.17175 5.16587 4.25533 5.20448 4.34756C5.2431 4.43979 5.26288 4.53881 5.26267 4.6388C5.26246 4.73878 5.24226 4.83772 5.20325 4.92978C5.16425 5.02185 5.10723 5.10518 5.03555 5.17489C3.24798 6.99611 2.24652 9.44611 2.24652 11.998C2.24652 14.5499 3.24798 16.9999 5.03555 18.8211V18.823Z" fill="#FF6C0A"/>
</g>
</svg>
