<svg width="32" height="33" viewBox="0 0 32 33" fill="none" xmlns="http://www.w3.org/2000/svg">
<path d="M30 26.4998H28V12.4998C28 11.9694 27.7893 11.4607 27.4142 11.0856C27.0391 10.7105 26.5304 10.4998 26 10.4998H18V4.49984C18.0002 4.13766 17.9021 3.78223 17.7161 3.47146C17.5301 3.16069 17.2633 2.90626 16.944 2.73532C16.6247 2.56438 16.265 2.48335 15.9032 2.50088C15.5415 2.5184 15.1913 2.63383 14.89 2.83484L4.89 9.49984C4.61567 9.68286 4.39086 9.93088 4.23558 10.2218C4.0803 10.5127 3.99937 10.8376 4 11.1673V26.4998H2C1.73478 26.4998 1.48043 26.6052 1.29289 26.7927C1.10536 26.9803 1 27.2346 1 27.4998C1 27.7651 1.10536 28.0194 1.29289 28.2069C1.48043 28.3945 1.73478 28.4998 2 28.4998H30C30.2652 28.4998 30.5196 28.3945 30.7071 28.2069C30.8946 28.0194 31 27.7651 31 27.4998C31 27.2346 30.8946 26.9803 30.7071 26.7927C30.5196 26.6052 30.2652 26.4998 30 26.4998ZM26 12.4998V26.4998H18V12.4998H26ZM6 11.1673L16 4.49984V26.4998H6V11.1673ZM14 14.4998V16.4998C14 16.7651 13.8946 17.0194 13.7071 17.2069C13.5196 17.3945 13.2652 17.4998 13 17.4998C12.7348 17.4998 12.4804 17.3945 12.2929 17.2069C12.1054 17.0194 12 16.7651 12 16.4998V14.4998C12 14.2346 12.1054 13.9803 12.2929 13.7927C12.4804 13.6052 12.7348 13.4998 13 13.4998C13.2652 13.4998 13.5196 13.6052 13.7071 13.7927C13.8946 13.9803 14 14.2346 14 14.4998ZM10 14.4998V16.4998C10 16.7651 9.89464 17.0194 9.70711 17.2069C9.51957 17.3945 9.26522 17.4998 9 17.4998C8.73478 17.4998 8.48043 17.3945 8.29289 17.2069C8.10536 17.0194 8 16.7651 8 16.4998V14.4998C8 14.2346 8.10536 13.9803 8.29289 13.7927C8.48043 13.6052 8.73478 13.4998 9 13.4998C9.26522 13.4998 9.51957 13.6052 9.70711 13.7927C9.89464 13.9803 10 14.2346 10 14.4998ZM10 21.4998V23.4998C10 23.7651 9.89464 24.0194 9.70711 24.2069C9.51957 24.3945 9.26522 24.4998 9 24.4998C8.73478 24.4998 8.48043 24.3945 8.29289 24.2069C8.10536 24.0194 8 23.7651 8 23.4998V21.4998C8 21.2346 8.10536 20.9803 8.29289 20.7927C8.48043 20.6052 8.73478 20.4998 9 20.4998C9.26522 20.4998 9.51957 20.6052 9.70711 20.7927C9.89464 20.9803 10 21.2346 10 21.4998ZM14 21.4998V23.4998C14 23.7651 13.8946 24.0194 13.7071 24.2069C13.5196 24.3945 13.2652 24.4998 13 24.4998C12.7348 24.4998 12.4804 24.3945 12.2929 24.2069C12.1054 24.0194 12 23.7651 12 23.4998V21.4998C12 21.2346 12.1054 20.9803 12.2929 20.7927C12.4804 20.6052 12.7348 20.4998 13 20.4998C13.2652 20.4998 13.5196 20.6052 13.7071 20.7927C13.8946 20.9803 14 21.2346 14 21.4998Z" fill="#EB331E"/>
</svg>
