<svg width="48" height="48" viewBox="0 0 48 48" fill="none" xmlns="http://www.w3.org/2000/svg">
<path d="M40.5 7.5H7.5C6.70435 7.5 5.94129 7.81607 5.37868 8.37868C4.81607 8.94129 4.5 9.70435 4.5 10.5V37.5C4.5 38.2956 4.81607 39.0587 5.37868 39.6213C5.94129 40.1839 6.70435 40.5 7.5 40.5H10.0106C10.2945 40.5001 10.5726 40.4196 10.8126 40.2679C11.0525 40.1163 11.2445 39.8996 11.3663 39.6431C12.0957 38.1031 13.2473 36.8019 14.6871 35.8906C16.127 34.9794 17.796 34.4957 19.5 34.4957C21.204 34.4957 22.873 34.9794 24.3129 35.8906C25.7527 36.8019 26.9043 38.1031 27.6338 39.6431C27.7555 39.8996 27.9475 40.1163 28.1874 40.2679C28.4274 40.4196 28.7055 40.5001 28.9894 40.5H40.5C41.2957 40.5 42.0587 40.1839 42.6213 39.6213C43.1839 39.0587 43.5 38.2956 43.5 37.5V10.5C43.5 9.70435 43.1839 8.94129 42.6213 8.37868C42.0587 7.81607 41.2957 7.5 40.5 7.5ZM15 27C15 26.11 15.2639 25.24 15.7584 24.4999C16.2529 23.7599 16.9557 23.1831 17.7779 22.8425C18.6002 22.5019 19.505 22.4128 20.3779 22.5865C21.2508 22.7601 22.0526 23.1887 22.682 23.818C23.3113 24.4474 23.7399 25.2492 23.9135 26.1221C24.0872 26.995 23.9981 27.8998 23.6575 28.7221C23.3169 29.5443 22.7401 30.2471 22.0001 30.7416C21.26 31.2361 20.39 31.5 19.5 31.5C18.3065 31.5 17.1619 31.0259 16.318 30.182C15.4741 29.3381 15 28.1935 15 27ZM40.5 37.5H29.8931C28.6405 35.3464 26.7523 33.6331 24.4875 32.595C25.623 31.584 26.4244 30.2517 26.7854 28.7748C27.1465 27.298 27.0502 25.7462 26.5093 24.3253C25.9684 22.9044 25.0084 21.6815 23.7566 20.8186C22.5048 19.9557 21.0204 19.4937 19.5 19.4937C17.9796 19.4937 16.4952 19.9557 15.2434 20.8186C13.9916 21.6815 13.0316 22.9044 12.4907 24.3253C11.9498 25.7462 11.8535 27.298 12.2146 28.7748C12.5756 30.2517 13.377 31.584 14.5125 32.595C12.2477 33.6331 10.3595 35.3464 9.10687 37.5H7.5V10.5H40.5V37.5ZM10.5 18V15C10.5 14.6022 10.658 14.2206 10.9393 13.9393C11.2206 13.658 11.6022 13.5 12 13.5H36C36.3978 13.5 36.7794 13.658 37.0607 13.9393C37.342 14.2206 37.5 14.6022 37.5 15V33C37.5 33.3978 37.342 33.7794 37.0607 34.0607C36.7794 34.342 36.3978 34.5 36 34.5H33C32.6022 34.5 32.2206 34.342 31.9393 34.0607C31.658 33.7794 31.5 33.3978 31.5 33C31.5 32.6022 31.658 32.2206 31.9393 31.9393C32.2206 31.658 32.6022 31.5 33 31.5H34.5V16.5H13.5V18C13.5 18.3978 13.342 18.7794 13.0607 19.0607C12.7794 19.342 12.3978 19.5 12 19.5C11.6022 19.5 11.2206 19.342 10.9393 19.0607C10.658 18.7794 10.5 18.3978 10.5 18Z" fill="#FDFDFF"/>
</svg>
