<svg width="34" height="34" viewBox="0 0 34 34" fill="none" xmlns="http://www.w3.org/2000/svg">
<g id="code-browser">
<path id="Icon" d="M13.8947 17.3427L10.678 20.5594C10.2965 20.9409 10.2965 21.5594 10.678 21.9409L13.8947 25.1576M20.105 17.3427L23.3217 20.5594C23.7032 20.9409 23.7032 21.5594 23.3217 21.9409L20.105 25.1576M2.83325 11.3335H31.1666M2.83325 11.3335V24.3668C2.83325 26.7471 2.83325 27.9372 3.29647 28.8463C3.70394 29.646 4.3541 30.2961 5.15379 30.7036C6.06292 31.1668 7.25303 31.1668 9.63325 31.1668H24.3666C26.7468 31.1668 27.9369 31.1668 28.846 30.7036C29.6457 30.2961 30.2959 29.646 30.7034 28.8463C31.1666 27.9372 31.1666 26.7471 31.1666 24.3668V11.3335M2.83325 11.3335V9.6335C2.83325 7.25327 2.83325 6.06316 3.29647 5.15404C3.70394 4.35435 4.3541 3.70418 5.15379 3.29672C6.06292 2.8335 7.25303 2.8335 9.63325 2.8335H24.3666C26.7468 2.8335 27.9369 2.8335 28.846 3.29672C29.6457 3.70418 30.2959 4.35435 30.7034 5.15404C31.1666 6.06316 31.1666 7.25327 31.1666 9.6335V11.3335" stroke="#6E6900" stroke-width="2" stroke-linecap="round"/>
</g>
</svg>
