<svg width="34" height="34" viewBox="0 0 34 34" fill="none" xmlns="http://www.w3.org/2000/svg">
<g id="code-browser">
<path id="Icon" d="M13.8947 17.3427L10.6781 20.5594C10.2966 20.9409 10.2966 21.5594 10.6781 21.9409L13.8947 25.1576M20.1051 17.3427L23.3218 20.5594C23.7033 20.9409 23.7033 21.5594 23.3218 21.9409L20.1051 25.1576M2.83331 11.3335H31.1666M2.83331 11.3335V24.3668C2.83331 26.7471 2.83331 27.9372 3.29654 28.8463C3.704 29.646 4.35416 30.2961 5.15385 30.7036C6.06298 31.1668 7.25309 31.1668 9.63331 31.1668H24.3666C26.7469 31.1668 27.937 31.1668 28.8461 30.7036C29.6458 30.2961 30.296 29.646 30.7034 28.8463C31.1666 27.9372 31.1666 26.7471 31.1666 24.3668V11.3335M2.83331 11.3335V9.6335C2.83331 7.25327 2.83331 6.06316 3.29654 5.15404C3.704 4.35435 4.35416 3.70418 5.15385 3.29672C6.06298 2.8335 7.25309 2.8335 9.63331 2.8335H24.3666C26.7469 2.8335 27.937 2.8335 28.8461 3.29672C29.6458 3.70418 30.296 4.35435 30.7034 5.15404C31.1666 6.06316 31.1666 7.25327 31.1666 9.6335V11.3335" stroke="#6E6900" stroke-width="2" stroke-linecap="round"/>
</g>
</svg>
