<svg width="34" height="34" viewBox="0 0 34 34" fill="none" xmlns="http://www.w3.org/2000/svg">
<g id="database-02">
<path id="Icon" d="M29.75 20.6819C29.75 22.6308 24.0416 24.2108 17 24.2108C9.95837 24.2108 4.25001 22.6308 4.25001 20.6819M29.7475 13.9311C29.7475 15.8797 24.0403 17.4593 17 17.4593C9.95975 17.4593 4.2525 15.8797 4.2525 13.9311M29.75 6.16931L29.75 27.7263C29.75 29.6265 24.0416 31.1668 17 31.1668C9.95837 31.1668 4.25 29.6265 4.25 27.7263L4.25 6.16931M29.75 6.77101C29.75 8.94563 24.0416 10.7085 17 10.7085C9.95837 10.7085 4.25001 8.94563 4.25001 6.77101C4.25001 4.59638 9.95837 2.8335 17 2.8335C24.0416 2.8335 29.75 4.59638 29.75 6.77101Z" stroke="#7416A7" stroke-width="2.25"/>
</g>
</svg>
