<svg width="643" height="238" viewBox="0 0 643 238" fill="none" xmlns="http://www.w3.org/2000/svg">
<g filter="url(#filter0_d_5236_738)">
<rect x="29" y="22" width="585" height="180" rx="4" fill="#FDFDFF"/>
<path d="M90 66.5989C90 67.9746 85.9706 69.0898 81 69.0898C76.0294 69.0898 72 67.9746 72 66.5989M89.9982 61.8336C89.9982 63.2091 85.9696 64.3241 81 64.3241C76.0304 64.3241 72.0018 63.2091 72.0018 61.8336M90 56.3547L90 71.5714C90 72.9127 85.9706 74 81 74C76.0294 74 72 72.9127 72 71.5714L72 56.3547M90 56.7794C90 58.3144 85.9706 59.5588 81 59.5588C76.0294 59.5588 72 58.3144 72 56.7794C72 55.2444 76.0294 54 81 54C85.9706 54 90 55.2444 90 56.7794Z" stroke="#0050B8" stroke-width="1.6"/>
<path d="M113.136 65.33H107.862V71H106.566V58.112H114.162V59.3H107.862V64.16H113.136V65.33ZM121.915 62.288H123.157V71H122.077L121.915 69.524C121.429 70.532 120.223 71.216 118.855 71.216C116.803 71.216 115.687 69.812 115.687 67.688V62.27H116.947V67.292C116.947 69.362 117.865 70.1 119.251 70.1C120.925 70.1 121.915 68.984 121.915 66.914V62.288ZM127.31 71H126.068V57.878H127.31V71ZM131.517 71H130.275V57.878H131.517V71ZM134.285 66.824V65.708H139.505V66.824H134.285ZM141.449 68.552H142.637C142.637 69.56 143.393 70.19 144.617 70.19C145.967 70.19 146.759 69.614 146.759 68.678C146.759 67.958 146.399 67.544 145.373 67.292L143.879 66.914C142.367 66.536 141.629 65.744 141.629 64.556C141.629 63.026 142.907 62.054 144.779 62.054C146.615 62.054 147.803 63.062 147.857 64.682H146.651C146.615 63.674 145.913 63.08 144.743 63.08C143.519 63.08 142.835 63.602 142.835 64.538C142.835 65.204 143.303 65.672 144.257 65.906L145.751 66.284C147.263 66.662 147.947 67.364 147.947 68.624C147.947 70.19 146.615 71.216 144.635 71.216C142.673 71.216 141.449 70.172 141.449 68.552ZM152.26 71H151.036V63.332H149.29V62.288H151.036V59.534H152.26V62.288H154.006V63.332H152.26V71ZM155.193 66.644C155.193 63.98 157.065 62.054 159.621 62.054C162.177 62.054 164.049 63.98 164.049 66.644C164.049 69.29 162.177 71.216 159.621 71.216C157.065 71.216 155.193 69.29 155.193 66.644ZM156.453 66.626C156.453 68.678 157.749 70.1 159.621 70.1C161.475 70.1 162.789 68.678 162.789 66.626C162.789 64.61 161.475 63.17 159.621 63.17C157.749 63.17 156.453 64.61 156.453 66.626ZM165.694 66.662C165.694 63.926 167.368 62.054 169.906 62.054C171.922 62.054 173.398 63.224 173.74 65.024H172.498C172.174 63.818 171.13 63.152 169.924 63.152C168.16 63.152 166.918 64.502 166.918 66.644C166.918 68.714 168.07 70.1 169.834 70.1C171.13 70.1 172.174 69.38 172.516 68.264H173.776C173.362 70.046 171.814 71.216 169.834 71.216C167.368 71.216 165.694 69.398 165.694 66.662ZM177.223 71H175.981V57.878H177.223V66.788L181.543 62.288H183.109L179.761 65.762L183.127 71H181.687L178.915 66.644L177.223 68.39V71ZM194.337 71H190.413V58.112H194.301C198.189 58.112 200.781 60.704 200.781 64.556C200.781 68.408 198.207 71 194.337 71ZM194.247 59.3H191.709V69.812H194.283C197.433 69.812 199.449 67.76 199.449 64.556C199.449 61.334 197.433 59.3 194.247 59.3ZM206.776 71.216C204.22 71.216 202.51 69.38 202.51 66.644C202.51 63.926 204.202 62.054 206.686 62.054C209.044 62.054 210.646 63.728 210.646 66.194V66.806H203.716C203.806 68.93 204.922 70.154 206.794 70.154C208.216 70.154 209.134 69.542 209.458 68.39H210.646C210.178 70.226 208.828 71.216 206.776 71.216ZM206.686 63.116C205.048 63.116 203.968 64.196 203.752 65.906H209.404C209.404 64.232 208.324 63.116 206.686 63.116ZM215.103 71L211.539 62.288H212.871L215.121 67.904C215.355 68.534 215.589 69.128 215.751 69.704C215.913 69.11 216.147 68.534 216.399 67.904L218.685 62.288H219.963L216.345 71H215.103ZM224.964 71.216C222.408 71.216 220.698 69.38 220.698 66.644C220.698 63.926 222.39 62.054 224.874 62.054C227.232 62.054 228.834 63.728 228.834 66.194V66.806H221.904C221.994 68.93 223.11 70.154 224.982 70.154C226.404 70.154 227.322 69.542 227.646 68.39H228.834C228.366 70.226 227.016 71.216 224.964 71.216ZM224.874 63.116C223.236 63.116 222.156 64.196 221.94 65.906H227.592C227.592 64.232 226.512 63.116 224.874 63.116ZM232.386 71H231.144V57.878H232.386V71ZM234.686 66.644C234.686 63.98 236.558 62.054 239.114 62.054C241.67 62.054 243.542 63.98 243.542 66.644C243.542 69.29 241.67 71.216 239.114 71.216C236.558 71.216 234.686 69.29 234.686 66.644ZM235.946 66.626C235.946 68.678 237.242 70.1 239.114 70.1C240.968 70.1 242.282 68.678 242.282 66.626C242.282 64.61 240.968 63.17 239.114 63.17C237.242 63.17 235.946 64.61 235.946 66.626ZM245.798 74.798V62.288H246.878L247.004 64.052C247.616 62.702 248.84 62.054 250.298 62.054C252.818 62.054 254.33 63.98 254.33 66.608C254.33 69.236 252.872 71.216 250.298 71.216C248.822 71.216 247.652 70.586 247.04 69.326V74.798H245.798ZM247.058 66.644C247.058 68.642 248.174 70.1 250.082 70.1C251.972 70.1 253.07 68.642 253.07 66.644C253.07 64.628 251.972 63.188 250.082 63.188C248.174 63.188 247.058 64.628 247.058 66.644ZM257.822 71H256.58V62.288H257.66L257.804 63.53C258.236 62.612 259.208 62.054 260.432 62.054C261.8 62.054 262.826 62.774 263.24 63.908C263.636 62.774 264.698 62.054 266.102 62.054C267.992 62.054 269.234 63.278 269.234 65.294V71H268.028V65.546C268.028 64.052 267.2 63.17 265.868 63.17C264.41 63.17 263.546 64.268 263.546 65.618V71H262.322V65.528C262.322 64.052 261.476 63.188 260.162 63.188C258.704 63.188 257.822 64.268 257.822 65.6V71ZM275.656 71.216C273.1 71.216 271.39 69.38 271.39 66.644C271.39 63.926 273.082 62.054 275.566 62.054C277.924 62.054 279.526 63.728 279.526 66.194V66.806H272.596C272.686 68.93 273.802 70.154 275.674 70.154C277.096 70.154 278.014 69.542 278.338 68.39H279.526C279.058 70.226 277.708 71.216 275.656 71.216ZM275.566 63.116C273.928 63.116 272.848 64.196 272.632 65.906H278.284C278.284 64.232 277.204 63.116 275.566 63.116ZM283.024 71H281.782V62.288H282.862L283.042 63.8C283.618 62.684 284.77 62.054 286.03 62.054C288.424 62.054 289.414 63.476 289.414 65.672V71H288.172V65.942C288.172 63.908 287.254 63.188 285.814 63.188C284.032 63.188 283.024 64.484 283.024 66.446V71ZM294.157 71H292.933V63.332H291.187V62.288H292.933V59.534H294.157V62.288H295.903V63.332H294.157V71Z" fill="#08080C"/>
<path d="M355.308 64.2418L353.037 66.5124C352.768 66.7817 352.768 67.2183 353.037 67.4876L355.308 69.7582M359.692 64.2418L361.962 66.5124C362.232 66.7817 362.232 67.2183 361.962 67.4876L359.692 69.7582M347.5 60H367.5M347.5 60V69.2C347.5 70.8802 347.5 71.7202 347.827 72.362C348.115 72.9265 348.574 73.3854 349.138 73.673C349.78 74 350.62 74 352.3 74H362.7C364.38 74 365.22 74 365.862 73.673C366.426 73.3854 366.885 72.9265 367.173 72.362C367.5 71.7202 367.5 70.8802 367.5 69.2V60M347.5 60V58.8C347.5 57.1198 347.5 56.2798 347.827 55.638C348.115 55.0735 348.574 54.6146 349.138 54.327C349.78 54 350.62 54 352.3 54H362.7C364.38 54 365.22 54 365.862 54.327C366.426 54.6146 366.885 55.0735 367.173 55.638C367.5 56.2798 367.5 57.1198 367.5 58.8V60" stroke="#0050B8" stroke-width="1.41176" stroke-linecap="round"/>
<path d="M389.636 65.33H384.362V71H383.066V58.112H390.662V59.3H384.362V64.16H389.636V65.33ZM396.849 62.18V63.296H396.165C394.563 63.296 393.537 64.376 393.537 66.032V71H392.295V62.288H393.465L393.555 63.638C393.897 62.702 394.815 62.09 396.039 62.09C396.309 62.09 396.543 62.108 396.849 62.18ZM397.824 66.644C397.824 63.98 399.696 62.054 402.252 62.054C404.808 62.054 406.68 63.98 406.68 66.644C406.68 69.29 404.808 71.216 402.252 71.216C399.696 71.216 397.824 69.29 397.824 66.644ZM399.084 66.626C399.084 68.678 400.38 70.1 402.252 70.1C404.106 70.1 405.42 68.678 405.42 66.626C405.42 64.61 404.106 63.17 402.252 63.17C400.38 63.17 399.084 64.61 399.084 66.626ZM410.178 71H408.936V62.288H410.016L410.196 63.8C410.772 62.684 411.924 62.054 413.184 62.054C415.578 62.054 416.568 63.476 416.568 65.672V71H415.326V65.942C415.326 63.908 414.408 63.188 412.968 63.188C411.186 63.188 410.178 64.484 410.178 66.446V71ZM421.312 71H420.088V63.332H418.342V62.288H420.088V59.534H421.312V62.288H423.058V63.332H421.312V71ZM428.511 71.216C425.955 71.216 424.245 69.38 424.245 66.644C424.245 63.926 425.937 62.054 428.421 62.054C430.779 62.054 432.381 63.728 432.381 66.194V66.806H425.451C425.541 68.93 426.657 70.154 428.529 70.154C429.951 70.154 430.869 69.542 431.193 68.39H432.381C431.913 70.226 430.563 71.216 428.511 71.216ZM428.421 63.116C426.783 63.116 425.703 64.196 425.487 65.906H431.139C431.139 64.232 430.059 63.116 428.421 63.116ZM435.879 71H434.637V62.288H435.717L435.897 63.8C436.473 62.684 437.625 62.054 438.885 62.054C441.279 62.054 442.269 63.476 442.269 65.672V71H441.027V65.942C441.027 63.908 440.109 63.188 438.669 63.188C436.887 63.188 435.879 64.484 435.879 66.446V71ZM448.434 71.216C445.896 71.216 444.402 69.272 444.402 66.662C444.402 64.034 445.896 62.054 448.488 62.054C449.928 62.054 451.08 62.684 451.692 63.944V57.878H452.934V71H451.854L451.728 69.218C451.116 70.568 449.892 71.216 448.434 71.216ZM448.65 70.082C450.558 70.082 451.674 68.642 451.674 66.626C451.674 64.628 450.558 63.17 448.65 63.17C446.76 63.17 445.662 64.628 445.662 66.626C445.662 68.642 446.76 70.082 448.65 70.082ZM465.252 71H461.328V58.112H465.216C469.104 58.112 471.696 60.704 471.696 64.556C471.696 68.408 469.122 71 465.252 71ZM465.162 59.3H462.624V69.812H465.198C468.348 69.812 470.364 67.76 470.364 64.556C470.364 61.334 468.348 59.3 465.162 59.3ZM477.691 71.216C475.135 71.216 473.425 69.38 473.425 66.644C473.425 63.926 475.117 62.054 477.601 62.054C479.959 62.054 481.561 63.728 481.561 66.194V66.806H474.631C474.721 68.93 475.837 70.154 477.709 70.154C479.131 70.154 480.049 69.542 480.373 68.39H481.561C481.093 70.226 479.743 71.216 477.691 71.216ZM477.601 63.116C475.963 63.116 474.883 64.196 474.667 65.906H480.319C480.319 64.232 479.239 63.116 477.601 63.116ZM486.018 71L482.454 62.288H483.786L486.036 67.904C486.27 68.534 486.504 69.128 486.666 69.704C486.828 69.11 487.062 68.534 487.314 67.904L489.6 62.288H490.878L487.26 71H486.018ZM495.879 71.216C493.323 71.216 491.613 69.38 491.613 66.644C491.613 63.926 493.305 62.054 495.789 62.054C498.147 62.054 499.749 63.728 499.749 66.194V66.806H492.819C492.909 68.93 494.025 70.154 495.897 70.154C497.319 70.154 498.237 69.542 498.561 68.39H499.749C499.281 70.226 497.931 71.216 495.879 71.216ZM495.789 63.116C494.151 63.116 493.071 64.196 492.855 65.906H498.507C498.507 64.232 497.427 63.116 495.789 63.116ZM503.301 71H502.059V57.878H503.301V71ZM505.601 66.644C505.601 63.98 507.473 62.054 510.029 62.054C512.585 62.054 514.457 63.98 514.457 66.644C514.457 69.29 512.585 71.216 510.029 71.216C507.473 71.216 505.601 69.29 505.601 66.644ZM506.861 66.626C506.861 68.678 508.157 70.1 510.029 70.1C511.883 70.1 513.197 68.678 513.197 66.626C513.197 64.61 511.883 63.17 510.029 63.17C508.157 63.17 506.861 64.61 506.861 66.626ZM516.713 74.798V62.288H517.793L517.919 64.052C518.531 62.702 519.755 62.054 521.213 62.054C523.733 62.054 525.245 63.98 525.245 66.608C525.245 69.236 523.787 71.216 521.213 71.216C519.737 71.216 518.567 70.586 517.955 69.326V74.798H516.713ZM517.973 66.644C517.973 68.642 519.089 70.1 520.997 70.1C522.887 70.1 523.985 68.642 523.985 66.644C523.985 64.628 522.887 63.188 520.997 63.188C519.089 63.188 517.973 64.628 517.973 66.644ZM528.737 71H527.495V62.288H528.575L528.719 63.53C529.151 62.612 530.123 62.054 531.347 62.054C532.715 62.054 533.741 62.774 534.155 63.908C534.551 62.774 535.613 62.054 537.017 62.054C538.907 62.054 540.149 63.278 540.149 65.294V71H538.943V65.546C538.943 64.052 538.115 63.17 536.783 63.17C535.325 63.17 534.461 64.268 534.461 65.618V71H533.237V65.528C533.237 64.052 532.391 63.188 531.077 63.188C529.619 63.188 528.737 64.268 528.737 65.6V71ZM546.571 71.216C544.015 71.216 542.305 69.38 542.305 66.644C542.305 63.926 543.997 62.054 546.481 62.054C548.839 62.054 550.441 63.728 550.441 66.194V66.806H543.511C543.601 68.93 544.717 70.154 546.589 70.154C548.011 70.154 548.929 69.542 549.253 68.39H550.441C549.973 70.226 548.623 71.216 546.571 71.216ZM546.481 63.116C544.843 63.116 543.763 64.196 543.547 65.906H549.199C549.199 64.232 548.119 63.116 546.481 63.116ZM553.939 71H552.697V62.288H553.777L553.957 63.8C554.533 62.684 555.685 62.054 556.945 62.054C559.339 62.054 560.329 63.476 560.329 65.672V71H559.087V65.942C559.087 63.908 558.169 63.188 556.729 63.188C554.947 63.188 553.939 64.484 553.939 66.446V71ZM565.072 71H563.848V63.332H562.102V62.288H563.848V59.534H565.072V62.288H566.818V63.332H565.072V71Z" fill="#08080C"/>
<path d="M75 118H78.3501M75 106H78.3501M86.9763 118H86.9863M86.9763 106H86.9863M75 122H87C88.4001 122 89.1002 122 89.635 121.728C90.1054 121.488 90.4878 121.105 90.7275 120.635C91 120.1 91 119.4 91 118C91 116.6 91 115.9 90.7275 115.365C90.4878 114.895 90.1054 114.512 89.635 114.272C89.1002 114 88.4001 114 87 114H75C73.5999 114 72.8998 114 72.365 114.272C71.8946 114.512 71.5122 114.895 71.2725 115.365C71 115.9 71 116.6 71 118C71 119.4 71 120.1 71.2725 120.635C71.5122 121.105 71.8946 121.488 72.365 121.728C72.8998 122 73.5999 122 75 122ZM75 110H87C88.4001 110 89.1002 110 89.635 109.728C90.1054 109.488 90.4878 109.105 90.7275 108.635C91 108.1 91 107.4 91 106C91 104.6 91 103.9 90.7275 103.365C90.4878 102.895 90.1054 102.512 89.635 102.272C89.1002 102 88.4001 102 87 102H75C73.5999 102 72.8998 102 72.365 102.272C71.8946 102.512 71.5122 102.895 71.2725 103.365C71 103.9 71 104.6 71 106C71 107.4 71 108.1 71.2725 108.635C71.5122 109.105 71.8946 109.488 72.365 109.728C72.8998 110 73.5999 110 75 110Z" stroke="#0050B8" stroke-width="1.41176" stroke-linecap="round" stroke-linejoin="round"/>
<path d="M106.566 119V106.112H111.282C113.766 106.112 115.296 107.372 115.296 109.442C115.296 110.954 114.63 111.98 113.298 112.502C114.792 112.988 115.548 114.032 115.548 115.616C115.548 117.686 114 119 111.552 119H106.566ZM111.264 107.264H107.862V111.98H111.426C113.046 111.98 113.964 111.08 113.964 109.55C113.964 108.11 112.992 107.264 111.264 107.264ZM111.552 113.114H107.862V117.83H111.552C113.244 117.83 114.234 116.948 114.234 115.454C114.234 113.996 113.226 113.114 111.552 113.114ZM120.388 119.216C118.534 119.216 117.436 118.172 117.436 116.642C117.436 115.04 118.66 114.032 120.694 113.87L123.574 113.636V113.348C123.574 111.638 122.548 111.098 121.27 111.098C119.758 111.098 118.858 111.782 118.858 112.952H117.724C117.724 111.188 119.164 110.054 121.306 110.054C123.322 110.054 124.798 111.062 124.798 113.366V119H123.754L123.592 117.47C123.052 118.568 121.864 119.216 120.388 119.216ZM120.676 118.208C122.512 118.208 123.574 116.93 123.574 115.04V114.572L121 114.77C119.362 114.914 118.696 115.634 118.696 116.606C118.696 117.668 119.488 118.208 120.676 118.208ZM126.949 114.662C126.949 111.926 128.623 110.054 131.161 110.054C133.177 110.054 134.653 111.224 134.995 113.024H133.753C133.429 111.818 132.385 111.152 131.179 111.152C129.415 111.152 128.173 112.502 128.173 114.644C128.173 116.714 129.325 118.1 131.089 118.1C132.385 118.1 133.429 117.38 133.771 116.264H135.031C134.617 118.046 133.069 119.216 131.089 119.216C128.623 119.216 126.949 117.398 126.949 114.662ZM138.478 119H137.236V105.878H138.478V114.788L142.798 110.288H144.364L141.016 113.762L144.382 119H142.942L140.17 114.644L138.478 116.39V119ZM149.491 119.216C146.935 119.216 145.225 117.38 145.225 114.644C145.225 111.926 146.917 110.054 149.401 110.054C151.759 110.054 153.361 111.728 153.361 114.194V114.806H146.431C146.521 116.93 147.637 118.154 149.509 118.154C150.931 118.154 151.849 117.542 152.173 116.39H153.361C152.893 118.226 151.543 119.216 149.491 119.216ZM149.401 111.116C147.763 111.116 146.683 112.196 146.467 113.906H152.119C152.119 112.232 151.039 111.116 149.401 111.116ZM156.859 119H155.617V110.288H156.697L156.877 111.8C157.453 110.684 158.605 110.054 159.865 110.054C162.259 110.054 163.249 111.476 163.249 113.672V119H162.007V113.942C162.007 111.908 161.089 111.188 159.649 111.188C157.867 111.188 156.859 112.484 156.859 114.446V119ZM169.414 119.216C166.876 119.216 165.382 117.272 165.382 114.662C165.382 112.034 166.876 110.054 169.468 110.054C170.908 110.054 172.06 110.684 172.672 111.944V105.878H173.914V119H172.834L172.708 117.218C172.096 118.568 170.872 119.216 169.414 119.216ZM169.63 118.082C171.538 118.082 172.654 116.642 172.654 114.626C172.654 112.628 171.538 111.17 169.63 111.17C167.74 111.17 166.642 112.628 166.642 114.626C166.642 116.642 167.74 118.082 169.63 118.082ZM186.232 119H182.308V106.112H186.196C190.084 106.112 192.676 108.704 192.676 112.556C192.676 116.408 190.102 119 186.232 119ZM186.142 107.3H183.604V117.812H186.178C189.328 117.812 191.344 115.76 191.344 112.556C191.344 109.334 189.328 107.3 186.142 107.3ZM198.671 119.216C196.115 119.216 194.405 117.38 194.405 114.644C194.405 111.926 196.097 110.054 198.581 110.054C200.939 110.054 202.541 111.728 202.541 114.194V114.806H195.611C195.701 116.93 196.817 118.154 198.689 118.154C200.111 118.154 201.029 117.542 201.353 116.39H202.541C202.073 118.226 200.723 119.216 198.671 119.216ZM198.581 111.116C196.943 111.116 195.863 112.196 195.647 113.906H201.299C201.299 112.232 200.219 111.116 198.581 111.116ZM206.998 119L203.434 110.288H204.766L207.016 115.904C207.25 116.534 207.484 117.128 207.646 117.704C207.808 117.11 208.042 116.534 208.294 115.904L210.58 110.288H211.858L208.24 119H206.998ZM216.859 119.216C214.303 119.216 212.593 117.38 212.593 114.644C212.593 111.926 214.285 110.054 216.769 110.054C219.127 110.054 220.729 111.728 220.729 114.194V114.806H213.799C213.889 116.93 215.005 118.154 216.877 118.154C218.299 118.154 219.217 117.542 219.541 116.39H220.729C220.261 118.226 218.911 119.216 216.859 119.216ZM216.769 111.116C215.131 111.116 214.051 112.196 213.835 113.906H219.487C219.487 112.232 218.407 111.116 216.769 111.116ZM224.281 119H223.039V105.878H224.281V119ZM226.581 114.644C226.581 111.98 228.453 110.054 231.009 110.054C233.565 110.054 235.437 111.98 235.437 114.644C235.437 117.29 233.565 119.216 231.009 119.216C228.453 119.216 226.581 117.29 226.581 114.644ZM227.841 114.626C227.841 116.678 229.137 118.1 231.009 118.1C232.863 118.1 234.177 116.678 234.177 114.626C234.177 112.61 232.863 111.17 231.009 111.17C229.137 111.17 227.841 112.61 227.841 114.626ZM237.693 122.798V110.288H238.773L238.899 112.052C239.511 110.702 240.735 110.054 242.193 110.054C244.713 110.054 246.225 111.98 246.225 114.608C246.225 117.236 244.767 119.216 242.193 119.216C240.717 119.216 239.547 118.586 238.935 117.326V122.798H237.693ZM238.953 114.644C238.953 116.642 240.069 118.1 241.977 118.1C243.867 118.1 244.965 116.642 244.965 114.644C244.965 112.628 243.867 111.188 241.977 111.188C240.069 111.188 238.953 112.628 238.953 114.644ZM249.717 119H248.475V110.288H249.555L249.699 111.53C250.131 110.612 251.103 110.054 252.327 110.054C253.695 110.054 254.721 110.774 255.135 111.908C255.531 110.774 256.593 110.054 257.997 110.054C259.887 110.054 261.129 111.278 261.129 113.294V119H259.923V113.546C259.923 112.052 259.095 111.17 257.763 111.17C256.305 111.17 255.441 112.268 255.441 113.618V119H254.217V113.528C254.217 112.052 253.371 111.188 252.057 111.188C250.599 111.188 249.717 112.268 249.717 113.6V119ZM267.551 119.216C264.995 119.216 263.285 117.38 263.285 114.644C263.285 111.926 264.977 110.054 267.461 110.054C269.819 110.054 271.421 111.728 271.421 114.194V114.806H264.491C264.581 116.93 265.697 118.154 267.569 118.154C268.991 118.154 269.909 117.542 270.233 116.39H271.421C270.953 118.226 269.603 119.216 267.551 119.216ZM267.461 111.116C265.823 111.116 264.743 112.196 264.527 113.906H270.179C270.179 112.232 269.099 111.116 267.461 111.116ZM274.919 119H273.677V110.288H274.757L274.937 111.8C275.513 110.684 276.665 110.054 277.925 110.054C280.319 110.054 281.309 111.476 281.309 113.672V119H280.067V113.942C280.067 111.908 279.149 111.188 277.709 111.188C275.927 111.188 274.919 112.484 274.919 114.446V119ZM286.052 119H284.828V111.332H283.082V110.288H284.828V107.534H286.052V110.288H287.798V111.332H286.052V119Z" fill="#08080C"/>
<path d="M366.5 121H353.3C351.62 121 350.78 121 350.138 120.673C349.574 120.385 349.115 119.926 348.827 119.362C348.5 118.72 348.5 117.88 348.5 116.2V103M348.5 110L356 113.5L364 108.5M357.5 113.5C357.5 114.328 356.828 115 356 115C355.172 115 354.5 114.328 354.5 113.5C354.5 112.672 355.172 112 356 112C356.828 112 357.5 112.672 357.5 113.5ZM365.5 108.5C365.5 109.328 364.828 110 364 110C363.172 110 362.5 109.328 362.5 108.5C362.5 107.672 363.172 107 364 107C364.828 107 365.5 107.672 365.5 108.5Z" stroke="#0050B8" stroke-width="1.41176" stroke-linecap="round" stroke-linejoin="round"/>
<path d="M386.99 119H383.066V106.112H386.954C390.842 106.112 393.434 108.704 393.434 112.556C393.434 116.408 390.86 119 386.99 119ZM386.9 107.3H384.362V117.812H386.936C390.086 117.812 392.102 115.76 392.102 112.556C392.102 109.334 390.086 107.3 386.9 107.3ZM398.277 119.216C396.423 119.216 395.325 118.172 395.325 116.642C395.325 115.04 396.549 114.032 398.583 113.87L401.463 113.636V113.348C401.463 111.638 400.437 111.098 399.159 111.098C397.647 111.098 396.747 111.782 396.747 112.952H395.613C395.613 111.188 397.053 110.054 399.195 110.054C401.211 110.054 402.687 111.062 402.687 113.366V119H401.643L401.481 117.47C400.941 118.568 399.753 119.216 398.277 119.216ZM398.565 118.208C400.401 118.208 401.463 116.93 401.463 115.04V114.572L398.889 114.77C397.251 114.914 396.585 115.634 396.585 116.606C396.585 117.668 397.377 118.208 398.565 118.208ZM407.289 119H406.065V111.332H404.319V110.288H406.065V107.534H407.289V110.288H409.035V111.332H407.289V119ZM413.284 119.216C411.43 119.216 410.332 118.172 410.332 116.642C410.332 115.04 411.556 114.032 413.59 113.87L416.47 113.636V113.348C416.47 111.638 415.444 111.098 414.166 111.098C412.654 111.098 411.754 111.782 411.754 112.952H410.62C410.62 111.188 412.06 110.054 414.202 110.054C416.218 110.054 417.694 111.062 417.694 113.366V119H416.65L416.488 117.47C415.948 118.568 414.76 119.216 413.284 119.216ZM413.572 118.208C415.408 118.208 416.47 116.93 416.47 115.04V114.572L413.896 114.77C412.258 114.914 411.592 115.634 411.592 116.606C411.592 117.668 412.384 118.208 413.572 118.208ZM428.22 119.216C426.366 119.216 425.268 118.172 425.268 116.642C425.268 115.04 426.492 114.032 428.526 113.87L431.406 113.636V113.348C431.406 111.638 430.38 111.098 429.102 111.098C427.59 111.098 426.69 111.782 426.69 112.952H425.556C425.556 111.188 426.996 110.054 429.138 110.054C431.154 110.054 432.63 111.062 432.63 113.366V119H431.586L431.424 117.47C430.884 118.568 429.696 119.216 428.22 119.216ZM428.508 118.208C430.344 118.208 431.406 116.93 431.406 115.04V114.572L428.832 114.77C427.194 114.914 426.528 115.634 426.528 116.606C426.528 117.668 427.32 118.208 428.508 118.208ZM436.635 119H435.393V110.288H436.473L436.653 111.8C437.229 110.684 438.381 110.054 439.641 110.054C442.035 110.054 443.025 111.476 443.025 113.672V119H441.783V113.942C441.783 111.908 440.865 111.188 439.425 111.188C437.643 111.188 436.635 112.484 436.635 114.446V119ZM448.272 119.216C446.418 119.216 445.32 118.172 445.32 116.642C445.32 115.04 446.544 114.032 448.578 113.87L451.458 113.636V113.348C451.458 111.638 450.432 111.098 449.154 111.098C447.642 111.098 446.742 111.782 446.742 112.952H445.608C445.608 111.188 447.048 110.054 449.19 110.054C451.206 110.054 452.682 111.062 452.682 113.366V119H451.638L451.476 117.47C450.936 118.568 449.748 119.216 448.272 119.216ZM448.56 118.208C450.396 118.208 451.458 116.93 451.458 115.04V114.572L448.884 114.77C447.246 114.914 446.58 115.634 446.58 116.606C446.58 117.668 447.372 118.208 448.56 118.208ZM456.74 119H455.498V105.878H456.74V119ZM458.77 122.798V121.772H459.724C460.48 121.772 461.236 121.718 461.668 120.548L462.046 119.522L458.518 110.288H459.832L462.64 117.884L465.394 110.288H466.672L462.676 120.998C462.172 122.366 461.326 122.924 460.084 122.924C459.562 122.924 459.166 122.888 458.77 122.798ZM467.604 116.552H468.792C468.792 117.56 469.548 118.19 470.772 118.19C472.122 118.19 472.914 117.614 472.914 116.678C472.914 115.958 472.554 115.544 471.528 115.292L470.034 114.914C468.522 114.536 467.784 113.744 467.784 112.556C467.784 111.026 469.062 110.054 470.934 110.054C472.77 110.054 473.958 111.062 474.012 112.682H472.806C472.77 111.674 472.068 111.08 470.898 111.08C469.674 111.08 468.99 111.602 468.99 112.538C468.99 113.204 469.458 113.672 470.412 113.906L471.906 114.284C473.418 114.662 474.102 115.364 474.102 116.624C474.102 118.19 472.77 119.216 470.79 119.216C468.828 119.216 467.604 118.172 467.604 116.552ZM478.414 119H477.19V111.332H475.444V110.288H477.19V107.534H478.414V110.288H480.16V111.332H478.414V119Z" fill="#08080C"/>
<path d="M85.3716 155.627C85.1218 154.284 84.5099 153.034 83.602 152.013C82.6941 150.993 81.5246 150.239 80.2198 149.835C78.9151 149.43 77.5245 149.389 76.1984 149.717C74.8722 150.045 73.6607 150.729 72.6947 151.695C71.7288 152.661 71.045 153.872 70.7172 155.198C70.3894 156.525 70.43 157.915 70.8347 159.22C71.2394 160.525 71.9927 161.694 73.0135 162.602C74.0342 163.51 75.2835 164.122 76.6266 164.372C76.8764 165.715 77.4883 166.964 78.3962 167.985C79.3041 169.005 80.4736 169.759 81.7783 170.163C83.0831 170.568 84.4736 170.609 85.7998 170.281C87.126 169.953 88.3375 169.269 89.3034 168.303C90.2694 167.337 90.9532 166.126 91.281 164.8C91.6088 163.474 91.5682 162.083 91.1635 160.778C90.7588 159.474 90.0054 158.304 88.9847 157.396C87.964 156.488 86.7146 155.876 85.3716 155.627ZM90 163C90 163.143 89.9935 163.281 89.9832 163.423L85.2957 158.735C85.4173 158.228 85.4858 157.709 85.5 157.188C86.79 157.517 87.933 158.268 88.7481 159.321C89.5632 160.374 90.0038 161.669 90 163ZM82.7438 162.804L87.676 167.737C87.214 168.096 86.702 168.386 86.1563 168.597L81.2944 163.735C81.8115 163.481 82.2978 163.169 82.7438 162.804ZM83.8041 161.744C84.1686 161.298 84.4809 160.813 84.735 160.296L89.5969 165.156C89.3858 165.701 89.0962 166.213 88.7372 166.674L83.8041 161.744ZM72 157C72 155.813 72.3519 154.653 73.0112 153.667C73.6705 152.68 74.6076 151.911 75.7039 151.457C76.8003 151.003 78.0067 150.884 79.1706 151.115C80.3345 151.347 81.4036 151.918 82.2427 152.757C83.0818 153.596 83.6532 154.666 83.8847 155.829C84.1162 156.993 83.9974 158.2 83.5433 159.296C83.0892 160.392 82.3201 161.33 81.3334 161.989C80.3468 162.648 79.1867 163 78 163C76.4093 162.998 74.8841 162.366 73.7593 161.241C72.6345 160.116 72.0018 158.591 72 157ZM78.1875 164.5C78.7087 164.487 79.2271 164.42 79.7344 164.3L84.4219 168.988C84.2822 168.998 84.1407 169.005 83.9991 169.005C82.6672 169.008 81.3722 168.567 80.3195 167.751C79.2668 166.935 78.5165 165.791 78.1875 164.5Z" fill="#0050B8"/>
<path d="M106.476 162.518V154.112H107.772V162.464C107.772 164.732 109.014 165.956 111.264 165.956C113.46 165.956 114.702 164.696 114.702 162.464V154.112H115.998V162.518C115.998 165.434 114.198 167.216 111.264 167.216C108.276 167.216 106.476 165.452 106.476 162.518ZM120.612 154.112V167H119.316V154.112H120.612ZM123.674 167H122.45L127.472 154.112H128.732L123.674 167ZM130.472 162.518V154.112H131.768V162.464C131.768 164.732 133.01 165.956 135.26 165.956C137.456 165.956 138.698 164.696 138.698 162.464V154.112H139.994V162.518C139.994 165.434 138.194 167.216 135.26 167.216C132.272 167.216 130.472 165.452 130.472 162.518ZM146.498 160.574L141.998 154.112H143.528L145.922 157.496C146.534 158.36 146.948 159.044 147.254 159.62L150.998 154.112H152.492L148.064 160.538L152.564 167H151.016L148.568 163.544C148.136 162.932 147.614 162.14 147.29 161.564L143.528 167H142.016L146.498 160.574ZM163.79 167H159.866V154.112H163.754C167.642 154.112 170.234 156.704 170.234 160.556C170.234 164.408 167.66 167 163.79 167ZM163.7 155.3H161.162V165.812H163.736C166.886 165.812 168.902 163.76 168.902 160.556C168.902 157.334 166.886 155.3 163.7 155.3ZM176.229 167.216C173.673 167.216 171.963 165.38 171.963 162.644C171.963 159.926 173.655 158.054 176.139 158.054C178.497 158.054 180.099 159.728 180.099 162.194V162.806H173.169C173.259 164.93 174.375 166.154 176.247 166.154C177.669 166.154 178.587 165.542 178.911 164.39H180.099C179.631 166.226 178.281 167.216 176.229 167.216ZM176.139 159.116C174.501 159.116 173.421 160.196 173.205 161.906H178.857C178.857 160.232 177.777 159.116 176.139 159.116ZM181.616 164.552H182.804C182.804 165.56 183.56 166.19 184.784 166.19C186.134 166.19 186.926 165.614 186.926 164.678C186.926 163.958 186.566 163.544 185.54 163.292L184.046 162.914C182.534 162.536 181.796 161.744 181.796 160.556C181.796 159.026 183.074 158.054 184.946 158.054C186.782 158.054 187.97 159.062 188.024 160.682H186.818C186.782 159.674 186.08 159.08 184.91 159.08C183.686 159.08 183.002 159.602 183.002 160.538C183.002 161.204 183.47 161.672 184.424 161.906L185.918 162.284C187.43 162.662 188.114 163.364 188.114 164.624C188.114 166.19 186.782 167.216 184.802 167.216C182.84 167.216 181.616 166.172 181.616 164.552ZM191.041 155.894C190.537 155.894 190.123 155.48 190.123 154.976C190.123 154.472 190.537 154.04 191.041 154.04C191.545 154.04 191.977 154.472 191.977 154.976C191.977 155.48 191.545 155.894 191.041 155.894ZM190.429 167V158.288H191.671V167H190.429ZM193.937 162.392C193.937 160.016 195.467 158.054 198.023 158.054C199.535 158.054 200.687 158.756 201.245 160.034L201.371 158.288H202.451V166.73C202.451 169.322 200.795 171.014 198.239 171.014C196.007 171.014 194.441 169.754 194.099 167.648H195.341C195.611 169.052 196.691 169.88 198.257 169.88C200.039 169.88 201.227 168.674 201.227 166.856V164.786C200.633 166.01 199.427 166.73 197.933 166.73C195.449 166.73 193.937 164.768 193.937 162.392ZM195.179 162.374C195.179 164.156 196.277 165.614 198.113 165.614C200.003 165.614 201.119 164.246 201.119 162.374C201.119 160.52 200.039 159.152 198.131 159.152C196.259 159.152 195.179 160.61 195.179 162.374ZM206.555 167H205.313V158.288H206.393L206.573 159.8C207.149 158.684 208.301 158.054 209.561 158.054C211.955 158.054 212.945 159.476 212.945 161.672V167H211.703V161.942C211.703 159.908 210.785 159.188 209.345 159.188C207.563 159.188 206.555 160.484 206.555 162.446V167Z" fill="#08080C"/>
<path d="M360.365 152.05H351C349.619 152.05 348.5 153.17 348.5 154.55C348.5 155.931 349.619 157.05 351 157.05H360.365M354.747 163.038H364.045C365.426 163.038 366.545 164.157 366.545 165.538C366.545 166.919 365.426 168.038 364.045 168.038H354.747M366.545 154.529C366.545 156.462 364.978 158.029 363.045 158.029C361.112 158.029 359.545 156.462 359.545 154.529C359.545 152.596 361.112 151.029 363.045 151.029C364.978 151.029 366.545 152.596 366.545 154.529ZM348.5 165.517C348.5 167.45 350.067 169.017 352 169.017C353.933 169.017 355.5 167.45 355.5 165.517C355.5 163.584 353.933 162.017 352 162.017C350.067 162.017 348.5 163.584 348.5 165.517Z" stroke="#0050B8" stroke-width="1.5" stroke-linecap="round" stroke-linejoin="round"/>
<path d="M381.716 155.3V154.112H390.95V155.3H386.972V167H385.676V155.3H381.716ZM395.052 167.216C392.496 167.216 390.786 165.38 390.786 162.644C390.786 159.926 392.478 158.054 394.962 158.054C397.32 158.054 398.922 159.728 398.922 162.194V162.806H391.992C392.082 164.93 393.198 166.154 395.07 166.154C396.492 166.154 397.41 165.542 397.734 164.39H398.922C398.454 166.226 397.104 167.216 395.052 167.216ZM394.962 159.116C393.324 159.116 392.244 160.196 392.028 161.906H397.68C397.68 160.232 396.6 159.116 394.962 159.116ZM400.44 164.552H401.628C401.628 165.56 402.384 166.19 403.608 166.19C404.958 166.19 405.75 165.614 405.75 164.678C405.75 163.958 405.39 163.544 404.364 163.292L402.87 162.914C401.358 162.536 400.62 161.744 400.62 160.556C400.62 159.026 401.898 158.054 403.77 158.054C405.606 158.054 406.794 159.062 406.848 160.682H405.642C405.606 159.674 404.904 159.08 403.734 159.08C402.51 159.08 401.826 159.602 401.826 160.538C401.826 161.204 402.294 161.672 403.248 161.906L404.742 162.284C406.254 162.662 406.938 163.364 406.938 164.624C406.938 166.19 405.606 167.216 403.626 167.216C401.664 167.216 400.44 166.172 400.44 164.552ZM411.25 167H410.026V159.332H408.28V158.288H410.026V155.534H411.25V158.288H412.996V159.332H411.25V167ZM415.496 155.894C414.992 155.894 414.578 155.48 414.578 154.976C414.578 154.472 414.992 154.04 415.496 154.04C416 154.04 416.432 154.472 416.432 154.976C416.432 155.48 416 155.894 415.496 155.894ZM414.884 167V158.288H416.126V167H414.884ZM420.228 167H418.986V158.288H420.066L420.246 159.8C420.822 158.684 421.974 158.054 423.234 158.054C425.628 158.054 426.618 159.476 426.618 161.672V167H425.376V161.942C425.376 159.908 424.458 159.188 423.018 159.188C421.236 159.188 420.228 160.484 420.228 162.446V167ZM428.769 162.392C428.769 160.016 430.299 158.054 432.855 158.054C434.367 158.054 435.519 158.756 436.077 160.034L436.203 158.288H437.283V166.73C437.283 169.322 435.627 171.014 433.071 171.014C430.839 171.014 429.273 169.754 428.931 167.648H430.173C430.443 169.052 431.523 169.88 433.089 169.88C434.871 169.88 436.059 168.674 436.059 166.856V164.786C435.465 166.01 434.259 166.73 432.765 166.73C430.281 166.73 428.769 164.768 428.769 162.392ZM430.011 162.374C430.011 164.156 431.109 165.614 432.945 165.614C434.835 165.614 435.951 164.246 435.951 162.374C435.951 160.52 434.871 159.152 432.963 159.152C431.091 159.152 430.011 160.61 430.011 162.374ZM445.677 167H444.363L449.097 154.112H450.699L455.487 167H454.137L452.877 163.58H446.937L445.677 167ZM449.727 155.93L447.333 162.446H452.463L450.051 155.93C449.997 155.75 449.907 155.534 449.889 155.408C449.871 155.516 449.799 155.75 449.727 155.93ZM463.241 158.288H464.483V167H463.403L463.241 165.524C462.755 166.532 461.549 167.216 460.181 167.216C458.129 167.216 457.013 165.812 457.013 163.688V158.27H458.273V163.292C458.273 165.362 459.191 166.1 460.577 166.1C462.251 166.1 463.241 164.984 463.241 162.914V158.288ZM469.338 167H468.114V159.332H466.368V158.288H468.114V155.534H469.338V158.288H471.084V159.332H469.338V167ZM472.271 162.644C472.271 159.98 474.143 158.054 476.699 158.054C479.255 158.054 481.127 159.98 481.127 162.644C481.127 165.29 479.255 167.216 476.699 167.216C474.143 167.216 472.271 165.29 472.271 162.644ZM473.531 162.626C473.531 164.678 474.827 166.1 476.699 166.1C478.553 166.1 479.867 164.678 479.867 162.626C479.867 160.61 478.553 159.17 476.699 159.17C474.827 159.17 473.531 160.61 473.531 162.626ZM484.626 167H483.384V158.288H484.464L484.608 159.53C485.04 158.612 486.012 158.054 487.236 158.054C488.604 158.054 489.63 158.774 490.044 159.908C490.44 158.774 491.502 158.054 492.906 158.054C494.796 158.054 496.038 159.278 496.038 161.294V167H494.832V161.546C494.832 160.052 494.004 159.17 492.672 159.17C491.214 159.17 490.35 160.268 490.35 161.618V167H489.126V161.528C489.126 160.052 488.28 159.188 486.966 159.188C485.508 159.188 484.626 160.268 484.626 161.6V167ZM501.308 167.216C499.454 167.216 498.356 166.172 498.356 164.642C498.356 163.04 499.58 162.032 501.614 161.87L504.494 161.636V161.348C504.494 159.638 503.468 159.098 502.19 159.098C500.678 159.098 499.778 159.782 499.778 160.952H498.644C498.644 159.188 500.084 158.054 502.226 158.054C504.242 158.054 505.718 159.062 505.718 161.366V167H504.674L504.512 165.47C503.972 166.568 502.784 167.216 501.308 167.216ZM501.596 166.208C503.432 166.208 504.494 164.93 504.494 163.04V162.572L501.92 162.77C500.282 162.914 499.616 163.634 499.616 164.606C499.616 165.668 500.408 166.208 501.596 166.208ZM510.32 167H509.096V159.332H507.35V158.288H509.096V155.534H510.32V158.288H512.066V159.332H510.32V167ZM514.565 155.894C514.061 155.894 513.647 155.48 513.647 154.976C513.647 154.472 514.061 154.04 514.565 154.04C515.069 154.04 515.501 154.472 515.501 154.976C515.501 155.48 515.069 155.894 514.565 155.894ZM513.953 167V158.288H515.195V167H513.953ZM517.443 162.644C517.443 159.98 519.315 158.054 521.871 158.054C524.427 158.054 526.299 159.98 526.299 162.644C526.299 165.29 524.427 167.216 521.871 167.216C519.315 167.216 517.443 165.29 517.443 162.644ZM518.703 162.626C518.703 164.678 519.999 166.1 521.871 166.1C523.725 166.1 525.039 164.678 525.039 162.626C525.039 160.61 523.725 159.17 521.871 159.17C519.999 159.17 518.703 160.61 518.703 162.626ZM529.798 167H528.556V158.288H529.636L529.816 159.8C530.392 158.684 531.544 158.054 532.804 158.054C535.198 158.054 536.188 159.476 536.188 161.672V167H534.946V161.942C534.946 159.908 534.028 159.188 532.588 159.188C530.806 159.188 529.798 160.484 529.798 162.446V167Z" fill="#08080C"/>
</g>
<defs>
<filter id="filter0_d_5236_738" x="0" y="0" width="643" height="238" filterUnits="userSpaceOnUse" color-interpolation-filters="sRGB">
<feFlood flood-opacity="0" result="BackgroundImageFix"/>
<feColorMatrix in="SourceAlpha" type="matrix" values="0 0 0 0 0 0 0 0 0 0 0 0 0 0 0 0 0 0 127 0" result="hardAlpha"/>
<feOffset dy="7"/>
<feGaussianBlur stdDeviation="14.5"/>
<feColorMatrix type="matrix" values="0 0 0 0 0.392157 0 0 0 0 0.392157 0 0 0 0 0.435294 0 0 0 0.2 0"/>
<feBlend mode="normal" in2="BackgroundImageFix" result="effect1_dropShadow_5236_738"/>
<feBlend mode="normal" in="SourceGraphic" in2="effect1_dropShadow_5236_738" result="shape"/>
</filter>
</defs>
</svg>
