<svg width="24" height="24" viewBox="0 0 24 24" fill="none" xmlns="http://www.w3.org/2000/svg">
<g id="exam-02">
<path id="Icon" d="M18.5764 18.3881H19.5764H18.5764ZM17.671 21.3079L18.5956 21.689L18.5956 21.6889L17.671 21.3079ZM15.452 21.3079L14.5274 21.6889L14.5275 21.689L15.452 21.3079ZM18.3009 19.7795L19.2255 20.1606V20.1606L18.3009 19.7795ZM18.5764 4.01489H17.5764H18.5764ZM14.5466 4.01489H13.5466H14.5466ZM14.8221 19.7795L15.7467 19.3985L15.7467 19.3985L14.8221 19.7795ZM6.2011 3.36412C5.85378 2.93472 5.22412 2.86817 4.79471 3.21548C4.36531 3.5628 4.29876 4.19245 4.64607 4.62186L6.2011 3.36412ZM6.7506 5.63367L7.52811 5.0048L7.52811 5.0048L6.7506 5.63367ZM7.32052 5.63367L6.54301 5.0048H6.54301L7.32052 5.63367ZM11.037 2.62887C11.3843 2.19946 11.3178 1.5698 10.8884 1.22249C10.459 0.875174 9.82933 0.941723 9.48201 1.37113L11.037 2.62887ZM6.34758 19.5845C6.00027 19.1551 5.37061 19.0885 4.9412 19.4358C4.51179 19.7831 4.44524 20.4128 4.79256 20.8422L6.34758 19.5845ZM6.89709 21.854L6.11958 22.4829H6.11958L6.89709 21.854ZM7.46701 21.854L6.6895 21.2251H6.6895L7.46701 21.854ZM11.1835 18.8492C11.5308 18.4198 11.4643 17.7901 11.0349 17.4428C10.6055 17.0955 9.97581 17.1621 9.62849 17.5915L11.1835 18.8492ZM6.13069 9.66557C5.74017 9.27505 5.107 9.27505 4.71648 9.66557C4.32595 10.0561 4.32595 10.6893 4.71648 11.0798L6.13069 9.66557ZM8.70085 15.0642C9.09138 15.4547 9.72454 15.4547 10.1151 15.0642C10.5056 14.6736 10.5056 14.0405 10.1151 13.6499L8.70085 15.0642ZM10.1151 11.0798C10.5056 10.6893 10.5056 10.0561 10.1151 9.66557C9.72454 9.27505 9.09138 9.27505 8.70085 9.66557L10.1151 11.0798ZM4.71648 13.6499C4.32595 14.0405 4.32595 14.6736 4.71648 15.0642C5.107 15.4547 5.74017 15.4547 6.13069 15.0642L4.71648 13.6499ZM17.3764 19.3985L16.7465 20.9268L18.5956 21.6889L19.2255 20.1606L17.3764 19.3985ZM16.3765 20.9268L15.7467 19.3985L13.8976 20.1606L14.5274 21.6889L16.3765 20.9268ZM15.5466 18.3881L15.5466 4.01489H13.5466L13.5466 18.3881H15.5466ZM17.5764 4.01489L17.5764 18.3881H19.5764L19.5764 4.01489H17.5764ZM14.5466 19.3881H18.5764V17.3881H14.5466V19.3881ZM16.7465 20.9268C16.7241 20.9811 16.697 21.0058 16.6741 21.0203C16.6466 21.0377 16.6075 21.0505 16.5615 21.0505C16.5155 21.0505 16.4764 21.0377 16.4489 21.0203C16.4261 21.0058 16.3989 20.9811 16.3765 20.9268L14.5275 21.689C15.2758 23.5044 17.8472 23.5044 18.5956 21.689L16.7465 20.9268ZM19.2255 20.1606C19.4572 19.5984 19.5764 18.9962 19.5764 18.3881H17.5764C17.5764 18.7348 17.5084 19.078 17.3764 19.3985L19.2255 20.1606ZM16.5615 3C17.122 3 17.5764 3.45438 17.5764 4.01489H19.5764C19.5764 2.34981 18.2266 1 16.5615 1V3ZM16.5615 1C14.8964 1 13.5466 2.34981 13.5466 4.01489H15.5466C15.5466 3.45438 16.001 3 16.5615 3V1ZM15.7467 19.3985C15.6146 19.078 15.5466 18.7348 15.5466 18.3881H13.5466C13.5466 18.9962 13.6659 19.5984 13.8976 20.1606L15.7467 19.3985ZM4.64607 4.62186L5.97309 6.26254L7.52811 5.0048L6.2011 3.36412L4.64607 4.62186ZM8.09803 6.26254L11.037 2.62887L9.48201 1.37113L6.54301 5.0048L8.09803 6.26254ZM5.97309 6.26254C6.22326 6.57184 6.60246 6.77961 7.03557 6.7796C7.46867 6.7796 7.84787 6.57184 8.09803 6.26254L6.54301 5.0048C6.6358 4.89008 6.80873 4.77961 7.03556 4.77961C7.2624 4.7796 7.43533 4.89008 7.52811 5.0048L5.97309 6.26254ZM4.79256 20.8422L6.11958 22.4829L7.6746 21.2251L6.34758 19.5845L4.79256 20.8422ZM8.24452 22.4829L11.1835 18.8492L9.62849 17.5915L6.6895 21.2251L8.24452 22.4829ZM6.11958 22.4829C6.36975 22.7922 6.74895 22.9999 7.18205 22.9999C7.61516 22.9999 7.99435 22.7922 8.24452 22.4829L6.6895 21.2251C6.78228 21.1104 6.95521 20.9999 7.18204 20.9999C7.40888 20.9999 7.58181 21.1104 7.6746 21.2251L6.11958 22.4829ZM4.71648 11.0798L6.70866 13.072L8.12288 11.6578L6.13069 9.66557L4.71648 11.0798ZM6.70866 13.072L8.70085 15.0642L10.1151 13.6499L8.12288 11.6578L6.70866 13.072ZM8.70085 9.66557L6.70866 11.6578L8.12288 13.072L10.1151 11.0798L8.70085 9.66557ZM6.70866 11.6578L4.71648 13.6499L6.13069 15.0642L8.12288 13.072L6.70866 11.6578Z" fill="#FF6C0A"/>
</g>
</svg>
