<svg width="24" height="24" viewBox="0 0 24 24" fill="none" xmlns="http://www.w3.org/2000/svg">
<g id="exam-01">
<path id="Icon" d="M9.82993 8.10658L6 3M14.2731 7.96922L18 3M17.1004 9.76946L19.381 6.80467C19.7824 6.2829 20 5.64308 20 4.9848C20 3.33634 18.6637 2 17.0152 2H6.9848C5.33634 2 4 3.33634 4 4.9848C4 5.64308 4.21762 6.2829 4.61898 6.80467L6.89958 9.76946M10.4668 12H12.399V18M12.399 18H13.5332M12.399 18H11.0332M19 15C19 18.866 15.866 22 12 22C8.13401 22 5 18.866 5 15C5 11.134 8.13401 8 12 8C15.866 8 19 11.134 19 15Z" stroke="#FF6C0A" stroke-width="2" stroke-linecap="round" stroke-linejoin="round"/>
</g>
</svg>
