<svg width="30" height="30" viewBox="0 0 30 30" fill="none" xmlns="http://www.w3.org/2000/svg">
<path d="M28.4279 14.214C28.4279 22.0641 22.0641 28.4279 14.214 28.4279C6.36381 28.4279 0 22.0641 0 14.214C0 6.36381 6.36381 0 14.214 0C22.0641 0 28.4279 6.36381 28.4279 14.214Z" fill="#39393D"/>
<path d="M28.4279 14.214C28.4279 22.0641 22.0641 28.4279 14.214 28.4279C6.36381 28.4279 0 22.0641 0 14.214C0 6.36381 6.36381 0 14.214 0C22.0641 0 28.4279 6.36381 28.4279 14.214Z" fill="#39393D"/>
<path d="M11.9397 18.4782V28.1437C11.9397 28.3007 12.067 28.4279 12.224 28.4279H16.2039C16.3609 28.4279 16.4882 28.3007 16.4882 28.1437V18.4782C16.4882 18.3212 16.6155 18.1939 16.7725 18.1939H19.6153C19.7723 18.1939 19.8996 18.0666 19.8996 17.9096V14.4983C19.8996 14.3412 19.7723 14.214 19.6153 14.214H16.7725C16.6155 14.214 16.4882 14.0869 16.4882 13.9299V11.3712C16.4882 10.2341 17.9096 9.6655 18.4782 9.6655H20.1838C20.3408 9.6655 20.4681 9.53823 20.4681 9.38122V5.96987C20.4681 5.81287 20.3409 5.68559 20.1839 5.68559H16.4882C13.7591 5.68559 11.9397 8.52838 11.9397 10.2341V13.9297C11.9397 14.0867 11.8125 14.214 11.6555 14.214H8.81266C8.65566 14.214 8.52838 14.3412 8.52838 14.4983V17.9096C8.52838 18.0666 8.65566 18.1939 8.81266 18.1939H11.6555C11.8125 18.1939 11.9397 18.3212 11.9397 18.4782Z" fill="#FDFDFF"/>
</svg>
