<svg width="24" height="24" viewBox="0 0 24 24" fill="none" xmlns="http://www.w3.org/2000/svg">
<g id="Icons/Frontend">
<path id="Icon" d="M9.80807 12.2418L7.53747 14.5124C7.26819 14.7817 7.26819 15.2183 7.53747 15.4876L9.80807 17.7582M14.1919 12.2418L16.4624 14.5124C16.7317 14.7817 16.7317 15.2183 16.4624 15.4876L14.1919 17.7582M2 8H22M2 8V17.2C2 18.8802 2 19.7202 2.32698 20.362C2.6146 20.9265 3.07354 21.3854 3.63803 21.673C4.27976 22 5.11984 22 6.8 22H17.2C18.8802 22 19.7202 22 20.362 21.673C20.9265 21.3854 21.3854 20.9265 21.673 20.362C22 19.7202 22 18.8802 22 17.2V8M2 8V6.8C2 5.11984 2 4.27976 2.32698 3.63803C2.6146 3.07354 3.07354 2.6146 3.63803 2.32698C4.27976 2 5.11984 2 6.8 2H17.2C18.8802 2 19.7202 2 20.362 2.32698C20.9265 2.6146 21.3854 3.07354 21.673 3.63803C22 4.27976 22 5.11984 22 6.8V8" stroke="#0050B8" stroke-width="1.41176" stroke-linecap="round"/>
</g>
</svg>
