<svg width="24" height="24" viewBox="0 0 24 24" fill="none" xmlns="http://www.w3.org/2000/svg">
<g id="Icons/Fullstack">
<path id="Icon" d="M21 14.5989C21 15.9746 16.9706 17.0898 12 17.0898C7.02944 17.0898 3 15.9746 3 14.5989M20.9982 9.83361C20.9982 11.2091 16.9696 12.3241 12 12.3241C7.03041 12.3241 3.00177 11.2091 3.00177 9.83361M21 4.3547L21 19.5714C21 20.9127 16.9706 22 12 22C7.02944 22 3 20.9127 3 19.5714L3 4.3547M21 4.77942C21 6.31445 16.9706 7.55884 12 7.55884C7.02944 7.55884 3 6.31445 3 4.77942C3 3.24439 7.02944 2 12 2C16.9706 2 21 3.24439 21 4.77942Z" stroke="#0050B8" stroke-width="1.6"/>
</g>
</svg>
