<svg width="177" height="58" viewBox="0 0 177 58" fill="none" xmlns="http://www.w3.org/2000/svg">
<path d="M171.307 35.4206L176.219 38.6955C174.625 41.0439 170.812 45.0729 164.219 45.0729C156.031 45.0729 149.934 38.7386 149.934 30.6806C149.934 22.1056 156.096 16.2883 163.529 16.2883C171.005 16.2883 174.668 22.2348 175.853 25.4451L176.5 27.0826L157.238 35.0543C158.703 37.9414 160.987 39.4065 164.219 39.4065C167.45 39.4065 169.691 37.8121 171.307 35.4206ZM156.204 30.2282L169.066 24.8849C168.355 23.0967 166.244 21.8255 163.723 21.8255C160.513 21.8255 156.053 24.6695 156.204 30.2282Z" fill="#FF302F"/>
<path d="M140.648 1.61597H146.853V43.7587H140.648V1.61597Z" fill="#20B15A"/>
<path d="M130.867 17.4085H136.856V43.0044C136.856 53.6262 130.586 58 123.175 58C116.194 58 111.993 53.3031 110.42 49.4895L115.914 47.2057C116.905 49.5542 119.297 52.3335 123.175 52.3335C127.936 52.3335 130.867 49.3818 130.867 43.8662V41.7978H130.651C129.229 43.5215 126.514 45.0727 123.067 45.0727C115.871 45.0727 109.278 38.803 109.278 30.7235C109.278 22.6009 115.871 16.2666 123.067 16.2666C126.493 16.2666 129.229 17.7963 130.651 19.4769H130.867V17.4085ZM131.297 30.7235C131.297 25.6388 127.915 21.933 123.606 21.933C119.254 21.933 115.591 25.6388 115.591 30.7235C115.591 35.7436 119.254 39.3848 123.606 39.3848C127.915 39.4063 131.297 35.7436 131.297 30.7235Z" fill="#3686F7"/>
<path d="M75.2149 30.616C75.2149 38.911 68.7513 45.0083 60.8226 45.0083C52.8939 45.0083 46.4303 38.8894 46.4303 30.616C46.4303 22.2779 52.8939 16.2021 60.8226 16.2021C68.7513 16.2021 75.2149 22.2779 75.2149 30.616ZM68.9236 30.616C68.9236 25.4451 65.1748 21.8901 60.8226 21.8901C56.4704 21.8901 52.7215 25.4451 52.7215 30.616C52.7215 35.7438 56.4704 39.3419 60.8226 39.3419C65.1748 39.3419 68.9236 35.7438 68.9236 30.616Z" fill="#FF302F"/>
<path d="M106.649 30.6806C106.649 38.9756 100.186 45.0729 92.2572 45.0729C84.3285 45.0729 77.8649 38.9756 77.8649 30.6806C77.8649 22.3426 84.3285 16.2883 92.2572 16.2883C100.186 16.2883 106.649 22.321 106.649 30.6806ZM100.337 30.6806C100.337 25.5097 96.5878 21.9548 92.2356 21.9548C87.8835 21.9548 84.1346 25.5097 84.1346 30.6806C84.1346 35.8084 87.8835 39.4065 92.2356 39.4065C96.6093 39.4065 100.337 35.7869 100.337 30.6806Z" fill="#FFBA40"/>
<path d="M22.7734 38.7601C13.7459 38.7601 6.67906 31.4778 6.67906 22.4503C6.67906 13.4228 13.7459 6.14043 22.7734 6.14043C27.6427 6.14043 31.1977 8.05796 33.8262 10.5141L38.1568 6.18352C34.4941 2.67162 29.6033 0 22.7734 0C10.4064 0 0 10.0832 0 22.4503C0 34.8173 10.4064 44.9005 22.7734 44.9005C29.4525 44.9005 34.4941 42.7029 38.4369 38.6093C42.4874 34.5587 43.7371 28.8708 43.7371 24.2601C43.7371 22.8165 43.5647 21.3299 43.3708 20.2311H22.7734V26.2207H37.4458C37.0149 29.9696 35.8299 32.5335 34.0847 34.2787C31.9733 36.4116 28.6338 38.7601 22.7734 38.7601Z" fill="#3686F7"/>
</svg>
