<svg width="99" height="33" viewBox="0 0 99 33" fill="none" xmlns="http://www.w3.org/2000/svg">
<g id="Google" clip-path="url(#clip0_4991_402)">
<path id="Vector" d="M12.9554 0.602539H13.8223C16.8316 0.667652 19.792 1.87224 21.9181 4.00468C21.1331 4.80231 20.3317 5.56738 19.563 6.36501C18.369 5.29065 16.9298 4.46047 15.3597 4.16746C13.0372 3.67911 10.5349 4.11862 8.58859 5.43716C6.4624 6.8208 5.02314 9.16486 4.71238 11.6717C4.36892 14.146 5.0722 16.7505 6.69137 18.6713C8.24512 20.5433 10.6166 21.7153 13.0699 21.7967C15.3597 21.9269 17.7475 21.227 19.4158 19.6317C20.7242 18.5085 21.3293 16.7993 21.5256 15.1389C18.8106 15.1389 16.0957 15.1552 13.3807 15.1389V11.7856H24.813C25.4018 15.3831 24.5513 19.4364 21.8036 22.0083C19.9719 23.8315 17.4368 24.9059 14.8527 25.1175C12.3503 25.3616 9.76616 24.8896 7.54185 23.685C4.87594 22.2688 2.74975 19.8759 1.70301 17.0598C0.721697 14.4715 0.705342 11.5415 1.62124 8.93696C2.45536 6.56035 4.05817 4.46047 6.11894 2.99543C8.09793 1.54667 10.5022 0.749043 12.9554 0.602539Z" fill="#8D8D8F"/>
<path id="Vector_2" d="M78.54 1.44922H82.0401V24.6944C80.8788 24.6944 79.7013 24.7107 78.54 24.6782C78.5564 16.946 78.54 9.19763 78.54 1.44922Z" fill="#8D8D8F"/>
<path id="Vector_3" d="M32.5981 9.50719C34.757 9.10024 37.0958 9.55603 38.8785 10.842C40.4977 11.9815 41.6262 13.7721 41.9696 15.7255C42.4112 17.9881 41.8552 20.4624 40.3832 22.253C38.7967 24.2552 36.1962 25.3296 33.6612 25.1668C31.3387 25.0366 29.0817 23.8808 27.7078 21.9925C26.1541 19.9089 25.7779 17.044 26.6284 14.6023C27.4789 11.9815 29.8831 9.97926 32.5981 9.50719ZM33.0887 12.6C32.2055 12.8279 31.3878 13.3326 30.799 14.0488C29.2125 15.9371 29.3107 19.0136 31.0607 20.7717C32.0583 21.7809 33.563 22.253 34.9532 21.9763C36.2453 21.7484 37.3738 20.8856 37.9953 19.7462C39.0748 17.8091 38.764 15.1394 37.1121 13.6256C36.049 12.6489 34.4953 12.2419 33.0887 12.6Z" fill="#8D8D8F"/>
<path id="Vector_4" d="M49.9347 9.50693C52.4044 9.03486 55.103 9.71854 56.9511 11.444C59.9605 14.1299 60.2876 19.1599 57.7198 22.2527C56.1661 24.2061 53.6474 25.2805 51.1614 25.1665C48.7899 25.1014 46.4511 23.9294 45.0445 21.9923C43.458 19.8598 43.1146 16.9298 44.0141 14.4392C44.9137 11.8998 47.2688 9.96271 49.9347 9.50693ZM50.4254 12.5998C49.5422 12.8277 48.7244 13.3323 48.1356 14.0323C46.5655 15.888 46.631 18.9157 48.3156 20.69C49.3132 21.7481 50.867 22.269 52.3062 21.976C53.582 21.7318 54.7268 20.8854 55.3483 19.7459C56.4114 17.7925 56.1007 15.1229 54.4324 13.609C53.3693 12.6323 51.8156 12.2417 50.4254 12.5998Z" fill="#8D8D8F"/>
<path id="Vector_5" d="M64.6382 10.4516C66.519 9.27954 69.0214 8.95397 71.0494 9.96322C71.6873 10.2399 72.2107 10.712 72.7177 11.1841C72.734 10.7446 72.7177 10.2888 72.734 9.833C73.8298 9.84927 74.9256 9.833 76.0378 9.84927V24.2066C76.0214 26.3716 75.4654 28.6668 73.8953 30.2458C72.1779 31.9876 69.5447 32.5248 67.1732 32.1667C64.6382 31.7923 62.4302 29.9528 61.4489 27.625C62.4302 27.153 63.4606 26.7786 64.4746 26.3391C65.047 27.6739 66.2083 28.8133 67.6639 29.0738C69.1195 29.3342 70.8041 28.9761 71.7527 27.7715C72.7667 26.5344 72.7667 24.8415 72.7177 23.3276C71.9653 24.0601 71.0985 24.7113 70.0518 24.9554C67.7784 25.5903 65.276 24.8089 63.526 23.2788C61.7596 21.7486 60.7129 19.3883 60.811 17.0442C60.8601 14.3909 62.3648 11.8352 64.6382 10.4516ZM68.0237 12.5352C67.026 12.698 66.0938 13.2514 65.4559 14.0165C63.9185 15.8396 63.9185 18.7534 65.4723 20.544C66.3555 21.6021 67.7784 22.1881 69.1522 22.0416C70.4443 21.9114 71.6382 21.0975 72.2761 19.9743C73.3555 18.0698 73.1756 15.4815 71.72 13.8211C70.8205 12.7956 69.3812 12.291 68.0237 12.5352Z" fill="#8D8D8F"/>
<path id="Vector_6" d="M86.2435 11.2812C88.2061 9.45802 91.2318 8.83945 93.7505 9.79986C96.1384 10.6952 97.6595 12.9578 98.4282 15.2856C94.8791 16.7506 91.3463 18.1994 87.7972 19.6644C88.2879 20.5923 89.0402 21.4388 90.0542 21.7806C91.4772 22.2852 93.1781 22.1062 94.372 21.162C94.8463 20.8039 95.2225 20.3318 95.5823 19.876C96.4819 20.4783 97.3814 21.0644 98.2809 21.6666C97.0052 23.5712 94.8627 24.906 92.5566 25.1176C90.0052 25.4269 87.2902 24.4502 85.6383 22.4643C82.9233 19.3389 83.185 14.0973 86.2435 11.2812ZM87.9935 14.2926C87.4374 15.0903 87.2084 16.067 87.2248 17.0274C89.5963 16.0507 91.9678 15.074 94.3393 14.081C93.9468 13.1694 92.9982 12.616 92.0332 12.4695C90.4795 12.1927 88.8603 13.0229 87.9935 14.2926Z" fill="#8D8D8F"/>
</g>
<defs>
<clipPath id="clip0_4991_402">
<rect width="97.7499" height="32.3" fill="white" transform="translate(0.950195 0.600098)"/>
</clipPath>
</defs>
</svg>
