<svg width="25" height="24" viewBox="0 0 25 24" fill="none" xmlns="http://www.w3.org/2000/svg">
<g id="graduation-hat-01">
<path id="Icon" d="M17.1788 19.9659V12.5601C17.1788 12.2188 17.1788 12.0482 17.1287 11.8959C17.0843 11.7611 17.0118 11.6374 16.916 11.5328C16.8076 11.4146 16.6588 11.3312 16.3611 11.1643L12.4991 8.99983M19.9991 10.4998V14.2721C19.9991 14.99 19.9991 15.349 19.8898 15.6659C19.7932 15.9462 19.6354 16.2014 19.428 16.4132C19.1934 16.6527 18.8723 16.8132 18.2302 17.1343L13.9302 19.2843C13.4055 19.5467 13.1431 19.6778 12.8679 19.7295C12.6242 19.7752 12.3741 19.7752 12.1303 19.7295C11.8551 19.6778 11.5928 19.5467 11.0681 19.2843L6.76805 17.1343C6.12593 16.8132 5.80487 16.6527 5.5703 16.4132C5.36287 16.2014 5.20511 15.9462 5.10845 15.6659C4.99914 15.349 4.99914 14.99 4.99914 14.2721V10.4998M11.0472 4.49346L4.99683 7.574C4.09326 8.03405 3.64147 8.26408 3.49561 8.57394C3.36865 8.84368 3.36865 9.15599 3.49561 9.42572C3.64147 9.73559 4.09326 9.96561 4.99683 10.4257L11.0472 13.5062C11.5792 13.7771 11.8452 13.9125 12.1246 13.9657C12.3721 14.0129 12.6262 14.0129 12.8737 13.9657C13.1531 13.9125 13.4191 13.7771 13.951 13.5062L20.0014 10.4257C20.905 9.96561 21.3568 9.73559 21.5027 9.42572C21.6296 9.15599 21.6296 8.84368 21.5027 8.57394C21.3568 8.26408 20.905 8.03405 20.0014 7.574L13.951 4.49346C13.4191 4.22261 13.1531 4.08718 12.8737 4.03392C12.6262 3.98674 12.3721 3.98674 12.1246 4.03392C11.8452 4.08718 11.5792 4.22261 11.0472 4.49346Z" stroke="#EB640C" stroke-width="1.5" stroke-linecap="round" stroke-linejoin="round"/>
</g>
</svg>
