<svg width="20" height="20" viewBox="0 0 20 20" fill="none" xmlns="http://www.w3.org/2000/svg">
<g id="GraduationCap">
<path id="Vector" d="M19.282 7.0706L10.282 2.2706C10.1951 2.22437 10.0983 2.2002 9.99996 2.2002C9.90161 2.2002 9.80477 2.22437 9.71796 2.2706L0.717959 7.0706C0.621962 7.12176 0.541679 7.19805 0.485699 7.29132C0.429718 7.38459 0.400146 7.49132 0.400146 7.6001C0.400146 7.70887 0.429718 7.81561 0.485699 7.90887C0.541679 8.00214 0.621962 8.07844 0.717959 8.1296L2.79996 9.24035V12.8718C2.79934 13.1666 2.9078 13.4511 3.10446 13.6706C4.08696 14.7648 6.28821 16.6001 9.99996 16.6001C11.2307 16.6103 12.4522 16.3873 13.6 15.9431V18.4001C13.6 18.5592 13.6632 18.7118 13.7757 18.8244C13.8882 18.9369 14.0408 19.0001 14.2 19.0001C14.3591 19.0001 14.5117 18.9369 14.6242 18.8244C14.7367 18.7118 14.8 18.5592 14.8 18.4001V15.3633C15.5824 14.9117 16.2894 14.3405 16.8955 13.6706C17.0921 13.4511 17.2006 13.1666 17.2 12.8718V9.24035L19.282 8.1296C19.378 8.07844 19.4582 8.00214 19.5142 7.90887C19.5702 7.81561 19.5998 7.70887 19.5998 7.6001C19.5998 7.49132 19.5702 7.38459 19.5142 7.29132C19.4582 7.19805 19.378 7.12176 19.282 7.0706ZM9.99996 15.4001C6.75471 15.4001 4.84596 13.8146 3.99996 12.8718V9.8801L9.71796 12.9296C9.80477 12.9758 9.90161 13 9.99996 13C10.0983 13 10.1951 12.9758 10.282 12.9296L13.6 11.1603V14.6358C12.655 15.0768 11.464 15.4001 9.99996 15.4001ZM16 12.8688C15.6403 13.268 15.2379 13.6264 14.8 13.9376V10.5198L16 9.8801V12.8688ZM14.5 9.3206L14.4835 9.31085L10.2835 7.0706C10.1433 6.99902 9.98069 6.98536 9.83059 7.03255C9.68048 7.07974 9.55492 7.18401 9.48096 7.32289C9.40699 7.46177 9.39054 7.62415 9.43516 7.77504C9.47977 7.92593 9.58187 8.05326 9.71946 8.1296L13.225 10.0001L9.99996 11.7198L2.27496 7.6001L9.99996 3.48035L17.725 7.6001L14.5 9.3206Z" fill="#39393D"/>
</g>
</svg>
