<svg width="24" height="24" viewBox="0 0 24 24" fill="none" xmlns="http://www.w3.org/2000/svg">
<g id="graduation-hat-01">
<path id="Icon" d="M16.6788 19.9659V12.5601C16.6788 12.2188 16.6788 12.0482 16.6287 11.8959C16.5843 11.7611 16.5118 11.6374 16.416 11.5328C16.3076 11.4146 16.1588 11.3312 15.8611 11.1643L11.9991 8.99983M19.4991 10.4998V14.2721C19.4991 14.99 19.4991 15.349 19.3898 15.6659C19.2932 15.9462 19.1354 16.2014 18.928 16.4132C18.6934 16.6527 18.3723 16.8132 17.7302 17.1343L13.4302 19.2843C12.9055 19.5467 12.6431 19.6778 12.3679 19.7295C12.1242 19.7752 11.8741 19.7752 11.6303 19.7295C11.3551 19.6778 11.0928 19.5467 10.5681 19.2843L6.26805 17.1343C5.62593 16.8132 5.30487 16.6527 5.0703 16.4132C4.86287 16.2014 4.70511 15.9462 4.60845 15.6659C4.49914 15.349 4.49914 14.99 4.49914 14.2721V10.4998M10.5472 4.49346L4.49683 7.574C3.59326 8.03405 3.14147 8.26408 2.99561 8.57394C2.86865 8.84368 2.86865 9.15599 2.99561 9.42572C3.14147 9.73559 3.59326 9.96561 4.49683 10.4257L10.5472 13.5062C11.0792 13.7771 11.3452 13.9125 11.6246 13.9657C11.8721 14.0129 12.1262 14.0129 12.3737 13.9657C12.6531 13.9125 12.9191 13.7771 13.451 13.5062L19.5014 10.4257C20.405 9.96561 20.8568 9.73559 21.0027 9.42572C21.1296 9.15599 21.1296 8.84368 21.0027 8.57394C20.8568 8.26408 20.405 8.03405 19.5014 7.574L13.451 4.49346C12.9191 4.22261 12.6531 4.08718 12.3737 4.03392C12.1262 3.98674 11.8721 3.98674 11.6246 4.03392C11.3452 4.08718 11.0792 4.22261 10.5472 4.49346Z" stroke="#EB640C" stroke-width="1.5" stroke-linecap="round" stroke-linejoin="round"/>
</g>
</svg>
