<svg width="230" height="42" viewBox="0 0 230 42" fill="none" xmlns="http://www.w3.org/2000/svg">
<g filter="url(#filter0_dd_5828_2388)">
<path d="M7.95025 3H231C231.552 3 232 3.44772 232 4V32C232 32.5523 231.552 33 231 33H8.11555C7.27101 33 6.80676 32.0179 7.34282 31.3653L17.012 19.5941C17.2997 19.2438 17.3159 18.7438 17.0513 18.3757L7.13824 4.58364C6.66274 3.92207 7.13553 3 7.95025 3Z" fill="white"/>
</g>
<path d="M26.638 14.83L25.432 14.398L25.846 13.3L27.016 13.678C27.628 13.894 27.97 14.092 28.348 14.344C28.24 13.912 28.186 13.48 28.186 12.868V11.59H29.356V12.868C29.356 13.48 29.302 13.93 29.212 14.344C29.554 14.11 29.914 13.894 30.526 13.678L31.714 13.282L32.128 14.398L30.904 14.83C30.328 15.028 29.86 15.1 29.464 15.154C29.842 15.478 30.112 15.748 30.436 16.234L31.156 17.314L30.184 17.98L29.464 16.954C29.086 16.432 28.906 16.018 28.744 15.64C28.618 16.108 28.384 16.54 28.078 16.954L27.322 17.98L26.35 17.314L27.07 16.234C27.43 15.73 27.718 15.46 28.078 15.154C27.574 15.082 27.178 15.028 26.638 14.83Z" fill="#FA3913"/>
<path d="M39.6008 13.786C36.9908 13.786 35.4968 15.676 35.4968 18.52C35.4968 21.454 37.1888 23.056 39.6188 23.056C41.9048 23.056 43.2908 21.796 43.2908 19.69V19.636H39.3128V17.602H45.4328V25H43.4888L43.3448 23.488C42.6248 24.496 41.1308 25.198 39.3488 25.198C35.6588 25.198 33.0848 22.516 33.0848 18.466C33.0848 14.47 35.6948 11.626 39.6548 11.626C42.6608 11.626 44.9828 13.372 45.3608 16.054H42.9308C42.5168 14.506 41.1848 13.786 39.6008 13.786ZM53.6269 16.108H55.8229V25H53.7889L53.6269 23.812C53.0869 24.658 51.9349 25.234 50.7469 25.234C48.6949 25.234 47.4889 23.848 47.4889 21.67V16.108H49.6849V20.896C49.6849 22.588 50.3509 23.272 51.5749 23.272C52.9609 23.272 53.6269 22.462 53.6269 20.77V16.108ZM60.737 25.234C58.847 25.234 57.695 24.136 57.695 22.462C57.695 20.824 58.883 19.798 60.989 19.636L63.653 19.438V19.24C63.653 18.034 62.933 17.548 61.817 17.548C60.521 17.548 59.801 18.088 59.801 19.024H57.929C57.929 17.098 59.513 15.838 61.925 15.838C64.319 15.838 65.795 17.134 65.795 19.6V25H63.869L63.707 23.686C63.329 24.604 62.123 25.234 60.737 25.234ZM61.457 23.578C62.807 23.578 63.671 22.768 63.671 21.4V20.932L61.817 21.076C60.449 21.202 59.927 21.652 59.927 22.372C59.927 23.182 60.467 23.578 61.457 23.578ZM73.5324 16.072V18.106H72.7224C71.1384 18.106 70.1484 18.952 70.1484 20.68V25H67.9524V16.126H70.0224L70.1484 17.422C70.5264 16.54 71.3724 15.946 72.5604 15.946C72.8664 15.946 73.1724 15.982 73.5324 16.072ZM77.3132 25.234C75.4232 25.234 74.2712 24.136 74.2712 22.462C74.2712 20.824 75.4592 19.798 77.5652 19.636L80.2292 19.438V19.24C80.2292 18.034 79.5092 17.548 78.3932 17.548C77.0972 17.548 76.3772 18.088 76.3772 19.024H74.5052C74.5052 17.098 76.0892 15.838 78.5012 15.838C80.8952 15.838 82.3712 17.134 82.3712 19.6V25H80.4452L80.2832 23.686C79.9052 24.604 78.6992 25.234 77.3132 25.234ZM78.0332 23.578C79.3832 23.578 80.2472 22.768 80.2472 21.4V20.932L78.3932 21.076C77.0252 21.202 76.5032 21.652 76.5032 22.372C76.5032 23.182 77.0432 23.578 78.0332 23.578ZM86.7245 25H84.5285V16.108H86.5625L86.7425 17.26C87.3005 16.36 88.3805 15.838 89.5865 15.838C91.8185 15.838 92.9705 17.224 92.9705 19.528V25H90.7745V20.05C90.7745 18.556 90.0365 17.836 88.9025 17.836C87.5525 17.836 86.7245 18.772 86.7245 20.212V25ZM98.1521 25H95.9561V17.944H94.2461V16.108H95.9561V13.336H98.1521V16.108H99.8801V17.944H98.1521V25ZM105.135 25.234C102.489 25.234 100.635 23.308 100.635 20.554C100.635 17.764 102.453 15.838 105.063 15.838C107.727 15.838 109.419 17.62 109.419 20.392V21.058L102.723 21.076C102.885 22.642 103.713 23.434 105.171 23.434C106.377 23.434 107.169 22.966 107.421 22.12H109.455C109.077 24.064 107.457 25.234 105.135 25.234ZM105.081 17.638C103.785 17.638 102.993 18.34 102.777 19.672H107.241C107.241 18.448 106.395 17.638 105.081 17.638ZM115.155 25.234C112.509 25.234 110.655 23.308 110.655 20.554C110.655 17.764 112.473 15.838 115.083 15.838C117.747 15.838 119.439 17.62 119.439 20.392V21.058L112.743 21.076C112.905 22.642 113.733 23.434 115.191 23.434C116.397 23.434 117.189 22.966 117.441 22.12H119.475C119.097 24.064 117.477 25.234 115.155 25.234ZM115.101 17.638C113.805 17.638 113.013 18.34 112.797 19.672H117.261C117.261 18.448 116.415 17.638 115.101 17.638ZM124.851 25.234C122.277 25.234 120.675 23.344 120.675 20.59C120.675 17.818 122.295 15.838 124.977 15.838C126.219 15.838 127.317 16.36 127.875 17.242V11.608H130.053V25H128.037L127.893 23.614C127.353 24.64 126.201 25.234 124.851 25.234ZM125.337 23.218C126.867 23.218 127.857 22.12 127.857 20.518C127.857 18.916 126.867 17.8 125.337 17.8C123.807 17.8 122.871 18.934 122.871 20.518C122.871 22.102 123.807 23.218 125.337 23.218ZM139.821 11.842V25H137.517V11.842H139.821ZM144.609 25H142.413V16.108H144.447L144.627 17.26C145.185 16.36 146.265 15.838 147.471 15.838C149.703 15.838 150.855 17.224 150.855 19.528V25H148.659V20.05C148.659 18.556 147.921 17.836 146.787 17.836C145.437 17.836 144.609 18.772 144.609 20.212V25ZM156.037 25H153.841V17.944H152.131V16.108H153.841V13.336H156.037V16.108H157.765V17.944H156.037V25ZM163.02 25.234C160.374 25.234 158.52 23.308 158.52 20.554C158.52 17.764 160.338 15.838 162.948 15.838C165.612 15.838 167.304 17.62 167.304 20.392V21.058L160.608 21.076C160.77 22.642 161.598 23.434 163.056 23.434C164.262 23.434 165.054 22.966 165.306 22.12H167.34C166.962 24.064 165.342 25.234 163.02 25.234ZM162.966 17.638C161.67 17.638 160.878 18.34 160.662 19.672H165.126C165.126 18.448 164.28 17.638 162.966 17.638ZM174.642 16.072V18.106H173.832C172.248 18.106 171.258 18.952 171.258 20.68V25H169.062V16.126H171.132L171.258 17.422C171.636 16.54 172.482 15.946 173.67 15.946C173.976 15.946 174.282 15.982 174.642 16.072ZM178.324 25H176.128V16.108H178.162L178.342 17.26C178.9 16.36 179.98 15.838 181.186 15.838C183.418 15.838 184.57 17.224 184.57 19.528V25H182.374V20.05C182.374 18.556 181.636 17.836 180.502 17.836C179.152 17.836 178.324 18.772 178.324 20.212V25ZM185.938 22.3H188.026C188.044 23.074 188.62 23.56 189.628 23.56C190.654 23.56 191.212 23.146 191.212 22.498C191.212 22.048 190.978 21.724 190.186 21.544L188.584 21.166C186.982 20.806 186.208 20.05 186.208 18.628C186.208 16.882 187.684 15.838 189.736 15.838C191.734 15.838 193.084 16.99 193.102 18.718H191.014C190.996 17.962 190.492 17.476 189.646 17.476C188.782 17.476 188.278 17.872 188.278 18.538C188.278 19.042 188.674 19.366 189.43 19.546L191.032 19.924C192.526 20.266 193.282 20.95 193.282 22.318C193.282 24.118 191.752 25.234 189.556 25.234C187.342 25.234 185.938 24.046 185.938 22.3ZM197.15 25H194.954V11.608H197.168V17.26C197.726 16.396 198.77 15.838 200.048 15.838C202.244 15.838 203.396 17.224 203.396 19.528V25H201.2V20.05C201.2 18.556 200.462 17.836 199.346 17.836C197.96 17.836 197.15 18.808 197.15 20.14V25ZM206.652 14.326C205.896 14.326 205.302 13.732 205.302 12.994C205.302 12.256 205.896 11.68 206.652 11.68C207.372 11.68 207.966 12.256 207.966 12.994C207.966 13.732 207.372 14.326 206.652 14.326ZM205.554 25V16.108H207.75V25H205.554ZM210.019 29.122V16.108H212.053L212.197 17.458C212.737 16.432 213.907 15.838 215.257 15.838C217.759 15.838 219.415 17.656 219.415 20.446C219.415 23.218 217.903 25.234 215.257 25.234C213.925 25.234 212.773 24.712 212.215 23.812V29.122H210.019ZM212.233 20.554C212.233 22.156 213.223 23.254 214.735 23.254C216.283 23.254 217.201 22.138 217.201 20.554C217.201 18.97 216.283 17.836 214.735 17.836C213.223 17.836 212.233 18.952 212.233 20.554Z" fill="#08080C"/>
<defs>
<filter id="filter0_dd_5828_2388" x="0.948486" y="0" width="237.052" height="42" filterUnits="userSpaceOnUse" color-interpolation-filters="sRGB">
<feFlood flood-opacity="0" result="BackgroundImageFix"/>
<feColorMatrix in="SourceAlpha" type="matrix" values="0 0 0 0 0 0 0 0 0 0 0 0 0 0 0 0 0 0 127 0" result="hardAlpha"/>
<feOffset dy="3"/>
<feGaussianBlur stdDeviation="3"/>
<feColorMatrix type="matrix" values="0 0 0 0 0 0 0 0 0 0 0 0 0 0 0 0 0 0 0.23 0"/>
<feBlend mode="normal" in2="BackgroundImageFix" result="effect1_dropShadow_5828_2388"/>
<feColorMatrix in="SourceAlpha" type="matrix" values="0 0 0 0 0 0 0 0 0 0 0 0 0 0 0 0 0 0 127 0" result="hardAlpha"/>
<feOffset dy="3"/>
<feGaussianBlur stdDeviation="3"/>
<feColorMatrix type="matrix" values="0 0 0 0 0 0 0 0 0 0 0 0 0 0 0 0 0 0 0.16 0"/>
<feBlend mode="normal" in2="effect1_dropShadow_5828_2388" result="effect2_dropShadow_5828_2388"/>
<feBlend mode="normal" in="SourceGraphic" in2="effect2_dropShadow_5828_2388" result="shape"/>
</filter>
</defs>
</svg>
