<svg width="48" height="48" viewBox="0 0 48 48" fill="none" xmlns="http://www.w3.org/2000/svg">
<path d="M47.6812 20.2327L42.8962 10.6589C42.7199 10.3065 42.4759 9.99234 42.1782 9.73426C41.8805 9.47618 41.5349 9.27927 41.161 9.15478C40.7872 9.03029 40.3925 8.98065 39.9995 9.00871C39.6065 9.03676 39.2229 9.14196 38.8705 9.3183L34.2074 11.6489L24.3843 9.05017C24.1322 8.98458 23.8676 8.98458 23.6155 9.05017L13.7924 11.6489L9.12929 9.3183C8.77695 9.14196 8.39331 9.03676 8.00031 9.00871C7.6073 8.98065 7.21262 9.03029 6.83879 9.15478C6.46497 9.27927 6.11933 9.47618 5.82162 9.73426C5.5239 9.99234 5.27994 10.3065 5.10367 10.6589L0.318668 20.2308C0.142336 20.5831 0.0371373 20.9668 0.00908066 21.3598C-0.0189759 21.7528 0.0306587 22.1475 0.15515 22.5213C0.279641 22.8951 0.476551 23.2408 0.734634 23.5385C0.992717 23.8362 1.30692 24.0801 1.65929 24.2564L6.72179 26.7895L17.1262 34.2202C17.2795 34.3292 17.4518 34.4087 17.6343 34.4545L29.6343 37.4545C29.8856 37.5176 30.1489 37.5144 30.3987 37.4454C30.6484 37.3764 30.876 37.2439 31.0593 37.0608L41.3849 26.7333L46.3387 24.2564C47.0498 23.9004 47.5905 23.2766 47.8419 22.5221C48.0933 21.7675 48.0348 20.9441 47.6793 20.2327H47.6812ZM37.3893 26.4895L30.9374 21.322C30.6484 21.0906 30.2839 20.9742 29.9142 20.9953C29.5445 21.0164 29.1957 21.1735 28.9349 21.4364C25.5955 24.8002 21.8737 24.3745 19.4999 22.8745L27.6074 14.9995H33.5718L38.6737 25.2014L37.3893 26.4895ZM7.78679 11.9995L11.6249 13.9158L6.83054 23.4877L2.99992 21.5733L7.78679 11.9995ZM29.5368 34.3364L18.6412 31.6139L9.41617 25.0252L14.6662 14.5252L23.9999 12.052L25.8374 12.5377L17.3999 20.7277L17.3849 20.7445C17.0673 21.0622 16.8251 21.447 16.6761 21.8708C16.5271 22.2945 16.4751 22.7463 16.5241 23.1928C16.573 23.6393 16.7216 24.0691 16.9589 24.4505C17.1962 24.8319 17.516 25.1552 17.8949 25.3964C21.7499 27.8583 26.4018 27.4589 30.0655 24.4589L35.2499 28.6233L29.5368 34.3364ZM41.1618 23.4858L36.3768 13.9233L40.213 11.9995L44.9999 21.5733L41.1618 23.4858ZM24.7087 40.8614C24.6276 41.1856 24.4407 41.4735 24.1774 41.6793C23.9142 41.8852 23.5897 41.9972 23.2555 41.9977C23.1323 41.9975 23.0095 41.9824 22.8899 41.9527L15.0768 39.9989C14.8941 39.9538 14.7216 39.8743 14.5687 39.7645L9.62804 36.2358C9.32426 35.9973 9.12419 35.6508 9.06949 35.2684C9.01479 34.8861 9.10968 34.4974 9.3344 34.1833C9.55912 33.8691 9.89636 33.6538 10.2759 33.5821C10.6554 33.5104 11.0479 33.5878 11.3718 33.7983L16.0799 37.162L23.6249 39.0445C24.0108 39.1411 24.3425 39.3869 24.5471 39.728C24.7518 40.069 24.8126 40.4774 24.7162 40.8633L24.7087 40.8614Z" fill="#FDFDFF"/>
</svg>
