<svg width="20" height="20" viewBox="0 0 20 20" fill="none" xmlns="http://www.w3.org/2000/svg">
<g id="Handshake">
<path id="Vector" d="M19.4725 8.49317L17.5585 4.66367C17.488 4.52272 17.3904 4.39704 17.2713 4.2938C17.1523 4.19057 17.014 4.11181 16.8645 4.06201C16.7149 4.01221 16.5571 3.99236 16.3999 4.00358C16.2427 4.0148 16.0892 4.05688 15.9483 4.12742L14.083 5.05967L10.1538 4.02017C10.0529 3.99393 9.94709 3.99393 9.84627 4.02017L5.91702 5.05967L4.05177 4.12742C3.91083 4.05688 3.75738 4.0148 3.60017 4.00358C3.44297 3.99236 3.2851 4.01221 3.13557 4.06201C2.98604 4.11181 2.84778 4.19057 2.7287 4.2938C2.60961 4.39704 2.51203 4.52272 2.44152 4.66367L0.527516 8.49242C0.456983 8.63335 0.414904 8.78681 0.403681 8.94401C0.392458 9.10121 0.412312 9.25909 0.462109 9.40861C0.511905 9.55814 0.590669 9.6964 0.693902 9.81549C0.797136 9.93457 0.922816 10.0322 1.06377 10.1027L3.08877 11.1159L7.25052 14.0882C7.31184 14.1318 7.38077 14.1636 7.45377 14.1819L12.2538 15.3819C12.3543 15.4071 12.4596 15.4059 12.5595 15.3783C12.6594 15.3507 12.7504 15.2977 12.8238 15.2244L16.954 11.0934L18.9355 10.1027C19.22 9.96026 19.4363 9.71073 19.5368 9.40892C19.6374 9.10712 19.614 8.77773 19.4718 8.49317H19.4725ZM15.3558 10.9959L12.775 8.92892C12.6594 8.83633 12.5136 8.78977 12.3657 8.79822C12.2179 8.80667 12.0783 8.86951 11.974 8.97467C10.6383 10.3202 9.14952 10.1499 8.20002 9.54992L11.443 6.39992H13.8288L15.8695 10.4807L15.3558 10.9959ZM3.51477 5.19992L5.05002 5.96642L3.13227 9.79517L1.60002 9.02942L3.51477 5.19992ZM12.2148 14.1347L7.85652 13.0457L4.16652 10.4102L6.26652 6.21017L10 5.22092L10.735 5.41517L7.36002 8.69117L7.35402 8.69792C7.22697 8.82496 7.13008 8.97891 7.07048 9.14841C7.01088 9.31791 6.99011 9.49862 7.00969 9.67722C7.02927 9.85582 7.08871 10.0277 7.18361 10.1803C7.27851 10.3329 7.40646 10.4622 7.55802 10.5587C9.10002 11.5434 10.9608 11.3837 12.4263 10.1837L14.5 11.8494L12.2148 14.1347ZM16.8648 9.79442L14.9508 5.96942L16.4853 5.19992L18.4 9.02942L16.8648 9.79442ZM10.2835 16.7447C10.2511 16.8743 10.1763 16.9895 10.071 17.0718C9.96571 17.1542 9.83594 17.199 9.70227 17.1992C9.65297 17.1991 9.60386 17.1931 9.55602 17.1812L6.43077 16.3997C6.35767 16.3816 6.28869 16.3498 6.22752 16.3059L4.25127 14.8944C4.12975 14.799 4.04972 14.6604 4.02784 14.5075C4.00597 14.3545 4.04392 14.1991 4.13381 14.0734C4.2237 13.9477 4.35859 13.8616 4.5104 13.8329C4.66221 13.8042 4.81923 13.8352 4.94877 13.9194L6.83202 15.2649L9.85002 16.0179C10.0044 16.0565 10.137 16.1549 10.2189 16.2913C10.3008 16.4277 10.3251 16.5911 10.2865 16.7454L10.2835 16.7447Z" fill="#39393D"/>
</g>
</svg>
