<svg width="110" height="44" viewBox="0 0 110 44" fill="none" xmlns="http://www.w3.org/2000/svg">
<path d="M0.336914 0.199951V3.18382H21.5579V0.199951H0.336914ZM24.5554 0.199951V3.18382H54.7892C54.7892 3.18382 51.6998 0.199951 47.6123 0.199951H24.5554ZM60.7229 0.199951V3.18382H79.0145L77.9245 0.199951H60.7229ZM92.1285 0.199951L91.0385 3.18382H109.16V0.199951H92.1285ZM0.336914 6.0008V8.98467H21.5579V6.0008H0.336914ZM24.5554 6.0042V8.98467H58.2977C58.2977 8.98467 57.9025 6.68886 57.2179 6.0042H24.5554ZM60.7229 6.0042V8.98467H81.0242L80.0193 6.0042H60.7229ZM89.9588 6.0042L88.9539 8.98467H109.17V6.0042H89.9588ZM6.46816 11.8016V14.7889H15.6548V11.8016H6.46816ZM30.6866 11.8016V14.7889H39.8494V11.8016H30.6866ZM48.8078 11.8016V14.7889H57.9979C57.9979 14.7889 58.577 13.2118 58.577 11.8016H48.8078ZM66.8474 11.8016V14.7889H83.1088L82.0188 11.8016H66.8474ZM87.9831 11.8016L86.8931 14.7889H103.206V11.8016H87.9831ZM6.46816 17.6059V20.5898H15.6548V17.6059H6.46816ZM30.6866 17.6059V20.5898H54.1897C54.1897 20.5898 56.1517 19.0569 56.7785 17.6059H30.6866ZM66.8542 17.6059V20.5898H76.0408V18.9343L76.6199 20.5932H93.4468L94.0735 18.9343V20.5932H103.206V17.6093H85.9564L85.0367 20.1367L84.117 17.6093L66.8542 17.6059ZM6.46816 23.4101V26.394H15.6548V23.4101H6.46816ZM30.6866 23.4101V26.394H56.7444C56.1177 24.9464 54.1557 23.4101 54.1557 23.4101H30.6866ZM66.8542 23.4101V26.394H76.0408V23.4101H66.8542ZM77.7133 23.4101L78.8237 26.394H91.4439L92.4658 23.4101H77.7133ZM94.0837 23.4101V26.394H103.206V23.4101H94.0837ZM6.46816 29.211V32.1949H15.6548V29.211H6.46816ZM30.6866 29.211V32.1949H39.8494V29.211H30.6866ZM48.8078 29.211V32.1949H58.5838C58.5838 30.7881 58.0047 29.211 58.0047 29.211H48.8078ZM66.8474 29.211V32.1949H76.034V29.211H66.8474ZM79.7911 29.211L80.8675 32.1949H89.3286L90.4186 29.211H79.7911ZM94.0769 29.211V32.1949H103.206V29.211H94.0769ZM0.507227 35.0118V37.9991H21.7282V35.0118H0.507227ZM24.5656 35.0118V37.9991H57.2315C57.9196 37.3179 58.3113 35.0118 58.3113 35.0118H24.5656ZM60.8966 35.0118V37.9991H76.0204V35.0118H60.8966ZM81.8621 35.0118L82.9691 37.9991H87.2746L88.3135 35.0118H81.8621ZM94.0565 35.0118V37.9991H109.337V35.0118H94.0565ZM0.507227 40.8161V43.7999H21.7282V40.8161H0.507227ZM24.5656 40.8161V43.7965H47.6259C51.7134 43.7965 54.8063 40.8161 54.8063 40.8161H24.5656ZM60.8966 40.8161V43.7999H76.0204V40.8161H60.8966ZM83.9569 40.8161L85.0231 43.7897L85.207 43.7931L86.2902 40.8127L83.9569 40.8161ZM94.0531 40.8161V43.7999H109.337V40.8161H94.0531Z" fill="#1F70C1"/>
</svg>
