<svg width="28" height="28" viewBox="0 0 28 28" fill="none" xmlns="http://www.w3.org/2000/svg">
<path d="M18.0591 2.73791H4.79167C2.83566 2.73791 1.25 4.32357 1.25 6.27958C1.25 8.23559 2.83566 9.82125 4.79167 9.82125H18.0591M10.1 18.3036H23.272C25.228 18.3036 26.8136 19.8893 26.8136 21.8453C26.8136 23.8013 25.228 25.387 23.272 25.387H10.1M26.8136 6.24984C26.8136 8.98825 24.5937 11.2082 21.8553 11.2082C19.1169 11.2082 16.897 8.98825 16.897 6.24984C16.897 3.51143 19.1169 1.2915 21.8553 1.2915C24.5937 1.2915 26.8136 3.51143 26.8136 6.24984ZM1.25 21.8155C1.25 24.5539 3.46992 26.7739 6.20833 26.7739C8.94675 26.7739 11.1667 24.5539 11.1667 21.8155C11.1667 19.0771 8.94675 16.8572 6.20833 16.8572C3.46992 16.8572 1.25 19.0771 1.25 21.8155Z" stroke="#004093" stroke-width="2.125" stroke-linecap="round" stroke-linejoin="round"/>
</svg>
