<svg width="32" height="32" viewBox="0 0 32 32" fill="none" xmlns="http://www.w3.org/2000/svg">
<path d="M18.4082 14.8011C18.8126 13.4181 19.0148 12.7267 19.2112 12.4434C20.0563 11.2241 21.859 11.2241 22.7041 12.4434C22.9005 12.7267 23.1027 13.4181 23.5071 14.8011C23.6658 15.3438 23.7452 15.6151 23.8513 15.8595C24.2804 16.8474 25.0686 17.6356 26.0565 18.0646C26.3009 18.1708 26.5722 18.2501 27.1149 18.4089C28.4978 18.8133 29.1893 19.0155 29.4726 19.2118C30.6919 20.057 30.6919 21.8597 29.4726 22.7048C29.1893 22.9012 28.4978 23.1034 27.1149 23.5078C26.5722 23.6665 26.3009 23.7459 26.0565 23.852C25.0686 24.2811 24.2804 25.0693 23.8513 26.0572C23.7452 26.3016 23.6658 26.5729 23.5071 27.1156C23.1027 28.4985 22.9005 29.19 22.7041 29.4733C21.859 30.6925 20.0563 30.6925 19.2112 29.4733C19.0148 29.19 18.8126 28.4985 18.4082 27.1156C18.2495 26.5729 18.1701 26.3016 18.064 26.0572C17.6349 25.0693 16.8467 24.2811 15.8588 23.852C15.6144 23.7459 15.3431 23.6665 14.8004 23.5078C13.4175 23.1034 12.726 22.9012 12.4427 22.7048C11.2234 21.8597 11.2234 20.057 12.4427 19.2118C12.726 19.0155 13.4175 18.8133 14.8004 18.4089C15.3431 18.2501 15.6144 18.1708 15.8588 18.0646C16.8467 17.6356 17.6349 16.8474 18.064 15.8595C18.1701 15.6151 18.2495 15.3438 18.4082 14.8011Z" stroke="#7416A7" stroke-width="1.75" stroke-linecap="round" stroke-linejoin="round"/>
<path d="M6.98423 2.65025C7.05803 2.3979 7.09493 2.27172 7.12275 2.21567C7.38311 1.69113 8.13134 1.69113 8.3917 2.21567C8.41952 2.27172 8.45642 2.3979 8.53022 2.65025C8.64614 3.04665 8.70411 3.24484 8.77137 3.42734C9.34509 4.98389 10.5721 6.21086 12.1286 6.78458C12.3111 6.85185 12.5093 6.90981 12.9057 7.02573C13.1581 7.09953 13.2842 7.13643 13.3403 7.16425C13.8648 7.42461 13.8648 8.17284 13.3403 8.4332C13.2842 8.46102 13.1581 8.49792 12.9057 8.57172C12.5093 8.68765 12.3111 8.74561 12.1286 8.81287C10.5721 9.38659 9.34509 10.6136 8.77137 12.1701C8.70411 12.3526 8.64614 12.5508 8.53022 12.9472C8.45642 13.1996 8.41952 13.3257 8.3917 13.3818C8.13134 13.9063 7.38311 13.9063 7.12275 13.3818C7.09493 13.3257 7.05803 13.1996 6.98423 12.9472C6.86831 12.5508 6.81034 12.3526 6.74308 12.1701C6.16936 10.6136 4.94238 9.38659 3.38584 8.81287C3.20334 8.74561 3.00514 8.68765 2.60875 8.57172C2.35639 8.49792 2.23022 8.46102 2.17417 8.4332C1.64963 8.17284 1.64963 7.42461 2.17417 7.16425C2.23022 7.13643 2.35639 7.09953 2.60875 7.02573C3.00514 6.90981 3.20334 6.85185 3.38584 6.78458C4.94238 6.21086 6.16936 4.98389 6.74308 3.42734C6.81034 3.24484 6.86831 3.04665 6.98423 2.65025Z" stroke="#7416A7" stroke-width="1.75" stroke-linecap="round" stroke-linejoin="round"/>
</svg>
