<svg width="48" height="48" viewBox="0 0 48 48" fill="none" xmlns="http://www.w3.org/2000/svg">
<path d="M24 32H6.66667C5.19391 32 4 33.1939 4 34.6667C4 37.6122 6.38781 40 9.33333 40H25M25 32H6V14.4C6 12.1598 6 11.0397 6.43597 10.184C6.81947 9.43139 7.43139 8.81947 8.18404 8.43597C9.03969 8 10.1598 8 12.4 8H35.6C37.8402 8 38.9603 8 39.816 8.43597C40.5686 8.81947 41.1805 9.43139 41.564 10.184C42 11.0397 42 12.1598 42 14.4V19M36.8 44H39.2C40.8802 44 41.7202 44 42.362 43.673C42.9265 43.3854 43.3854 42.9265 43.673 42.362C44 41.7202 44 40.8802 44 39.2V30.8C44 29.1198 44 28.2798 43.673 27.638C43.3854 27.0735 42.9265 26.6146 42.362 26.327C41.7202 26 40.8802 26 39.2 26H36.8C35.1198 26 34.2798 26 33.638 26.327C33.0735 26.6146 32.6146 27.0735 32.327 27.638C32 28.2798 32 29.1198 32 30.8V39.2C32 40.8802 32 41.7202 32.327 42.362C32.6146 42.9265 33.0735 43.3854 33.638 43.673C34.2798 44 35.1198 44 36.8 44Z" stroke="white" stroke-width="3.5" stroke-linecap="round" stroke-linejoin="round"/>
</svg>
