<svg width="24" height="24" viewBox="0 0 24 24" fill="none" xmlns="http://www.w3.org/2000/svg">
<g id="lightbulb-03">
<path id="Icon" d="M11.9999 2V3.5M1.16968 12H2.66968M21.2511 12H22.7511M4.48751 4.70386L5.60641 5.82275M19.628 4.70386L18.5091 5.82275M5.99993 12.7143C5.99993 9.55837 8.68622 7 11.9999 7C15.3136 7 17.9999 9.55837 17.9999 12.7143C17.9999 14.5456 17.0954 16.1758 15.6885 17.2215C15.02 17.7185 14.6857 17.9669 14.5577 18.1346C14.411 18.3268 14.3748 18.3988 14.3081 18.6311C14.2499 18.8339 14.2499 19.1093 14.2499 19.6601V20.08C14.2499 20.7521 14.2499 21.0881 14.1191 21.3448C14.0041 21.5706 13.8205 21.7542 13.5947 21.8692C13.338 22 13.002 22 12.3299 22H11.6699C10.9979 22 10.6618 22 10.4051 21.8692C10.1793 21.7542 9.99577 21.5706 9.88072 21.3448C9.74993 21.0881 9.74993 20.7521 9.74993 20.08V19.6601C9.74993 19.1093 9.74992 18.8339 9.69173 18.6311C9.62505 18.3988 9.58884 18.3268 9.44214 18.1346C9.31411 17.9669 8.97985 17.7185 8.31133 17.2215C6.9045 16.1758 5.99993 14.5456 5.99993 12.7143Z" stroke="#FF6C0A" stroke-width="2" stroke-linecap="round" stroke-linejoin="round"/>
</g>
</svg>
