<svg width="1035" height="534" viewBox="0 0 1035 534" fill="none" xmlns="http://www.w3.org/2000/svg">
<path fill-rule="evenodd" clip-rule="evenodd" d="M96.1806 -1.6352H-7.66645V102.212H85.4221L96.1806 91.4533V-1.6352ZM107.226 102.212L96.6063 91.5921V-1.6352H200.453V102.212H107.226ZM96.6063 113.099L107.068 102.638H200.453V206.485H96.6063V113.099ZM85.5803 102.638L96.1806 113.238V206.485H-7.66645V102.638H85.5803ZM-8.03125 -2V102.273V102.577V206.545V206.85V310.818V311.122V415.091V415.395V519.364V519.668V623.94H96.2415H96.5455H200.514H200.818H304.787H305.091H409.06H409.364H513.332H513.636H617.605H617.909H721.878H722.182H826.15H826.454H930.423H930.727H1035L1035 519.668V415.395V415.091V310.818V206.85V102.577V102.273V-2H930.727H930.423H826.454H826.15H722.182H721.878H617.909H617.605H513.636H513.332H409.364H409.06H305.091H304.787H200.818H200.514H96.5455H96.2415H-8.03125ZM200.879 -1.6352H304.726V102.212H200.879V-1.6352ZM408.999 -1.6352H305.152V102.212H408.999V-1.6352ZM409.424 -1.6352H513.271V102.212H409.424V-1.6352ZM617.544 -1.6352H513.697V102.212H617.544V-1.6352ZM617.97 -1.6352H721.817V102.212H617.97V-1.6352ZM826.09 -1.6352H722.242V102.212H826.09V-1.6352ZM826.515 -1.6352H930.362V102.212H826.515V-1.6352ZM1034.64 -1.6352H930.788V102.212H1034.64V-1.6352ZM200.879 102.638H304.726V206.485H200.879V102.638ZM408.999 102.638H305.152V206.485H398.553L408.999 196.039V102.638ZM419.703 206.485L409.424 196.206V102.638H513.271V206.485H419.703ZM409.424 217.685L420.164 206.946L420.128 206.91H513.271V310.757H409.424V217.685ZM398.128 206.91L398.092 206.946L408.999 217.852V310.757H305.152V206.91H398.128ZM617.544 102.638H513.697V206.485H617.544V102.638ZM617.97 102.638H721.817V206.485H617.97V102.638ZM826.09 102.638H722.242V206.485H826.09V102.638ZM826.515 102.638H930.362V177.674L930.186 177.85L901.552 206.485H826.515V102.638ZM901.126 206.91H826.515V300.526L826.864 300.178L837.443 310.757H930.362V236.217L930.186 236.041L901.372 207.227L901.091 206.946L901.126 206.91ZM930.362 235.654L901.654 206.946L901.69 206.91H919.467L919.432 206.946L930.362 217.876V235.654ZM930.788 236.003V310.757H1034.63V206.91H959.809L959.845 206.946L959.563 207.227L930.788 236.003ZM959.246 206.91L959.281 206.946L930.788 235.439V217.661L941.503 206.946L941.468 206.91H959.246ZM959.384 206.485H1034.64V102.638H930.788V177.889L959.384 206.485ZM930.788 178.453L958.82 206.485H941.043L930.788 196.23V178.453ZM930.362 178.238L902.115 206.485H919.893L930.362 196.016V178.238ZM826.515 321.9L826.864 322.249L837.9 311.214L837.869 311.183H930.362V415.03H826.515V321.9ZM815.859 311.183L815.828 311.214L826.09 321.475V415.03H722.242V311.183H815.859ZM826.09 300.952L816.285 310.757H722.242V206.91H826.09V300.952ZM-7.66645 206.91H96.1806V310.757H-7.66645V206.91ZM200.453 206.91H96.6063V310.757H200.453V206.91ZM200.879 206.91H304.726V310.757H200.879V206.91ZM617.544 206.91H513.697V310.757H617.544V206.91ZM617.97 206.91H721.817V310.757H617.97V206.91ZM-7.66645 311.183H96.1806V415.03H-7.66645V311.183ZM200.453 311.183H96.6063V415.03H171.76L171.625 414.895L171.907 414.613L200.453 386.066V311.183ZM200.453 386.63L172.188 414.895L172.323 415.03H190.101L189.966 414.895L200.453 404.408V386.63ZM200.879 403.982V386.204L201.002 386.081L229.815 414.895L229.68 415.03H211.903L212.038 414.895L201.002 403.859L200.879 403.982ZM200.879 425.808L201.002 425.931L211.477 415.456H229.255L201.002 443.708L200.879 443.585V425.808ZM190.527 415.456L200.453 425.382V443.16L172.749 415.456H190.527ZM172.186 415.456H96.6063V519.303H200.453V443.724L172.186 415.456ZM200.879 444.149V519.303H304.726V415.456H229.818L201.284 443.99L201.002 444.272L200.879 444.149ZM230.244 415.03H304.726V311.183H200.879V385.641L201.002 385.518L201.284 385.8L230.097 414.613L230.379 414.895L230.244 415.03ZM408.999 311.183H305.152V415.03H408.999V311.183ZM409.424 311.183H513.271V415.03H409.424V311.183ZM617.544 311.183H513.697V415.03H617.544V311.183ZM617.97 311.183H721.817V415.03H617.97V311.183ZM1034.64 311.183H930.788V415.03H1034.64V311.183ZM-7.66645 415.456H96.1806V519.303H-7.66645V415.456ZM408.999 415.456H305.152V519.303H408.999V415.456ZM409.424 415.456H513.271V519.303H409.424V415.456ZM617.544 415.456H513.697V519.303H617.544V415.456ZM617.97 415.456H721.817V519.303H617.97V415.456ZM826.09 415.456H722.242V519.303H826.09V415.456ZM826.515 415.456H930.362V519.303H826.515V415.456ZM1034.64 415.456H930.788V519.303H1034.64V415.456ZM-7.66645 519.728H96.1806V623.576H-7.66645V519.728ZM200.453 519.728H96.6063V623.576H200.453V519.728ZM200.879 519.728H304.726V623.576H200.879V519.728ZM408.999 519.728H305.152V623.576H408.999V519.728ZM409.424 519.728H513.271V623.576H409.424V519.728ZM617.544 519.728H513.697V623.576H617.544V519.728ZM617.97 519.728H721.817V623.576H617.97V519.728ZM826.09 519.728H722.242V623.576H826.09V519.728ZM826.515 519.728H930.362V623.576H826.515V519.728ZM1034.63 519.728H930.788V623.576H1034.63V519.728Z" fill="url(#paint0_radial_4490_599)" fill-opacity="0.6"/>
<defs>
<radialGradient id="paint0_radial_4490_599" cx="0" cy="0" r="1" gradientUnits="userSpaceOnUse" gradientTransform="translate(513.484 -353.323) rotate(90) scale(898.398 1497.04)">
<stop stop-color="white"/>
<stop offset="1" stop-opacity="0.67"/>
</radialGradient>
</defs>
</svg>
