<svg width="34" height="34" viewBox="0 0 34 34" fill="none" xmlns="http://www.w3.org/2000/svg">
<g id="line-chart-up-02">
<path id="Icon" d="M29.75 29.75H11.05C8.66978 29.75 7.47967 29.75 6.57054 29.2868C5.77085 28.8793 5.12068 28.2291 4.71322 27.4295C4.25 26.5203 4.25 25.3302 4.25 22.95V4.25M4.25 14.1667L14.875 19.125L26.2083 12.0417M17 19.125C17 20.2986 16.0486 21.25 14.875 21.25C13.7014 21.25 12.75 20.2986 12.75 19.125C12.75 17.9514 13.7014 17 14.875 17C16.0486 17 17 17.9514 17 19.125ZM28.3333 12.0417C28.3333 13.2153 27.3819 14.1667 26.2083 14.1667C25.0347 14.1667 24.0833 13.2153 24.0833 12.0417C24.0833 10.8681 25.0347 9.91667 26.2083 9.91667C27.3819 9.91667 28.3333 10.8681 28.3333 12.0417Z" stroke="#008B3C" stroke-width="2" stroke-linecap="round" stroke-linejoin="round"/>
</g>
</svg>
