<svg width="340" height="326" viewBox="0 0 340 326" fill="none" xmlns="http://www.w3.org/2000/svg">
<path fill-rule="evenodd" clip-rule="evenodd" d="M40.2586 0.189995H-6.83457V54.2753H35.3798L40.2586 48.672V0.189995ZM45.2676 54.2753L40.4517 48.7443V0.189995H87.5449V54.2753H45.2676ZM40.4517 59.9456L45.1959 54.497H87.5449V108.582H40.4517V59.9456ZM35.4515 54.497L40.2586 60.0178V108.582H-6.83457V54.497H35.4515ZM-7 0V54.307V54.4653V108.614V108.772V162.921V163.079V217.228V217.386V271.535V271.693V326H40.2862H40.4241H87.5723H87.7103H134.859H134.996H182.145H182.283H229.431H229.569H276.717H276.855H324.003H324.141H371.29H371.427H418.576H418.714H466L466 271.693V217.386V217.228V162.921V108.772V54.4653V54.307V0H418.714H418.576H371.427H371.29H324.141H324.003H276.855H276.717H229.569H229.431H182.283H182.145H134.996H134.859H87.7103H87.5723H40.4241H40.2862H-7ZM87.7378 0.189995H134.831V54.2753H87.7378V0.189995ZM182.117 0.189995H135.024V54.2753H182.117V0.189995ZM182.31 0.189995H229.403V54.2753H182.31V0.189995ZM276.69 0.189995H229.596V54.2753H276.69V0.189995ZM276.883 0.189995H323.976V54.2753H276.883V0.189995ZM371.262 0.189995H324.169V54.2753H371.262V0.189995ZM371.455 0.189995H418.548V54.2753H371.455V0.189995ZM465.835 0.189995H418.741V54.2753H465.835V0.189995ZM87.7378 54.497H134.831V108.582H87.7378V54.497ZM182.117 54.497H135.024V108.582H177.38L182.117 103.142V54.497ZM186.971 108.582L182.31 103.229V54.497H229.403V108.582H186.971ZM182.31 114.416L187.18 108.822L187.164 108.804H229.403V162.889H182.31V114.416ZM177.187 108.804L177.171 108.822L182.117 114.503V162.889H135.024V108.804H177.187ZM276.69 54.497H229.596V108.582H276.69V54.497ZM276.883 54.497H323.976V108.582H276.883V54.497ZM371.262 54.497H324.169V108.582H371.262V54.497ZM371.455 54.497H418.548V93.5773L418.468 93.669L405.483 108.582H371.455V54.497ZM405.29 108.804H371.455V157.561L371.613 157.379L376.411 162.889H418.548V124.068L418.468 123.976L405.402 108.969L405.274 108.822L405.29 108.804ZM418.548 123.774L405.53 108.822L405.546 108.804H413.608L413.591 108.822L418.548 114.515V123.774ZM418.741 123.956V162.889H465.834V108.804H431.902L431.918 108.822L431.79 108.969L418.741 123.956ZM431.646 108.804L431.663 108.822L418.741 123.662V114.403L423.601 108.822L423.585 108.804H431.646ZM431.709 108.582H465.835V54.497H418.741V93.6892L431.709 108.582ZM418.741 93.9827L431.454 108.582H423.392L418.741 103.242V93.9827ZM418.548 93.8707L405.739 108.582H413.801L418.548 103.13V93.8707ZM371.455 168.693L371.613 168.874L376.618 163.127L376.604 163.111H418.548V217.196H371.455V168.693ZM366.623 163.111L366.609 163.127L371.262 168.471V217.196H324.169V163.111H366.623ZM371.262 157.782L366.816 162.889H324.169V108.804H371.262V157.782ZM-6.83457 108.804H40.2586V162.889H-6.83457V108.804ZM87.5449 108.804H40.4517V162.889H87.5449V108.804ZM87.7378 108.804H134.831V162.889H87.7378V108.804ZM276.69 108.804H229.597V162.889H276.69V108.804ZM276.883 108.804H323.976V162.889H276.883V108.804ZM-6.83457 163.111H40.2586V217.196H-6.83457V163.111ZM87.5449 163.111H40.4517V217.196H74.5328L74.4715 217.126L74.5993 216.979L87.5449 202.111V163.111ZM87.5449 202.405L74.7271 217.126L74.7883 217.196H82.8503L82.789 217.126L87.5449 211.664V202.405ZM87.7378 211.442V202.183L87.7936 202.119L100.86 217.126L100.799 217.196H92.737L92.7982 217.126L87.7936 211.378L87.7378 211.442ZM87.7378 222.809L87.7936 222.873L92.5439 217.418H100.606L87.7936 232.132L87.7378 232.068V222.809ZM83.0433 217.418L87.5449 222.588V231.847L74.9814 217.418H83.0433ZM74.7258 217.418H40.4517V271.503H87.5449V232.14L74.7258 217.418ZM87.7378 232.362V271.503H134.831V217.418H100.861L87.9214 232.279L87.7936 232.426L87.7378 232.362ZM101.054 217.196H134.831V163.111H87.7378V201.89L87.7936 201.826L87.9214 201.972L100.988 216.979L101.116 217.126L101.054 217.196ZM182.117 163.111H135.024V217.196H182.117V163.111ZM182.31 163.111H229.403V217.196H182.31V163.111ZM276.69 163.111H229.596V217.196H276.69V163.111ZM276.883 163.111H323.976V217.196H276.883V163.111ZM465.835 163.111H418.741V217.196H465.835V163.111ZM-6.83457 217.418H40.2586V271.503H-6.83457V217.418ZM182.117 217.418H135.024V271.503H182.117V217.418ZM182.31 217.418H229.403V271.503H182.31V217.418ZM276.69 217.418H229.596V271.503H276.69V217.418ZM276.883 217.418H323.976V271.503H276.883V217.418ZM371.262 217.418H324.169V271.503H371.262V217.418ZM371.455 217.418H418.548V271.503H371.455V217.418ZM465.835 217.418H418.741V271.503H465.835V217.418ZM-6.83457 271.725H40.2586V325.81H-6.83457V271.725ZM87.5449 271.725H40.4517V325.81H87.5449V271.725ZM87.7378 271.725H134.831V325.81H87.7378V271.725ZM182.117 271.725H135.024V325.81H182.117V271.725ZM182.31 271.725H229.403V325.81H182.31V271.725ZM276.69 271.725H229.596V325.81H276.69V271.725ZM276.883 271.725H323.976V325.81H276.883V271.725ZM371.262 271.725H324.169V325.81H371.262V271.725ZM371.455 271.725H418.548V325.81H371.455V271.725ZM465.834 271.725H418.741V325.81H465.834V271.725Z" fill="url(#paint0_radial_4615_1043)" fill-opacity="0.6"/>
<defs>
<radialGradient id="paint0_radial_4615_1043" cx="0" cy="0" r="1" gradientUnits="userSpaceOnUse" gradientTransform="translate(229.5 -182.975) rotate(90) scale(467.9 678.886)">
<stop stop-color="white"/>
<stop offset="1" stop-opacity="0.67"/>
</radialGradient>
</defs>
</svg>
