<svg width="24" height="24" viewBox="0 0 24 24" fill="none" xmlns="http://www.w3.org/2000/svg">
<g id="LinkedIn" clip-path="url(#clip0_4538_809)">
<g id="Vector">
<path d="M0.904785 3.62294C0.904785 1.8723 2.32396 0.453125 4.0746 0.453125H20.3765C22.1271 0.453125 23.5463 1.8723 23.5463 3.62294V19.9248C23.5463 21.6755 22.1271 23.0946 20.3765 23.0946H4.0746C2.32396 23.0946 0.904785 21.6755 0.904785 19.9248V3.62294Z" fill="#39393D"/>
<path d="M9.05573 6.56633C9.05573 7.69174 8.1434 8.60407 7.01799 8.60407C5.89258 8.60407 4.98026 7.69174 4.98026 6.56633C4.98026 5.44092 5.89258 4.5286 7.01799 4.5286C8.1434 4.5286 9.05573 5.44092 9.05573 6.56633Z" fill="#FDFDFF"/>
<path d="M5.43309 9.96256C5.43309 9.71247 5.63583 9.50973 5.88592 9.50973H8.15007C8.40016 9.50973 8.6029 9.71247 8.6029 9.96256V18.5663C8.6029 18.8164 8.40016 19.0192 8.15007 19.0192H5.88592C5.63583 19.0192 5.43309 18.8164 5.43309 18.5663V9.96256Z" fill="#FDFDFF"/>
<path d="M10.4142 9.50973L12.452 9.50974C12.702 9.50974 12.9048 9.71248 12.9048 9.96257V10.4154C13.8104 9.28332 15.4708 9.20784 16.301 9.28331C18.8891 9.51857 19.3199 12.1512 19.2444 13.5852L19.2444 18.5663C19.2444 18.8164 19.0417 19.0192 18.7916 19.0192L16.7538 19.0192C16.5038 19.0192 16.301 18.8164 16.301 18.5663V13.5852C16.2255 12.9814 15.8029 11.7739 14.7161 11.7739C13.6293 11.7739 12.9803 13.1324 12.9048 13.5852V18.5663C12.9048 18.8164 12.702 19.0192 12.452 19.0192L10.4142 19.0192C10.1641 19.0192 9.96139 18.8164 9.96139 18.5663V9.96256C9.96139 9.71247 10.1641 9.50973 10.4142 9.50973Z" fill="#FDFDFF"/>
</g>
</g>
<defs>
<clipPath id="clip0_4538_809">
<rect width="24" height="24" fill="white"/>
</clipPath>
</defs>
</svg>
