<svg width="68" height="19" viewBox="0 0 68 19" fill="none" xmlns="http://www.w3.org/2000/svg">
<rect width="68" height="19" rx="9.5" fill="#EB331E"/>
<path d="M8.184 5.324V12.908H12V14H7.008V5.324H8.184ZM13.8475 6.74C13.4395 6.74 13.1035 6.404 13.1035 5.996C13.1035 5.576 13.4395 5.252 13.8475 5.252C14.2555 5.252 14.5915 5.576 14.5915 5.996C14.5915 6.404 14.2555 6.74 13.8475 6.74ZM13.2955 14V8.132H14.4235V14H13.2955ZM17.9152 14L15.5512 8.132H16.7512L18.0352 11.408C18.2392 11.96 18.4072 12.452 18.5032 12.812C18.5992 12.428 18.7912 11.924 18.9952 11.408L20.3032 8.132H21.4792L19.0312 14H17.9152ZM24.8491 14.144C23.1211 14.144 21.9331 12.896 21.9331 11.072C21.9331 9.236 23.0971 7.964 24.8011 7.964C26.4691 7.964 27.5611 9.116 27.5611 10.856V11.276L23.0251 11.288C23.1091 12.524 23.7571 13.208 24.8731 13.208C25.7491 13.208 26.3251 12.848 26.5171 12.176H27.5731C27.2851 13.436 26.3011 14.144 24.8491 14.144ZM24.8011 8.912C23.8171 8.912 23.1931 9.5 23.0491 10.532H26.4331C26.4331 9.56 25.7971 8.912 24.8011 8.912ZM36.3142 14.132C33.8422 14.132 32.1982 12.356 32.1982 9.668C32.1982 6.992 33.8902 5.18 36.3742 5.18C38.3302 5.18 39.8302 6.344 40.1542 8.12H38.8942C38.5702 6.992 37.5982 6.308 36.3382 6.308C34.5862 6.308 33.4342 7.628 33.4342 9.656C33.4342 11.684 34.5862 13.004 36.3382 13.004C37.6102 13.004 38.6182 12.32 38.9422 11.252H40.1902C39.8182 12.98 38.2702 14.132 36.3142 14.132ZM42.7436 14H41.6156V5.168H42.7436V14ZM46.3301 14.144C45.0701 14.144 44.3261 13.436 44.3261 12.368C44.3261 11.288 45.1301 10.616 46.5101 10.508L48.3581 10.364V10.196C48.3581 9.212 47.7701 8.864 46.9781 8.864C46.0301 8.864 45.4901 9.284 45.4901 9.992H44.5061C44.5061 8.768 45.5141 7.964 47.0261 7.964C48.4781 7.964 49.4621 8.732 49.4621 10.316V14H48.5021L48.3821 13.052C48.0821 13.724 47.2781 14.144 46.3301 14.144ZM46.6541 13.268C47.7221 13.268 48.3701 12.572 48.3701 11.468V11.156L46.8701 11.276C45.8741 11.372 45.4661 11.756 45.4661 12.332C45.4661 12.956 45.9221 13.268 46.6541 13.268ZM50.7543 12.296H51.8343C51.8343 12.896 52.2903 13.256 53.0343 13.256C53.8263 13.256 54.2823 12.932 54.2823 12.392C54.2823 11.996 54.0903 11.756 53.4783 11.6L52.4463 11.36C51.4023 11.108 50.9103 10.592 50.9103 9.728C50.9103 8.648 51.8223 7.964 53.1183 7.964C54.4023 7.964 55.2423 8.684 55.2663 9.8H54.1863C54.1623 9.212 53.7663 8.84 53.0823 8.84C52.3743 8.84 51.9783 9.152 51.9783 9.692C51.9783 10.088 52.2663 10.352 52.8423 10.496L53.8743 10.748C54.8703 10.988 55.3623 11.444 55.3623 12.32C55.3623 13.436 54.4023 14.144 53.0103 14.144C51.6303 14.144 50.7543 13.412 50.7543 12.296ZM56.3432 12.296H57.4232C57.4232 12.896 57.8792 13.256 58.6232 13.256C59.4152 13.256 59.8712 12.932 59.8712 12.392C59.8712 11.996 59.6792 11.756 59.0672 11.6L58.0352 11.36C56.9912 11.108 56.4992 10.592 56.4992 9.728C56.4992 8.648 57.4112 7.964 58.7072 7.964C59.9912 7.964 60.8312 8.684 60.8552 9.8H59.7752C59.7512 9.212 59.3552 8.84 58.6712 8.84C57.9632 8.84 57.5672 9.152 57.5672 9.692C57.5672 10.088 57.8552 10.352 58.4312 10.496L59.4632 10.748C60.4592 10.988 60.9512 11.444 60.9512 12.32C60.9512 13.436 59.9912 14.144 58.5992 14.144C57.2192 14.144 56.3432 13.412 56.3432 12.296Z" fill="#FDFDFF"/>
</svg>
