<svg width="177" height="20" viewBox="0 0 177 20" fill="none" xmlns="http://www.w3.org/2000/svg">
<path d="M67.3085 1H67.8001C69.5068 1.03701 71.1857 1.72168 72.3915 2.93373C71.9463 3.38709 71.4918 3.82195 71.0558 4.27531C70.3787 3.66466 69.5625 3.19279 68.672 3.02625C67.3549 2.74868 65.9357 2.9985 64.832 3.74793C63.6261 4.53438 62.8099 5.86671 62.6336 7.29156C62.4389 8.69791 62.8377 10.1783 63.756 11.27C64.6372 12.3341 65.9821 13.0002 67.3735 13.0465C68.672 13.1205 70.0263 12.7227 70.9724 11.8159C71.7144 11.1775 72.0576 10.206 72.1689 9.2623C70.6292 9.2623 69.0894 9.27155 67.5497 9.2623V7.35632H74.0333C74.3672 9.40108 73.8849 11.7049 72.3266 13.1668C71.2877 14.203 69.85 14.8137 68.3845 14.934C66.9653 15.0727 65.4998 14.8044 64.2383 14.1198C62.7264 13.3148 61.5206 11.9547 60.9269 10.3541C60.3704 8.88295 60.3611 7.21754 60.8806 5.73717C61.3536 4.38634 62.2626 3.19279 63.4313 2.36009C64.5537 1.53663 65.9172 1.08327 67.3085 1Z" fill="#3780FF"/>
<path d="M104.503 1.4812H106.488V14.6935C105.83 14.6935 105.162 14.7027 104.503 14.6842C104.513 10.2894 104.503 5.88529 104.503 1.4812Z" fill="#38B137"/>
<path d="M78.4485 6.06108C79.6728 5.82978 80.9992 6.08884 82.0103 6.81977C82.9285 7.46743 83.5686 8.48518 83.7633 9.59546C84.0138 10.8815 83.6984 12.2879 82.8636 13.3056C81.9639 14.4437 80.4891 15.0543 79.0514 14.9618C77.7342 14.8878 76.4542 14.2309 75.6751 13.1576C74.7939 11.9733 74.5805 10.3449 75.0629 8.95705C75.5452 7.46743 76.9087 6.3294 78.4485 6.06108ZM78.7267 7.81902C78.2258 7.94855 77.7621 8.23537 77.4281 8.64247C76.5284 9.71574 76.5841 11.4644 77.5765 12.4637C78.1424 13.0373 78.9957 13.3056 79.7841 13.1483C80.5169 13.0188 81.1569 12.5284 81.5094 11.8808C82.1216 10.7798 81.9453 9.26238 81.0085 8.40191C80.4056 7.84678 79.5244 7.61547 78.7267 7.81902Z" fill="#FA3913"/>
<path d="M88.2805 6.06108C89.6811 5.79277 91.2116 6.18136 92.2597 7.1621C93.9665 8.68873 94.152 11.5477 92.6957 13.3056C91.8145 14.4159 90.3861 15.0266 88.9762 14.9618C87.6312 14.9248 86.3048 14.2586 85.5071 13.1576C84.6074 11.9455 84.4126 10.2801 84.9228 8.86453C85.4329 7.42117 86.7686 6.32015 88.2805 6.06108ZM88.5588 7.81902C88.0579 7.94855 87.5941 8.23537 87.2602 8.63322C86.3698 9.68798 86.4069 11.4089 87.3623 12.4174C87.9281 13.0188 88.8092 13.3149 89.6255 13.1483C90.349 13.0096 90.9983 12.5284 91.3507 11.8808C91.9537 10.7705 91.7774 9.25312 90.8313 8.39266C90.2284 7.83752 89.3472 7.61547 88.5588 7.81902Z" fill="#FCBD06"/>
<path d="M96.6193 6.59772C97.6859 5.93155 99.1051 5.74651 100.255 6.32015C100.617 6.47744 100.914 6.74575 101.201 7.01407C101.211 6.76426 101.201 6.50519 101.211 6.24613C101.832 6.25538 102.454 6.24613 103.084 6.25538V14.4159C103.075 15.6465 102.76 16.951 101.869 17.8485C100.895 18.8385 99.4019 19.1438 98.057 18.9403C96.6193 18.7275 95.3671 17.682 94.8105 16.3589C95.3671 16.0906 95.9514 15.8778 96.5265 15.628C96.8511 16.3866 97.5097 17.0343 98.3352 17.1823C99.1608 17.3304 100.116 17.1268 100.654 16.4422C101.229 15.739 101.229 14.7767 101.201 13.9163C100.775 14.3326 100.283 14.7027 99.6895 14.8415C98.4002 15.2023 96.981 14.7582 95.9885 13.8885C94.9868 13.0188 94.3931 11.6772 94.4488 10.3449C94.4766 8.83677 95.33 7.38416 96.6193 6.59772ZM98.5393 7.78201C97.9735 7.87453 97.4448 8.18911 97.083 8.62397C96.2111 9.66023 96.2111 11.3164 97.0923 12.3341C97.5932 12.9355 98.4002 13.2686 99.1793 13.1853C99.9121 13.1113 100.589 12.6487 100.951 12.0103C101.563 10.9278 101.461 9.45667 100.636 8.51294C100.125 7.93005 99.3092 7.64323 98.5393 7.78201Z" fill="#3780FF"/>
<path d="M108.872 7.06958C109.985 6.03333 111.701 5.68174 113.13 6.22762C114.484 6.7365 115.347 8.02257 115.783 9.34565C113.77 10.1784 111.766 11.0018 109.753 11.8345C110.032 12.3619 110.458 12.843 111.033 13.0373C111.84 13.3241 112.805 13.2224 113.482 12.6857C113.751 12.4822 113.965 12.2139 114.169 11.9548C114.679 12.2971 115.189 12.6302 115.699 12.9725C114.976 14.0551 113.76 14.8138 112.453 14.934C111.006 15.1098 109.466 14.5547 108.529 13.4259C106.989 11.6495 107.138 8.67023 108.872 7.06958ZM109.865 8.78126C109.549 9.23462 109.42 9.78976 109.429 10.3356C110.774 9.7805 112.119 9.22537 113.464 8.66098C113.241 8.14285 112.703 7.82827 112.156 7.745C111.275 7.58771 110.356 8.05958 109.865 8.78126Z" fill="#FA3913"/>
</svg>
