<svg width="114" height="33" viewBox="0 0 114 33" fill="none" xmlns="http://www.w3.org/2000/svg">
<path fill-rule="evenodd" clip-rule="evenodd" d="M9.39857 24.282V10.3116L14.7907 12.64V17.0517L16.7514 18.3997V8.59588L9.39857 5.04199L5.35449 7.24785V21.831L9.39857 24.282ZM24.1044 24.282V10.3116L18.7123 12.64V17.0517L16.7515 18.3997V8.59588L24.1044 5.04199L28.1485 7.24785V21.831L24.1044 24.282Z" fill="#006AF5"/>
<path fill-rule="evenodd" clip-rule="evenodd" d="M14.9141 22.1987V21.7085L16.8748 23.0565V23.5467V27.4682V27.9585L14.9141 26.6104V26.1202V22.1987ZM18.8359 22.1987V21.7085L16.8751 23.0565V23.5467V27.4682V27.9585L18.8359 26.6104V26.1202V22.1987Z" fill="#FF6C0A"/>
<path d="M37.717 17.0471C37.717 17.2667 37.7033 17.4955 37.6758 17.7334H32.3641C32.4007 18.2092 32.5517 18.5752 32.817 18.8314C33.0916 19.0784 33.4255 19.202 33.819 19.202C34.4046 19.202 34.8118 18.9549 35.0406 18.4608H37.5386C37.4105 18.9641 37.1771 19.417 36.8386 19.8196C36.5092 20.2222 36.0928 20.5379 35.5896 20.7667C35.0863 20.9954 34.5236 21.1098 33.9013 21.1098C33.151 21.1098 32.4831 20.9497 31.8974 20.6294C31.3118 20.3092 30.8543 19.8516 30.5249 19.2569C30.1955 18.6621 30.0308 17.9667 30.0308 17.1706C30.0308 16.3746 30.1909 15.6791 30.5112 15.0844C30.8406 14.4896 31.2981 14.0321 31.8837 13.7118C32.4693 13.3916 33.1419 13.2314 33.9013 13.2314C34.6425 13.2314 35.3013 13.387 35.8778 13.6981C36.4543 14.0092 36.9026 14.453 37.2229 15.0295C37.5523 15.6059 37.717 16.2785 37.717 17.0471ZM35.3151 16.4295C35.3151 16.0268 35.1778 15.7066 34.9033 15.4687C34.6288 15.2308 34.2857 15.1118 33.8739 15.1118C33.4804 15.1118 33.1465 15.2262 32.8719 15.455C32.6066 15.6837 32.4419 16.0085 32.3778 16.4295H35.3151ZM43.7591 13.2589C44.6558 13.2589 45.3695 13.5517 45.9002 14.1373C46.4401 14.7138 46.71 15.5099 46.71 16.5255V21H44.3767V16.8412C44.3767 16.3288 44.244 15.9308 43.9787 15.6471C43.7133 15.3635 43.3564 15.2216 42.9081 15.2216C42.4597 15.2216 42.1029 15.3635 41.8375 15.6471C41.5721 15.9308 41.4395 16.3288 41.4395 16.8412V21H39.0924V13.3412H41.4395V14.3569C41.6774 14.0184 41.9976 13.753 42.4002 13.5609C42.8029 13.3595 43.2558 13.2589 43.7591 13.2589ZM52.7468 19.0098V21H51.5527C50.7017 21 50.0383 20.7941 49.5625 20.3824C49.0867 19.9614 48.8488 19.2798 48.8488 18.3373V15.2902H47.9155V13.3412H48.8488V11.4746H51.1958V13.3412H52.7331V15.2902H51.1958V18.3647C51.1958 18.5935 51.2507 18.7582 51.3605 18.8588C51.4703 18.9595 51.6534 19.0098 51.9096 19.0098H52.7468ZM57.6776 21.1098C56.9273 21.1098 56.2502 20.9497 55.6463 20.6294C55.0515 20.3092 54.5803 19.8516 54.2326 19.2569C53.894 18.6621 53.7247 17.9667 53.7247 17.1706C53.7247 16.3837 53.8986 15.6929 54.2463 15.0981C54.594 14.4942 55.0698 14.0321 55.6737 13.7118C56.2777 13.3916 56.9548 13.2314 57.7051 13.2314C58.4554 13.2314 59.1325 13.3916 59.7364 13.7118C60.3404 14.0321 60.8162 14.4942 61.1639 15.0981C61.5116 15.6929 61.6854 16.3837 61.6854 17.1706C61.6854 17.9575 61.507 18.653 61.1502 19.2569C60.8024 19.8516 60.3221 20.3092 59.709 20.6294C59.1051 20.9497 58.428 21.1098 57.6776 21.1098ZM57.6776 19.0784C58.126 19.0784 58.5057 18.9137 58.8168 18.5843C59.1371 18.2549 59.2972 17.7837 59.2972 17.1706C59.2972 16.5576 59.1417 16.0863 58.8306 15.7569C58.5286 15.4275 58.1535 15.2628 57.7051 15.2628C57.2476 15.2628 56.8678 15.4275 56.5659 15.7569C56.2639 16.0772 56.113 16.5484 56.113 17.1706C56.113 17.7837 56.2594 18.2549 56.5522 18.5843C56.8541 18.9137 57.2293 19.0784 57.6776 19.0784ZM65.4149 14.6177C65.6894 14.1968 66.0325 13.8674 66.4443 13.6295C66.856 13.3824 67.3136 13.2589 67.8168 13.2589V15.7432H67.1717C66.5861 15.7432 66.1469 15.8713 65.8541 16.1275C65.5613 16.3746 65.4149 16.8138 65.4149 17.4451V21H63.0678V13.3412H65.4149V14.6177ZM80.4668 11.3648V21H78.1197V17.0334H74.4688V21H72.1218V11.3648H74.4688V15.1393H78.1197V11.3648H80.4668ZM83.4787 12.5452C83.067 12.5452 82.7284 12.4262 82.4631 12.1883C82.2069 11.9413 82.0788 11.6393 82.0788 11.2824C82.0788 10.9164 82.2069 10.6145 82.4631 10.3766C82.7284 10.1295 83.067 10.006 83.4787 10.006C83.8814 10.006 84.2108 10.1295 84.467 10.3766C84.7323 10.6145 84.865 10.9164 84.865 11.2824C84.865 11.6393 84.7323 11.9413 84.467 12.1883C84.2108 12.4262 83.8814 12.5452 83.4787 12.5452ZM84.6454 13.3412V21H82.2984V13.3412H84.6454ZM91.1502 13.2589C92.0469 13.2589 92.7606 13.5517 93.2913 14.1373C93.8312 14.7138 94.1011 15.5099 94.1011 16.5255V21H91.7678V16.8412C91.7678 16.3288 91.6351 15.9308 91.3698 15.6471C91.1044 15.3635 90.7475 15.2216 90.2992 15.2216C89.8508 15.2216 89.494 15.3635 89.2286 15.6471C88.9632 15.9308 88.8306 16.3288 88.8306 16.8412V21H86.4835V13.3412H88.8306V14.3569C89.0685 14.0184 89.3887 13.753 89.7913 13.5609C90.194 13.3595 90.6469 13.2589 91.1502 13.2589ZM100.138 19.0098V21H98.9438C98.0928 21 97.4294 20.7941 96.9536 20.3824C96.4778 19.9614 96.2399 19.2798 96.2399 18.3373V15.2902H95.3066V13.3412H96.2399V11.4746H98.5869V13.3412H100.124V15.2902H98.5869V18.3647C98.5869 18.5935 98.6418 18.7582 98.7516 18.8588C98.8615 18.9595 99.0445 19.0098 99.3007 19.0098H100.138ZM104.698 21.1098C104.03 21.1098 103.435 20.9954 102.914 20.7667C102.392 20.5379 101.981 20.2268 101.679 19.8333C101.377 19.4307 101.207 18.9824 101.171 18.4883H103.49C103.518 18.7536 103.641 18.9686 103.861 19.1334C104.081 19.2981 104.35 19.3804 104.671 19.3804C104.964 19.3804 105.188 19.3255 105.343 19.2157C105.508 19.0967 105.59 18.9458 105.59 18.7628C105.59 18.5432 105.476 18.383 105.247 18.2824C105.018 18.1726 104.648 18.0536 104.135 17.9255C103.586 17.7974 103.129 17.6647 102.763 17.5275C102.397 17.3811 102.081 17.1569 101.816 16.8549C101.55 16.5438 101.418 16.1275 101.418 15.6059C101.418 15.1667 101.537 14.7687 101.775 14.4118C102.022 14.0458 102.379 13.7576 102.845 13.5471C103.321 13.3367 103.884 13.2314 104.533 13.2314C105.494 13.2314 106.249 13.4694 106.798 13.9452C107.356 14.421 107.677 15.0523 107.759 15.8393H105.59C105.554 15.5739 105.435 15.3635 105.233 15.2079C105.041 15.0523 104.785 14.9746 104.465 14.9746C104.19 14.9746 103.98 15.0295 103.833 15.1393C103.687 15.2399 103.614 15.3818 103.614 15.5648C103.614 15.7844 103.728 15.9491 103.957 16.0589C104.195 16.1687 104.561 16.2785 105.055 16.3883C105.622 16.5347 106.084 16.6811 106.441 16.8275C106.798 16.9647 107.109 17.1935 107.375 17.5138C107.649 17.8249 107.791 18.2458 107.8 18.7765C107.8 19.2249 107.672 19.6275 107.416 19.9843C107.169 20.332 106.807 20.6065 106.331 20.8078C105.865 21.0092 105.32 21.1098 104.698 21.1098Z" fill="black"/>
</svg>
