<svg width="158" height="46" viewBox="0 0 158 46" fill="none" xmlns="http://www.w3.org/2000/svg">
<path fill-rule="evenodd" clip-rule="evenodd" d="M12.7256 33.8472V14.3733L20.2419 17.6189V23.7686L22.9751 25.6477V11.9817L12.7256 7.02783L7.08841 10.1027V30.4308L12.7256 33.8472ZM38.8617 30.4308L33.2245 33.8472V14.3733L25.7083 17.6189V23.7686L22.9751 25.6477V11.9817L33.2245 7.02783L38.8617 10.1027V30.4308Z" fill="#006AF5"/>
<path fill-rule="evenodd" clip-rule="evenodd" d="M25.8791 30.9431V30.2598L23.1459 32.1388V32.8221V38.2885V38.9718L25.8791 37.0927V36.4094V30.9431ZM20.4127 30.9431V30.2598L23.1459 32.1388V32.8221V38.2885V38.9718L20.4127 37.0927V36.4094V30.9431Z" fill="#FF6C0A"/>
<path d="M52.1614 23.9899C52.1614 24.296 52.1423 24.6149 52.104 24.9465H44.6998C44.7508 25.6098 44.9613 26.12 45.3312 26.4771C45.7138 26.8215 46.1794 26.9937 46.7278 26.9937C47.5441 26.9937 48.1117 26.6493 48.4306 25.9605H51.9127C51.7341 26.662 51.4089 27.2934 50.9369 27.8546C50.4778 28.4158 49.8974 28.8559 49.1959 29.1748C48.4944 29.4936 47.7099 29.6531 46.8426 29.6531C45.7967 29.6531 44.8656 29.4298 44.0493 28.9834C43.233 28.537 42.5952 27.8993 42.1361 27.0702C41.6769 26.2411 41.4473 25.2718 41.4473 24.1621C41.4473 23.0524 41.6705 22.083 42.1169 21.254C42.5761 20.4249 43.2138 19.7872 44.0302 19.3407C44.8465 18.8943 45.784 18.6711 46.8426 18.6711C47.8758 18.6711 48.7941 18.8879 49.5977 19.3216C50.4012 19.7553 51.0262 20.3739 51.4726 21.1774C51.9318 21.981 52.1614 22.9185 52.1614 23.9899ZM48.8132 23.1289C48.8132 22.5677 48.6219 22.1213 48.2393 21.7897C47.8566 21.458 47.3783 21.2922 46.8043 21.2922C46.2559 21.2922 45.7903 21.4517 45.4077 21.7705C45.0378 22.0894 44.8082 22.5422 44.7189 23.1289H48.8132ZM60.5837 18.7094C61.8336 18.7094 62.8285 19.1175 63.5683 19.9338C64.3208 20.7374 64.6971 21.8471 64.6971 23.2629V29.5H61.4446V23.7029C61.4446 22.9886 61.2597 22.4338 60.8898 22.0384C60.5199 21.643 60.0224 21.4453 59.3974 21.4453C58.7725 21.4453 58.275 21.643 57.9051 22.0384C57.5352 22.4338 57.3503 22.9886 57.3503 23.7029V29.5H54.0787V18.8242H57.3503V20.24C57.6819 19.768 58.1283 19.3981 58.6896 19.1303C59.2508 18.8497 59.8821 18.7094 60.5837 18.7094ZM73.112 26.7258V29.5H71.4475C70.2613 29.5 69.3366 29.213 68.6733 28.639C68.0101 28.0523 67.6785 27.1021 67.6785 25.7883V21.541H66.3775V18.8242H67.6785V16.2222H70.9501V18.8242H73.0929V21.541H70.9501V25.8266C70.9501 26.1455 71.0266 26.3751 71.1797 26.5154C71.3327 26.6557 71.5878 26.7258 71.945 26.7258H73.112ZM79.9853 29.6531C78.9394 29.6531 77.9956 29.4298 77.1537 28.9834C76.3247 28.537 75.6678 27.8993 75.1831 27.0702C74.7112 26.2411 74.4752 25.2718 74.4752 24.1621C74.4752 23.0652 74.7176 22.1022 75.2022 21.2731C75.6869 20.4313 76.3502 19.7872 77.192 19.3407C78.0338 18.8943 78.9777 18.6711 80.0236 18.6711C81.0695 18.6711 82.0134 18.8943 82.8552 19.3407C83.697 19.7872 84.3602 20.4313 84.8449 21.2731C85.3296 22.1022 85.572 23.0652 85.572 24.1621C85.572 25.259 85.3232 26.2284 84.8258 27.0702C84.3411 27.8993 83.6715 28.537 82.8169 28.9834C81.9751 29.4298 81.0312 29.6531 79.9853 29.6531ZM79.9853 26.8215C80.6103 26.8215 81.1396 26.5919 81.5733 26.1327C82.0197 25.6735 82.2429 25.0167 82.2429 24.1621C82.2429 23.3075 82.0261 22.6506 81.5924 22.1915C81.1715 21.7323 80.6486 21.5027 80.0236 21.5027C79.3858 21.5027 78.8565 21.7323 78.4356 22.1915C78.0147 22.6379 77.8042 23.2948 77.8042 24.1621C77.8042 25.0167 78.0083 25.6735 78.4165 26.1327C78.8374 26.5919 79.3603 26.8215 79.9853 26.8215ZM90.7706 20.6035C91.1532 20.0167 91.6315 19.5576 92.2055 19.2259C92.7795 18.8816 93.4172 18.7094 94.1187 18.7094V22.1723H93.2195C92.4032 22.1723 91.791 22.3509 91.3828 22.708C90.9746 23.0524 90.7706 23.6646 90.7706 24.5447V29.5H87.4989V18.8242H90.7706V20.6035ZM111.752 16.0691V29.5H108.48V23.9708H103.391V29.5H100.12V16.0691H103.391V21.3305H108.48V16.0691H111.752ZM115.951 17.7145C115.377 17.7145 114.905 17.5487 114.535 17.217C114.178 16.8727 113.999 16.4518 113.999 15.9543C113.999 15.4441 114.178 15.0232 114.535 14.6916C114.905 14.3472 115.377 14.175 115.951 14.175C116.512 14.175 116.971 14.3472 117.328 14.6916C117.698 15.0232 117.883 15.4441 117.883 15.9543C117.883 16.4518 117.698 16.8727 117.328 17.217C116.971 17.5487 116.512 17.7145 115.951 17.7145ZM117.577 18.8242V29.5H114.305V18.8242H117.577ZM126.644 18.7094C127.894 18.7094 128.889 19.1175 129.629 19.9338C130.381 20.7374 130.757 21.8471 130.757 23.2629V29.5H127.505V23.7029C127.505 22.9886 127.32 22.4338 126.95 22.0384C126.58 21.643 126.083 21.4453 125.458 21.4453C124.833 21.4453 124.335 21.643 123.965 22.0384C123.596 22.4338 123.411 22.9886 123.411 23.7029V29.5H120.139V18.8242H123.411V20.24C123.742 19.768 124.189 19.3981 124.75 19.1303C125.311 18.8497 125.942 18.7094 126.644 18.7094ZM139.172 26.7258V29.5H137.508C136.322 29.5 135.397 29.213 134.734 28.639C134.07 28.0523 133.739 27.1021 133.739 25.7883V21.541H132.438V18.8242H133.739V16.2222H137.01V18.8242H139.153V21.541H137.01V25.8266C137.01 26.1455 137.087 26.3751 137.24 26.5154C137.393 26.6557 137.648 26.7258 138.005 26.7258H139.172ZM145.529 29.6531C144.598 29.6531 143.769 29.4936 143.042 29.1748C142.315 28.8559 141.741 28.4222 141.32 27.8738C140.899 27.3125 140.663 26.6875 140.612 25.9988H143.845C143.884 26.3687 144.056 26.6684 144.362 26.898C144.668 27.1276 145.044 27.2424 145.491 27.2424C145.899 27.2424 146.211 27.1659 146.428 27.0128C146.658 26.847 146.773 26.6365 146.773 26.3814C146.773 26.0753 146.613 25.8521 146.294 25.7118C145.975 25.5587 145.459 25.3929 144.745 25.2144C143.979 25.0358 143.342 24.8508 142.831 24.6595C142.321 24.4554 141.881 24.1429 141.511 23.722C141.141 23.2884 140.956 22.708 140.956 21.981C140.956 21.3688 141.122 20.8139 141.454 20.3165C141.798 19.8063 142.296 19.4045 142.946 19.1111C143.609 18.8178 144.394 18.6711 145.299 18.6711C146.639 18.6711 147.691 19.0027 148.456 19.666C149.234 20.3292 149.681 21.2093 149.796 22.3062H146.773C146.722 21.9364 146.556 21.643 146.275 21.4262C146.007 21.2093 145.65 21.1009 145.204 21.1009C144.821 21.1009 144.528 21.1774 144.324 21.3305C144.12 21.4708 144.018 21.6685 144.018 21.9236C144.018 22.2297 144.177 22.4593 144.496 22.6124C144.828 22.7654 145.338 22.9185 146.027 23.0715C146.817 23.2756 147.461 23.4797 147.959 23.6838C148.456 23.8751 148.89 24.194 149.26 24.6404C149.643 25.0741 149.84 25.6608 149.853 26.4006C149.853 27.0256 149.674 27.5868 149.317 28.0842C148.973 28.5689 148.469 28.9515 147.806 29.2321C147.155 29.5128 146.396 29.6531 145.529 29.6531Z" fill="black"/>
</svg>
