<svg width="200" height="42" viewBox="0 0 200 42" fill="none" xmlns="http://www.w3.org/2000/svg">
<path d="M199.499 19.0127V15.5747H195.153V10.2297L195.007 10.2739L190.925 11.5008L190.845 11.5249V15.5747H184.402V13.3188C184.402 12.2683 184.641 11.4644 185.112 10.9283C185.58 10.3985 186.25 10.1293 187.103 10.1293C187.717 10.1293 188.353 10.2713 188.992 10.5515L189.152 10.6217V7.00093L189.077 6.97374C188.48 6.76312 187.669 6.65698 186.663 6.65698C185.395 6.65698 184.244 6.92788 183.239 7.46495C182.234 8.00273 181.443 8.77052 180.89 9.74679C180.338 10.7219 180.058 11.848 180.058 13.0943V15.5747H177.031V19.0127H180.058V33.4963H184.402V19.0127H190.845V28.2169C190.845 32.0076 192.665 33.9287 196.254 33.9287C196.844 33.9287 197.465 33.8606 198.099 33.7275C198.744 33.5911 199.184 33.4547 199.442 33.3091L199.499 33.276V29.8061L199.323 29.921C199.087 30.0756 198.793 30.2016 198.449 30.2952C198.103 30.3907 197.815 30.4387 197.591 30.4387C196.75 30.4387 196.128 30.216 195.742 29.7768C195.352 29.3336 195.153 28.5582 195.153 27.4739V19.0127H199.499ZM167.33 30.439C165.753 30.439 164.51 29.9253 163.634 28.9136C162.752 27.8967 162.306 26.4469 162.306 24.605C162.306 22.7047 162.752 21.2173 163.634 20.1824C164.511 19.1544 165.742 18.6327 167.294 18.6327C168.801 18.6327 170 19.131 170.859 20.1146C171.722 21.1031 172.16 22.5787 172.16 24.5012C172.16 26.4474 171.748 27.9423 170.936 28.9422C170.129 29.9348 168.916 30.439 167.33 30.439ZM167.523 15.1429C164.515 15.1429 162.125 16.0088 160.422 17.7167C158.72 19.4248 157.856 21.7884 157.856 24.7428C157.856 27.5487 158.699 29.8057 160.361 31.45C162.023 33.095 164.285 33.9283 167.083 33.9283C169.999 33.9283 172.341 33.0504 174.044 31.3188C175.747 29.5889 176.609 27.2478 176.609 24.3624C176.609 21.5126 175.8 19.2388 174.203 17.6053C172.605 15.9712 170.357 15.1429 167.523 15.1429ZM150.852 15.1428C148.806 15.1428 147.113 15.6569 145.82 16.6708C144.519 17.6906 143.859 19.0283 143.859 20.6468C143.859 21.4881 144.002 22.2356 144.282 22.8693C144.564 23.5054 145 24.0652 145.58 24.5351C146.156 25.0013 147.044 25.4897 148.221 25.9863C149.21 26.3863 149.948 26.7248 150.417 26.9914C150.875 27.2526 151.2 27.5155 151.384 27.7713C151.562 28.0216 151.653 28.3641 151.653 28.7873C151.653 29.9912 150.735 30.577 148.846 30.577C148.146 30.577 147.347 30.4335 146.471 30.15C145.596 29.8671 144.777 29.4603 144.039 28.9386L143.859 28.8116V32.9202L143.925 32.9505C144.54 33.2292 145.315 33.4642 146.228 33.6493C147.14 33.8344 147.968 33.9287 148.688 33.9287C150.909 33.9287 152.697 33.4119 154.001 32.3922C155.315 31.3653 155.98 29.9961 155.98 28.3213C155.98 27.1134 155.622 26.0773 154.916 25.2419C154.214 24.4132 152.997 23.6525 151.299 22.98C149.947 22.4467 149.08 22.0039 148.723 21.6642C148.378 21.3359 148.203 20.8716 148.203 20.2837C148.203 19.7625 148.419 19.345 148.863 19.0068C149.31 18.6668 149.931 18.494 150.712 18.494C151.435 18.494 152.176 18.6063 152.912 18.8264C153.648 19.0465 154.295 19.3413 154.835 19.702L155.012 19.8211V15.9236L154.944 15.8947C154.446 15.6851 153.789 15.5056 152.992 15.36C152.198 15.2158 151.478 15.1428 150.852 15.1428ZM132.534 30.439C130.957 30.439 129.714 29.9253 128.838 28.9136C127.956 27.8967 127.51 26.4474 127.51 24.605C127.51 22.7047 127.957 21.2173 128.839 20.1824C129.715 19.1544 130.946 18.6327 132.499 18.6327C134.005 18.6327 135.204 19.131 136.063 20.1146C136.926 21.1031 137.364 22.5787 137.364 24.5012C137.364 26.4474 136.952 27.9423 136.14 28.9422C135.333 29.9348 134.12 30.439 132.534 30.439ZM132.728 15.1429C129.719 15.1429 127.329 16.0088 125.626 17.7167C123.924 19.4248 123.06 21.7884 123.06 24.7428C123.06 27.5499 123.903 29.8057 125.565 31.45C127.227 33.095 129.489 33.9283 132.288 33.9283C135.203 33.9283 137.546 33.0504 139.248 31.3188C140.951 29.5889 141.814 27.2478 141.814 24.3624C141.814 21.5126 141.004 19.2388 139.407 17.6053C137.808 15.9712 135.561 15.1429 132.728 15.1429ZM116.466 18.6782V15.5747H112.174V33.4959H116.466V24.3285C116.466 22.7696 116.825 21.4891 117.535 20.5218C118.236 19.5661 119.17 19.0817 120.311 19.0817C120.697 19.0817 121.131 19.1443 121.601 19.2682C122.066 19.3914 122.403 19.5249 122.602 19.6656L122.782 19.7939V15.5439L122.712 15.5146C122.313 15.3477 121.747 15.2636 121.032 15.2636C119.954 15.2636 118.989 15.604 118.162 16.2741C117.436 16.8632 116.912 17.6709 116.511 18.6782H116.466ZM104.489 15.1428C102.521 15.1428 100.765 15.5577 99.2707 16.3751C97.774 17.1944 96.6166 18.3643 95.829 19.8518C95.045 21.3359 94.647 23.0693 94.647 25.0022C94.647 26.6955 95.033 28.2495 95.7958 29.6189C96.5591 30.9906 97.6395 32.0638 99.007 32.8082C100.373 33.5516 101.951 33.9287 103.698 33.9287C105.738 33.9287 107.479 33.528 108.875 32.7382L108.931 32.7063V28.8442L108.751 28.9735C108.119 29.426 107.412 29.7872 106.652 30.0474C105.893 30.3075 105.202 30.4389 104.595 30.4389C102.911 30.4389 101.56 29.9212 100.579 28.901C99.5951 27.8791 99.0965 26.4444 99.0965 24.6389C99.0965 22.822 99.6165 21.3505 100.641 20.2646C101.663 19.1819 103.017 18.6328 104.666 18.6328C106.077 18.6328 107.451 19.102 108.752 20.0287L108.931 20.157V16.0876L108.873 16.0555C108.384 15.7865 107.717 15.5643 106.888 15.3957C106.063 15.2277 105.256 15.1428 104.489 15.1428ZM91.6915 15.5747H87.4001V33.4959H91.6915V15.5747ZM89.5896 7.94014C88.8833 7.94014 88.2673 8.17629 87.7612 8.64433C87.253 9.1138 86.9951 9.70476 86.9951 10.4021C86.9951 11.0886 87.2499 11.6687 87.7531 12.1256C88.2531 12.5811 88.871 12.8121 89.5896 12.8121C90.3078 12.8121 90.9282 12.5811 91.4342 12.1263C91.9436 11.6687 92.2018 11.0886 92.2018 10.4021C92.2018 9.72911 91.9506 9.14405 91.4552 8.66324C90.9604 8.18338 90.3326 7.94014 89.5896 7.94014ZM78.8825 14.2525V33.4958H83.262V8.48893H77.2008L69.4963 27.0632L62.0197 8.48893H55.7115V33.4958H59.827V14.2506H59.9685L67.8636 33.4958H70.9694L78.7413 14.2525H78.8825Z" fill="#706D6E"/>
<path d="M20.6869 19.9637H0.499512V0.132324H20.6869V19.9637Z" fill="#F1511B"/>
<path d="M42.9762 19.9637H22.7891V0.132324H42.9762V19.9637Z" fill="#80CC28"/>
<path d="M20.6864 41.8678H0.499512V22.0364H20.6864V41.8678Z" fill="#00ADEF"/>
<path d="M42.9762 41.8678H22.7891V22.0364H42.9762V41.8678Z" fill="#FBBC09"/>
</svg>
