<svg width="28" height="24" viewBox="0 0 28 24" fill="none" xmlns="http://www.w3.org/2000/svg">
<path d="M26 5.81625V2C26 1.46957 25.7893 0.960859 25.4142 0.585786C25.0391 0.210714 24.5304 0 24 0H2C1.46957 0 0.960859 0.210714 0.585786 0.585786C0.210714 0.960859 0 1.46957 0 2V18C0 18.5304 0.210714 19.0391 0.585786 19.4142C0.960859 19.7893 1.46957 20 2 20H17V23C16.9984 23.1763 17.0435 23.3499 17.1306 23.5032C17.2177 23.6564 17.3438 23.7839 17.4961 23.8728C17.6484 23.9616 17.8214 24.0086 17.9977 24.009C18.174 24.0094 18.3473 23.9632 18.5 23.875L21.5 22.1575L24.5 23.875C24.6527 23.9632 24.826 24.0094 25.0023 24.009C25.1786 24.0086 25.3516 23.9616 25.5039 23.8728C25.6562 23.7839 25.7823 23.6564 25.8694 23.5032C25.9565 23.3499 26.0016 23.1763 26 23V15.1838C26.6321 14.5784 27.1352 13.8513 27.4789 13.0464C27.8225 12.2414 27.9997 11.3752 27.9997 10.5C27.9997 9.62475 27.8225 8.75856 27.4789 7.95361C27.1352 7.14866 26.6321 6.42161 26 5.81625ZM13 13H6C5.73478 13 5.48043 12.8946 5.29289 12.7071C5.10536 12.5196 5 12.2652 5 12C5 11.7348 5.10536 11.4804 5.29289 11.2929C5.48043 11.1054 5.73478 11 6 11H13C13.2652 11 13.5196 11.1054 13.7071 11.2929C13.8946 11.4804 14 11.7348 14 12C14 12.2652 13.8946 12.5196 13.7071 12.7071C13.5196 12.8946 13.2652 13 13 13ZM13 9H6C5.73478 9 5.48043 8.89464 5.29289 8.70711C5.10536 8.51957 5 8.26522 5 8C5 7.73478 5.10536 7.48043 5.29289 7.29289C5.48043 7.10536 5.73478 7 6 7H13C13.2652 7 13.5196 7.10536 13.7071 7.29289C13.8946 7.48043 14 7.73478 14 8C14 8.26522 13.8946 8.51957 13.7071 8.70711C13.5196 8.89464 13.2652 9 13 9ZM24 21.2763L22 20.1313C21.8489 20.0449 21.6778 19.9994 21.5037 19.9994C21.3297 19.9994 21.1586 20.0449 21.0075 20.1313L19.0075 21.2763V16.5C19.7995 16.8309 20.6492 17.0013 21.5075 17.0013C22.3658 17.0013 23.2155 16.8309 24.0075 16.5L24 21.2763ZM21.5 15C20.61 15 19.74 14.7361 18.9999 14.2416C18.2599 13.7471 17.6831 13.0443 17.3425 12.2221C17.0019 11.3998 16.9128 10.495 17.0865 9.62209C17.2601 8.74918 17.6887 7.94736 18.318 7.31802C18.9474 6.68868 19.7492 6.2601 20.6221 6.08647C21.495 5.91283 22.3998 6.00195 23.2221 6.34254C24.0443 6.68314 24.7471 7.25991 25.2416 7.99993C25.7361 8.73995 26 9.60998 26 10.5C26 11.0909 25.8836 11.6761 25.6575 12.2221C25.4313 12.768 25.0998 13.2641 24.682 13.682C24.2641 14.0998 23.768 14.4313 23.2221 14.6575C22.6761 14.8836 22.0909 15 21.5 15Z" fill="#FF6C0A"/>
</svg>
