<svg width="34" height="34" viewBox="0 0 34 34" fill="none" xmlns="http://www.w3.org/2000/svg">
<g id="server-02">
<path id="Icon" d="M8.50004 25.5002H13.246M8.50004 8.50016H13.246M25.4664 25.5002H25.4806M25.4664 8.50016H25.4806M8.50004 31.1668H25.5C27.4836 31.1668 28.4753 31.1668 29.2329 30.7808C29.8993 30.4413 30.4411 29.8995 30.7807 29.233C31.1667 28.4754 31.1667 27.4837 31.1667 25.5002C31.1667 23.5166 31.1667 22.5249 30.7807 21.7673C30.4411 21.1009 29.8993 20.5591 29.2329 20.2195C28.4753 19.8335 27.4836 19.8335 25.5 19.8335H8.50004C6.51652 19.8335 5.52476 19.8335 4.76716 20.2195C4.10075 20.5591 3.55894 21.1009 3.21939 21.7673C2.83337 22.5249 2.83337 23.5166 2.83337 25.5002C2.83337 27.4837 2.83337 28.4754 3.21939 29.233C3.55894 29.8995 4.10075 30.4413 4.76716 30.7808C5.52476 31.1668 6.51652 31.1668 8.50004 31.1668ZM8.50004 14.1668H25.5C27.4836 14.1668 28.4753 14.1668 29.2329 13.7808C29.8993 13.4413 30.4411 12.8995 30.7807 12.233C31.1667 11.4754 31.1667 10.4837 31.1667 8.50016C31.1667 6.51664 31.1667 5.52488 30.7807 4.76728C30.4411 4.10087 29.8993 3.55907 29.2329 3.21951C28.4753 2.8335 27.4836 2.8335 25.5 2.8335H8.50004C6.51652 2.8335 5.52476 2.8335 4.76716 3.21951C4.10075 3.55907 3.55894 4.10087 3.21939 4.76728C2.83337 5.52488 2.83337 6.51664 2.83337 8.50016C2.83337 10.4837 2.83337 11.4754 3.21939 12.233C3.55894 12.8995 4.10075 13.4413 4.76716 13.7808C5.52476 14.1668 6.51652 14.1668 8.50004 14.1668Z" stroke="#873C09" stroke-width="2" stroke-linecap="round" stroke-linejoin="round"/>
</g>
</svg>
