<svg width="34" height="34" viewBox="0 0 34 34" fill="none" xmlns="http://www.w3.org/2000/svg">
<g id="server-02">
<path id="Icon" d="M8.49992 25.5002H13.2459M8.49992 8.50016H13.2459M25.4663 25.5002H25.4805M25.4663 8.50016H25.4805M8.49992 31.1668H25.4999C27.4834 31.1668 28.4752 31.1668 29.2328 30.7808C29.8992 30.4413 30.441 29.8995 30.7806 29.233C31.1666 28.4754 31.1666 27.4837 31.1666 25.5002C31.1666 23.5166 31.1666 22.5249 30.7806 21.7673C30.441 21.1009 29.8992 20.5591 29.2328 20.2195C28.4752 19.8335 27.4834 19.8335 25.4999 19.8335H8.49992C6.5164 19.8335 5.52464 19.8335 4.76704 20.2195C4.10063 20.5591 3.55882 21.1009 3.21927 21.7673C2.83325 22.5249 2.83325 23.5166 2.83325 25.5002C2.83325 27.4837 2.83325 28.4754 3.21927 29.233C3.55882 29.8995 4.10063 30.4413 4.76704 30.7808C5.52464 31.1668 6.5164 31.1668 8.49992 31.1668ZM8.49992 14.1668H25.4999C27.4834 14.1668 28.4752 14.1668 29.2328 13.7808C29.8992 13.4413 30.441 12.8995 30.7806 12.233C31.1666 11.4754 31.1666 10.4837 31.1666 8.50016C31.1666 6.51664 31.1666 5.52488 30.7806 4.76728C30.441 4.10087 29.8992 3.55907 29.2328 3.21951C28.4752 2.8335 27.4834 2.8335 25.4999 2.8335H8.49992C6.5164 2.8335 5.52464 2.8335 4.76704 3.21951C4.10063 3.55907 3.55882 4.10087 3.21927 4.76728C2.83325 5.52488 2.83325 6.51664 2.83325 8.50016C2.83325 10.4837 2.83325 11.4754 3.21927 12.233C3.55882 12.8995 4.10063 13.4413 4.76704 13.7808C5.52464 14.1668 6.5164 14.1668 8.49992 14.1668Z" stroke="#873C09" stroke-width="2" stroke-linecap="round" stroke-linejoin="round"/>
</g>
</svg>
