<svg width="24" height="24" viewBox="0 0 24 24" fill="none" xmlns="http://www.w3.org/2000/svg">
<g id="Icons/settings">
<path id="Icon" d="M14.8652 4.05029H5.5C4.11929 4.05029 3 5.16958 3 6.55029C3 7.931 4.11929 9.05029 5.5 9.05029H14.8652M9.24707 15.0379H18.5449C19.9256 15.0379 21.0449 16.1571 21.0449 17.5379C21.0449 18.9186 19.9256 20.0379 18.5449 20.0379H9.24707M21.0449 6.5293C21.0449 8.46229 19.4779 10.0293 17.5449 10.0293C15.6119 10.0293 14.0449 8.46229 14.0449 6.5293C14.0449 4.5963 15.6119 3.0293 17.5449 3.0293C19.4779 3.0293 21.0449 4.5963 21.0449 6.5293ZM3 17.5168C3 19.4498 4.567 21.0168 6.5 21.0168C8.433 21.0168 10 19.4498 10 17.5168C10 15.5839 8.433 14.0168 6.5 14.0168C4.567 14.0168 3 15.5839 3 17.5168Z" stroke="#0050B8" stroke-width="1.5" stroke-linecap="round" stroke-linejoin="round"/>
</g>
</svg>
