<svg width="60" height="60" viewBox="0 0 60 60" fill="none" xmlns="http://www.w3.org/2000/svg">
<g clip-path="url(#clip0_4822_1099)">
<rect width="60" height="60" fill="#006AF5"/>
<path d="M45 13.5H15C14.2044 13.5 13.4413 13.8161 12.8787 14.3787C12.3161 14.9413 12 15.7044 12 16.5V27C12 36.885 16.785 42.8756 20.7994 46.1606C25.1231 49.6969 29.4244 50.8969 29.6119 50.9475C29.8697 51.0176 30.1416 51.0176 30.3994 50.9475C30.5869 50.8969 34.8825 49.6969 39.2119 46.1606C43.215 42.8756 48 36.885 48 27V16.5C48 15.7044 47.6839 14.9413 47.1213 14.3787C46.5587 13.8161 45.7956 13.5 45 13.5ZM45 27C45 33.9506 42.4387 39.5925 37.3875 43.7662C35.1886 45.577 32.6879 46.986 30 47.9287C27.3473 47.0024 24.8774 45.6184 22.7025 43.8394C17.5913 39.6581 15 33.9937 15 27V16.5H45V27ZM21.4387 32.5613C21.1573 32.2798 20.9992 31.898 20.9992 31.5C20.9992 31.102 21.1573 30.7202 21.4387 30.4387C21.7202 30.1573 22.102 29.9992 22.5 29.9992C22.898 29.9992 23.2798 30.1573 23.5613 30.4387L27 33.8794L36.4387 24.4387C36.5781 24.2994 36.7436 24.1888 36.9257 24.1134C37.1077 24.038 37.3029 23.9992 37.5 23.9992C37.6971 23.9992 37.8923 24.038 38.0743 24.1134C38.2564 24.1888 38.4219 24.2994 38.5613 24.4387C38.7006 24.5781 38.8112 24.7436 38.8866 24.9257C38.962 25.1077 39.0008 25.3029 39.0008 25.5C39.0008 25.6971 38.962 25.8923 38.8866 26.0743C38.8112 26.2564 38.7006 26.4219 38.5613 26.5613L28.0613 37.0613C27.9219 37.2007 27.7565 37.3114 27.5744 37.3868C27.3923 37.4623 27.1971 37.5012 27 37.5012C26.8029 37.5012 26.6077 37.4623 26.4256 37.3868C26.2435 37.3114 26.0781 37.2007 25.9387 37.0613L21.4387 32.5613Z" fill="white"/>
</g>
<defs>
<clipPath id="clip0_4822_1099">
<rect width="60" height="60" rx="4" fill="white"/>
</clipPath>
</defs>
</svg>
