<svg width="20" height="20" viewBox="0 0 20 20" fill="none" xmlns="http://www.w3.org/2000/svg">
<g id="ShieldCheck">
<path id="Vector" d="M15.9998 3.3999H3.9998C3.68155 3.3999 3.37632 3.52633 3.15128 3.75137C2.92623 3.97642 2.7998 4.28164 2.7998 4.5999V8.7999C2.7998 12.7539 4.7138 15.1502 6.31956 16.4642C8.04906 17.8787 9.76956 18.3587 9.84456 18.3789C9.94768 18.407 10.0564 18.407 10.1596 18.3789C10.2346 18.3587 11.9528 17.8787 13.6846 16.4642C15.2858 15.1502 17.1998 12.7539 17.1998 8.7999V4.5999C17.1998 4.28164 17.0734 3.97642 16.8483 3.75137C16.6233 3.52633 16.3181 3.3999 15.9998 3.3999ZM15.9998 8.7999C15.9998 11.5802 14.9753 13.8369 12.9548 15.5064C12.0753 16.2307 11.075 16.7943 9.99981 17.1714C8.93871 16.8009 7.95077 16.2473 7.08081 15.5357C5.03631 13.8632 3.9998 11.5974 3.9998 8.7999V4.5999H15.9998V8.7999ZM6.5753 11.0244C6.46272 10.9118 6.39947 10.7591 6.39947 10.5999C6.39947 10.4407 6.46272 10.288 6.5753 10.1754C6.68789 10.0628 6.84059 9.99957 6.99981 9.99957C7.15902 9.99957 7.31172 10.0628 7.42431 10.1754L8.79981 11.5517L12.5753 7.7754C12.6311 7.71966 12.6972 7.67544 12.7701 7.64527C12.8429 7.6151 12.921 7.59957 12.9998 7.59957C13.0786 7.59957 13.1567 7.6151 13.2295 7.64527C13.3024 7.67544 13.3686 7.71966 13.4243 7.7754C13.4801 7.83115 13.5243 7.89733 13.5544 7.97016C13.5846 8.043 13.6001 8.12107 13.6001 8.1999C13.6001 8.27874 13.5846 8.3568 13.5544 8.42964C13.5243 8.50248 13.4801 8.56866 13.4243 8.6244L9.22431 12.8244C9.16858 12.8802 9.10241 12.9244 9.02957 12.9546C8.95673 12.9848 8.87865 13.0004 8.79981 13.0004C8.72096 13.0004 8.64288 12.9848 8.57004 12.9546C8.4972 12.9244 8.43103 12.8802 8.37531 12.8244L6.5753 11.0244Z" fill="#39393D"/>
</g>
</svg>
