<svg width="19" height="14" viewBox="0 0 19 14" fill="none" xmlns="http://www.w3.org/2000/svg">
<path d="M17.825 1.78623L6.66931 12.9419C6.57215 13.0394 6.4567 13.1168 6.32957 13.1696C6.20245 13.2223 6.06616 13.2495 5.92851 13.2495C5.79086 13.2495 5.65457 13.2223 5.52744 13.1696C5.40032 13.1168 5.28486 13.0394 5.1877 12.9419L0.307096 8.0613C0.209812 7.96402 0.132642 7.84852 0.0799923 7.72141C0.0273426 7.59431 0.000244142 7.45807 0.000244141 7.32049C0.000244139 7.18291 0.0273426 7.04668 0.0799923 6.91957C0.132642 6.79246 0.209812 6.67697 0.307096 6.57969C0.40438 6.4824 0.519873 6.40523 0.646981 6.35258C0.774089 6.29993 0.910322 6.27283 1.0479 6.27283C1.18548 6.27283 1.32172 6.29993 1.44882 6.35258C1.57593 6.40523 1.69142 6.4824 1.78871 6.57969L5.92938 10.7204L16.3451 0.306364C16.5416 0.109889 16.8081 -0.000488281 17.0859 -0.000488281C17.3638 -0.000488281 17.6303 0.109889 17.8267 0.306364C18.0232 0.502838 18.1336 0.769314 18.1336 1.04717C18.1336 1.32503 18.0232 1.5915 17.8267 1.78798L17.825 1.78623Z" fill="#00D15A"/>
</svg>
