<svg width="34" height="34" viewBox="0 0 34 34" fill="none" xmlns="http://www.w3.org/2000/svg">
<path d="M19.4082 15.8011C19.8126 14.4181 20.0148 13.7267 20.2112 13.4434C21.0563 12.2241 22.859 12.2241 23.7041 13.4434C23.9005 13.7267 24.1027 14.4181 24.5071 15.8011C24.6658 16.3438 24.7452 16.6151 24.8513 16.8595C25.2804 17.8474 26.0686 18.6356 27.0565 19.0646C27.3009 19.1708 27.5722 19.2501 28.1149 19.4089C29.4978 19.8133 30.1893 20.0155 30.4726 20.2118C31.6919 21.057 31.6919 22.8597 30.4726 23.7048C30.1893 23.9012 29.4978 24.1034 28.1149 24.5078C27.5722 24.6665 27.3009 24.7459 27.0565 24.852C26.0686 25.2811 25.2804 26.0693 24.8513 27.0572C24.7452 27.3016 24.6658 27.5729 24.5071 28.1156C24.1027 29.4985 23.9005 30.19 23.7041 30.4733C22.859 31.6925 21.0563 31.6925 20.2112 30.4733C20.0148 30.19 19.8126 29.4985 19.4082 28.1156C19.2495 27.5729 19.1701 27.3016 19.064 27.0572C18.6349 26.0693 17.8467 25.2811 16.8588 24.852C16.6144 24.7459 16.3431 24.6665 15.8004 24.5078C14.4175 24.1034 13.726 23.9012 13.4427 23.7048C12.2234 22.8597 12.2234 21.057 13.4427 20.2118C13.726 20.0155 14.4175 19.8133 15.8004 19.4089C16.3431 19.2501 16.6144 19.1708 16.8588 19.0646C17.8467 18.6356 18.6349 17.8474 19.064 16.8595C19.1701 16.6151 19.2495 16.3438 19.4082 15.8011Z" stroke="#7416A7" stroke-width="1.75" stroke-linecap="round" stroke-linejoin="round"/>
<path d="M7.98423 3.65025C8.05803 3.3979 8.09493 3.27172 8.12275 3.21567C8.38311 2.69113 9.13134 2.69113 9.3917 3.21567C9.41952 3.27172 9.45642 3.3979 9.53022 3.65025C9.64614 4.04665 9.70411 4.24484 9.77137 4.42734C10.3451 5.98389 11.5721 7.21086 13.1286 7.78458C13.3111 7.85185 13.5093 7.90981 13.9057 8.02573C14.1581 8.09953 14.2842 8.13643 14.3403 8.16425C14.8648 8.42461 14.8648 9.17284 14.3403 9.4332C14.2842 9.46102 14.1581 9.49792 13.9057 9.57172C13.5093 9.68765 13.3111 9.74561 13.1286 9.81287C11.5721 10.3866 10.3451 11.6136 9.77137 13.1701C9.70411 13.3526 9.64614 13.5508 9.53022 13.9472C9.45642 14.1996 9.41952 14.3257 9.3917 14.3818C9.13134 14.9063 8.38311 14.9063 8.12275 14.3818C8.09493 14.3257 8.05803 14.1996 7.98423 13.9472C7.86831 13.5508 7.81034 13.3526 7.74308 13.1701C7.16936 11.6136 5.94238 10.3866 4.38584 9.81287C4.20334 9.74561 4.00514 9.68765 3.60875 9.57172C3.35639 9.49792 3.23022 9.46102 3.17417 9.4332C2.64963 9.17284 2.64963 8.42461 3.17417 8.16425C3.23022 8.13643 3.35639 8.09953 3.60875 8.02573C4.00514 7.90981 4.20334 7.85185 4.38584 7.78458C5.94238 7.21086 7.16936 5.98389 7.74308 4.42734C7.81034 4.24484 7.86831 4.04665 7.98423 3.65025Z" stroke="#7416A7" stroke-width="1.75" stroke-linecap="round" stroke-linejoin="round"/>
</svg>
