<svg width="24" height="24" viewBox="0 0 24 24" fill="none" xmlns="http://www.w3.org/2000/svg">
<path d="M13.6999 11.1537C13.9854 10.1775 14.1281 9.68942 14.2667 9.48947C14.8632 8.62879 16.1358 8.62879 16.7323 9.48947C16.8709 9.68942 17.0137 10.1775 17.2991 11.1537C17.4112 11.5368 17.4672 11.7283 17.5421 11.9008C17.845 12.5982 18.4013 13.1545 19.0987 13.4574C19.2712 13.5323 19.4627 13.5883 19.8458 13.7004C20.822 13.9859 21.3101 14.1286 21.51 14.2672C22.3707 14.8637 22.3707 16.1363 21.51 16.7328C21.3101 16.8714 20.822 17.0142 19.8458 17.2996C19.4627 17.4117 19.2712 17.4677 19.0987 17.5426C18.4013 17.8455 17.845 18.4018 17.5421 19.0992C17.4672 19.2717 17.4112 19.4632 17.2991 19.8463C17.0137 20.8225 16.8709 21.3106 16.7323 21.5105C16.1358 22.3712 14.8632 22.3712 14.2667 21.5105C14.1281 21.3106 13.9854 20.8225 13.6999 19.8463C13.5878 19.4632 13.5318 19.2717 13.4569 19.0992C13.154 18.4018 12.5977 17.8455 11.9003 17.5426C11.7278 17.4677 11.5363 17.4117 11.1532 17.2996C10.177 17.0142 9.68894 16.8714 9.48898 16.7328C8.62831 16.1363 8.62831 14.8637 9.48898 14.2672C9.68894 14.1286 10.177 13.9859 11.1532 13.7004C11.5363 13.5883 11.7278 13.5323 11.9003 13.4574C12.5977 13.1545 13.154 12.5982 13.4569 11.9008C13.5318 11.7283 13.5879 11.5368 13.6999 11.1537Z" stroke="#0050B8" stroke-width="1.23529" stroke-linecap="round" stroke-linejoin="round"/>
<path d="M5.63593 2.57665C5.68802 2.39852 5.71407 2.30945 5.73371 2.26989C5.91749 1.89962 6.44565 1.89962 6.62943 2.26989C6.64907 2.30945 6.67512 2.39852 6.72721 2.57665C6.80904 2.85646 6.84996 2.99636 6.89744 3.12518C7.30241 4.22392 8.16852 5.09002 9.26726 5.495C9.39608 5.54248 9.53598 5.58339 9.81579 5.66522C9.99392 5.71732 10.083 5.74337 10.1226 5.763C10.4928 5.94679 10.4928 6.47495 10.1226 6.65873C10.083 6.67837 9.99392 6.70442 9.81579 6.75651C9.53598 6.83834 9.39608 6.87925 9.26726 6.92673C8.16852 7.33171 7.30241 8.19781 6.89744 9.29655C6.84996 9.42537 6.80904 9.56528 6.72721 9.84508C6.67512 10.0232 6.64907 10.1123 6.62943 10.1518C6.44565 10.5221 5.91749 10.5221 5.73371 10.1518C5.71407 10.1123 5.68802 10.0232 5.63593 9.84508C5.5541 9.56528 5.51318 9.42537 5.4657 9.29655C5.06073 8.19781 4.19462 7.33171 3.09588 6.92673C2.96706 6.87925 2.82716 6.83834 2.54735 6.75651C2.36922 6.70442 2.28015 6.67837 2.24059 6.65873C1.87032 6.47495 1.87032 5.94679 2.24059 5.763C2.28015 5.74337 2.36922 5.71732 2.54735 5.66522C2.82716 5.58339 2.96706 5.54248 3.09588 5.495C4.19462 5.09002 5.06073 4.22392 5.4657 3.12518C5.51318 2.99636 5.5541 2.85646 5.63593 2.57665Z" stroke="#0050B8" stroke-width="1.23529" stroke-linecap="round" stroke-linejoin="round"/>
</svg>
