<svg width="34" height="34" viewBox="0 0 34 34" fill="none" xmlns="http://www.w3.org/2000/svg">
<path d="M23.1932 10.8042C22.8393 8.90151 21.9724 7.13163 20.6862 5.6856C19.4 4.23956 17.7433 3.17229 15.8948 2.59898C14.0464 2.02567 12.0765 1.96811 10.1978 2.4325C8.319 2.89689 6.60277 3.8656 5.2343 5.23406C3.86584 6.60252 2.89714 8.31875 2.43275 10.1975C1.96835 12.0763 2.02592 14.0462 2.59923 15.8946C3.17253 17.743 4.23981 19.3998 5.68584 20.686C7.13188 21.9722 8.90175 22.839 10.8044 23.1929C11.1583 25.0956 12.0251 26.8655 13.3114 28.3115C14.5976 29.7575 16.2543 30.8248 18.1027 31.3981C19.9512 31.9714 21.9211 32.029 23.7998 31.5646C25.6786 31.1002 27.3948 30.1315 28.7633 28.763C30.1317 27.3946 31.1004 25.6783 31.5648 23.7996C32.0292 21.9208 31.9717 19.9509 31.3983 18.1025C30.825 16.2541 29.7578 14.5973 28.3117 13.3111C26.8657 12.0249 25.0958 11.1581 23.1932 10.8042ZM29.7501 21.2499C29.7501 21.4517 29.7408 21.6483 29.7262 21.8489L23.0856 15.2082C23.258 14.4894 23.355 13.7545 23.3751 13.0155C25.2026 13.4828 26.8219 14.5465 27.9766 16.038C29.1313 17.5295 29.7554 19.3636 29.7501 21.2499ZM19.4704 20.9723L26.4577 27.9609C25.8033 28.4697 25.078 28.88 24.3048 29.1788L17.4171 22.2911C18.1497 21.9313 18.8386 21.4888 19.4704 20.9723ZM20.9725 19.4702C21.4889 18.8392 21.9314 18.1512 22.2914 17.4196L29.179 24.3046C28.88 25.0768 28.4697 25.8012 27.9611 26.4548L20.9725 19.4702ZM4.25012 12.7499C4.25012 11.0687 4.74863 9.42534 5.68263 8.02752C6.61662 6.62971 7.94414 5.54024 9.49731 4.8969C11.0505 4.25355 12.7595 4.08522 14.4084 4.4132C16.0572 4.74117 17.5718 5.55072 18.7605 6.73946C19.9493 7.92821 20.7588 9.44277 21.0868 11.0916C21.4148 12.7404 21.2464 14.4495 20.6031 16.0027C19.9597 17.5559 18.8703 18.8834 17.4725 19.8174C16.0746 20.7514 14.4313 21.2499 12.7501 21.2499C10.4965 21.2474 8.33595 20.3511 6.74243 18.7576C5.1489 17.164 4.25258 15.0035 4.25012 12.7499ZM13.0157 23.3749C13.754 23.3569 14.4885 23.262 15.2071 23.092L21.8478 29.7326C21.6499 29.7472 21.4493 29.7565 21.2488 29.7565C19.3619 29.7611 17.5274 29.1359 16.036 27.9799C14.5447 26.824 13.4818 25.2033 13.0157 23.3749Z" fill="#008B3C"/>
</svg>
