<svg width="94" height="94" viewBox="0 0 94 94" fill="none" xmlns="http://www.w3.org/2000/svg">
<circle cx="47" cy="47" r="47" fill="#23A26D" fill-opacity="0.12"/>
<path d="M46.1602 24.6182C33.8283 24.6182 23.7793 34.6672 23.7793 46.9991C23.7793 59.331 33.8283 69.3801 46.1602 69.3801C58.4921 69.3801 68.5412 59.331 68.5412 46.9991C68.5412 34.6672 58.4921 24.6182 46.1602 24.6182ZM56.8583 41.8515L44.1683 54.5415C43.855 54.8548 43.4298 55.0339 42.9822 55.0339C42.5345 55.0339 42.1093 54.8548 41.796 54.5415L35.4622 48.2077C34.8131 47.5586 34.8131 46.4844 35.4622 45.8353C36.1112 45.1863 37.1855 45.1863 37.8345 45.8353L42.9822 50.9829L54.486 39.4791C55.135 38.8301 56.2093 38.8301 56.8583 39.4791C57.5074 40.1282 57.5074 41.1801 56.8583 41.8515Z" fill="#23A26D"/>
</svg>
