<svg width="108" height="30" viewBox="0 0 108 30" fill="none" xmlns="http://www.w3.org/2000/svg">
<g id="Tcs logo">
<g id="Group">
<path id="Vector" d="M55.6045 12.3532H57.8638V8.42993H59.4666V6.84424H54.0017V8.42993H55.6045V12.3532Z" fill="#8D8D8F"/>
<path id="Vector_2" d="M61.1313 12.3532L62.2829 9.05874L63.4328 12.3532H65.643L63.4767 6.84424H61.0874L58.9229 12.3532H61.1313Z" fill="#8D8D8F"/>
<path id="Vector_3" d="M66.7039 12.3532H68.9632V8.42993H70.566V6.84424H65.1011V8.42993H66.7039V12.3532Z" fill="#8D8D8F"/>
<path id="Vector_4" d="M72.2316 12.3532L73.3832 9.05874L74.5331 12.3532H76.7433L74.5788 6.84424H72.1877L70.0232 12.3532H72.2316Z" fill="#8D8D8F"/>
<path id="Vector_5" d="M93.915 16.2918C94.1941 16.9155 94.5627 17.5904 94.9296 18.1919L96.4078 20.6149H97.4786V15.106H96.5219V17.0283C96.5219 17.8707 96.5412 18.5798 96.6149 19.3111L96.5956 19.3162C96.3341 18.7182 96.0058 18.0774 95.6319 17.4708L94.1695 15.106H92.988V20.6149H93.943V18.6447C93.943 17.7408 93.929 17.0129 93.8886 16.2969L93.915 16.2918Z" fill="#8D8D8F"/>
<path id="Vector_6" d="M88.7835 19.0582H90.5812L91.0938 20.6149H92.2033L90.3652 15.106H89.0504L87.2334 20.6149H88.3025L88.7835 19.0582ZM89.3892 16.9377C89.4892 16.6096 89.5753 16.2286 89.6578 15.9056H89.6753C89.7613 16.2252 89.8544 16.6011 89.9615 16.9411L90.4074 18.2996H88.9485L89.3892 16.9377Z" fill="#8D8D8F"/>
<path id="Vector_7" d="M71.9339 19.8679C71.4073 19.8679 70.8999 19.7039 70.5664 19.5159L70.3364 20.3498C70.6454 20.5343 71.2668 20.7018 71.8655 20.7018C73.3261 20.7018 74.0125 19.9328 74.0125 19.046C74.0125 18.2549 73.5402 17.773 72.5572 17.4091C71.8023 17.1288 71.474 16.9289 71.474 16.5069C71.474 16.1822 71.7531 15.8439 72.4097 15.8439C72.9416 15.8439 73.3366 16.0011 73.5402 16.1053L73.7878 15.2937C73.4928 15.1484 73.0434 15.022 72.4308 15.022C71.2036 15.022 70.4277 15.702 70.4277 16.6042C70.4277 17.3937 71.0246 17.8824 71.9603 18.2053C72.6748 18.4582 72.9627 18.7043 72.9627 19.1195C72.9627 19.5672 72.5923 19.8679 71.9339 19.8679Z" fill="#8D8D8F"/>
<path id="Vector_8" d="M57.0749 15.8509C57.5366 15.8509 57.914 15.9501 58.1773 16.0662L58.402 15.2649C58.1914 15.1538 57.7121 15.0205 57.031 15.0205C55.3018 15.0205 54.001 16.1141 54.001 17.9253C54.001 19.6016 55.0947 20.702 56.8906 20.702C57.5752 20.702 58.1141 20.5704 58.3582 20.4508L58.1879 19.658C57.9158 19.7776 57.4786 19.8579 57.0591 19.8579C55.8144 19.8579 55.0894 19.089 55.0894 17.8741C55.0894 16.5515 55.9198 15.8509 57.0749 15.8509Z" fill="#8D8D8F"/>
<path id="Vector_9" d="M85.9711 20.6149V15.9518H87.602V15.106H83.3203V15.9518H84.9371V20.6149H85.9711Z" fill="#8D8D8F"/>
<path id="Vector_10" d="M106.634 15.106L105.953 16.5174C105.76 16.9172 105.604 17.2589 105.463 17.6109H105.446C105.291 17.2384 105.144 16.924 104.952 16.5191L104.278 15.106H103.095L104.886 18.3218V20.6149H105.92V18.2944L107.8 15.1077H106.634V15.106Z" fill="#8D8D8F"/>
<path id="Vector_11" d="M61.3991 15.0171C59.8015 15.0171 58.7043 16.2115 58.7043 17.9031C58.7043 19.5162 59.7155 20.7071 61.3166 20.7071H61.3253C62.8754 20.7071 64.0253 19.6511 64.0253 17.8057C64.0218 16.2303 63.0492 15.0171 61.3991 15.0171ZM61.3587 19.9006H61.3499C60.3616 19.9006 59.784 18.9745 59.7875 17.8792C59.7857 16.7805 60.33 15.8219 61.3622 15.8219C62.3944 15.8219 62.9246 16.8044 62.9246 17.8433C62.9228 18.995 62.3576 19.9006 61.3587 19.9006Z" fill="#8D8D8F"/>
<path id="Vector_12" d="M101.442 15.8509C101.904 15.8509 102.281 15.9501 102.545 16.0662L102.769 15.2649C102.559 15.1538 102.079 15.0205 101.398 15.0205C99.669 15.0205 98.3682 16.1141 98.3682 17.9253C98.3682 19.6016 99.4619 20.702 101.258 20.702C101.942 20.702 102.481 20.5721 102.725 20.4508L102.555 19.658C102.283 19.7776 101.846 19.8579 101.426 19.8579C100.182 19.8579 99.4566 19.089 99.4566 17.8741C99.4566 16.5515 100.287 15.8509 101.442 15.8509Z" fill="#8D8D8F"/>
<path id="Vector_13" d="M81.5684 15.106H80.5344V20.6149H83.8962V19.7708H81.5684V15.106Z" fill="#8D8D8F"/>
<path id="Vector_14" d="M79.3569 18.2532V15.1074H78.3229V18.3198C78.3229 19.3997 77.8753 19.897 77.1309 19.897C76.4305 19.897 75.9705 19.3963 75.9705 18.3198V15.1074H74.9365V18.26C74.9365 19.9927 75.7879 20.7086 77.0923 20.7086C78.4598 20.7069 79.3569 19.9499 79.3569 18.2532Z" fill="#8D8D8F"/>
<path id="Vector_15" d="M69.3993 15.106H68.4425V17.0283C68.4425 17.8707 68.4619 18.5798 68.5356 19.3111L68.5163 19.3162C68.2547 18.7182 67.9264 18.0774 67.5525 17.4708L66.0902 15.106H64.9087V20.6149H65.8654V18.6447C65.8654 17.7408 65.8514 17.0129 65.811 16.2986L65.8374 16.2935C66.1165 16.9172 66.4851 17.5921 66.852 18.1936L68.3302 20.6166H69.4011V15.106H69.3993Z" fill="#8D8D8F"/>
<path id="Vector_16" d="M73.8231 23.3691H72.7891V28.8781H73.8231V23.3691Z" fill="#8D8D8F"/>
<path id="Vector_17" d="M65.6808 26.2945V26.2723C66.2092 26.0894 66.7008 25.611 66.7008 24.907C66.7008 24.4388 66.5252 24.0595 66.218 23.81C65.8388 23.5024 65.1858 23.3691 64.4853 23.3691C63.7849 23.3691 63.3214 23.417 62.9299 23.487V28.8781H63.9481V26.6311H64.4642C65.0471 26.6448 65.3139 26.8754 65.4754 27.588C65.6317 28.268 65.7668 28.7191 65.8529 28.8781H66.9062C66.7938 28.6645 66.6411 28.0374 66.4638 27.3539C66.3233 26.8225 66.0881 26.4448 65.6808 26.2945ZM64.5555 25.898H63.9481V24.1705C64.0517 24.1449 64.2606 24.121 64.5854 24.121C65.249 24.1227 65.6791 24.4012 65.6791 24.9976C65.6791 25.5409 65.2507 25.898 64.5555 25.898Z" fill="#8D8D8F"/>
<path id="Vector_18" d="M70.2551 25.888C70.0357 26.5562 69.8303 27.2294 69.6793 27.8787H69.6617C69.5143 27.2123 69.3212 26.5681 69.107 25.8727L68.3346 23.3677H67.2075L69.0385 28.8766H70.2235L72.1791 23.3677H71.0784L70.2551 25.888Z" fill="#8D8D8F"/>
<path id="Vector_19" d="M80.9771 26.4329H83.1101V25.6127H80.9771V24.1962H83.2365V23.3691H79.9431V28.8764H83.3611V28.0493H80.9771V26.4329Z" fill="#8D8D8F"/>
<path id="Vector_20" d="M77.7853 24.1127C78.247 24.1127 78.6245 24.2118 78.8878 24.328L79.1125 23.5266C78.9018 23.4155 78.4226 23.2822 77.7414 23.2822C76.0123 23.2822 74.7114 24.3758 74.7114 26.1871C74.7114 27.8633 75.8051 28.9637 77.601 28.9637C78.2857 28.9637 78.8246 28.8339 79.0686 28.7125L78.8983 27.9197C78.6245 28.0393 78.1891 28.1196 77.7695 28.1196C76.5249 28.1196 75.7998 27.3507 75.7998 26.1358C75.7998 24.8132 76.6302 24.1127 77.7853 24.1127Z" fill="#8D8D8F"/>
<path id="Vector_21" d="M56.2217 25.6708C55.4651 25.3905 55.1386 25.1906 55.1386 24.7686C55.1386 24.4439 55.4177 24.1056 56.0725 24.1056C56.6045 24.1056 56.9994 24.2628 57.2031 24.367L57.4506 23.5554C57.1557 23.4101 56.7063 23.2837 56.0936 23.2837C54.8665 23.2837 54.0906 23.9638 54.0906 24.866C54.0906 25.6554 54.6874 26.1441 55.6231 26.467C56.3376 26.7199 56.6255 26.966 56.6255 27.3812C56.6255 27.8323 56.2569 28.133 55.5968 28.133C55.0701 28.133 54.5628 27.969 54.2292 27.7811L53.9993 28.6149C54.3082 28.7994 54.9297 28.9669 55.5283 28.9669C56.9889 28.9669 57.6753 28.198 57.6753 27.3112C57.6771 26.5166 57.2048 26.0347 56.2217 25.6708Z" fill="#8D8D8F"/>
<path id="Vector_22" d="M59.6397 26.4329H61.7727V25.6127H59.6397V24.1962H61.9008V23.3691H58.6057V28.8764H62.0255V28.0493H59.6397V26.4329Z" fill="#8D8D8F"/>
<path id="Vector_23" d="M86.2398 25.6708C85.485 25.3905 85.1567 25.1906 85.1567 24.7686C85.1567 24.4439 85.4358 24.1056 86.0906 24.1056C86.6225 24.1056 87.0175 24.2628 87.2211 24.367L87.4687 23.5554C87.1738 23.4101 86.7243 23.2837 86.1117 23.2837C84.8846 23.2837 84.1086 23.9638 84.1086 24.866C84.1086 25.6554 84.7055 26.1441 85.6412 26.467C86.3557 26.7199 86.6436 26.966 86.6436 27.3812C86.6436 27.8323 86.2749 28.133 85.6148 28.133C85.0882 28.133 84.5809 27.969 84.2473 27.7811L84.0173 28.6149C84.3263 28.7994 84.9478 28.9669 85.5464 28.9669C87.007 28.9669 87.6934 28.198 87.6934 27.3112C87.6951 26.5166 87.2229 26.0347 86.2398 25.6708Z" fill="#8D8D8F"/>
</g>
<g id="Group_2">
<path id="Vector_24" d="M0.700195 10.6119C0.700195 8.11721 2.36618 6.62037 4.80108 6.62037V2.37932C4.80108 1.13195 3.94614 0.299805 2.75064 0.299805C1.55513 0.299805 0.700195 1.13195 0.700195 2.37932V10.6119Z" fill="#8D8D8F"/>
<path id="Vector_25" d="M7.96276 29.0305C8.98798 29.0305 9.92718 28.8648 10.7821 28.5726C6.46706 29.28 4.80108 26.411 4.80108 23.1679V9.86376H9.79903C10.9524 9.86376 11.7213 9.19907 11.7213 8.24218C11.7213 7.2853 10.9524 6.62061 9.79903 6.62061H4.80108C2.36618 6.62061 0.700195 8.11745 0.700195 10.6122V22.0452C0.700195 26.6195 3.3914 29.0305 7.96276 29.0305Z" fill="#8D8D8F"/>
<path id="Vector_26" d="M10.7816 28.5722C12.4897 27.9485 13.8151 26.7848 14.6683 25.0795L12.746 21.7117C11.8911 24.2064 10.3971 25.5375 8.34668 25.5375C6.21022 25.5375 4.80054 24.3311 4.80054 21.5869V23.1675C4.80054 26.4106 6.46652 29.2796 10.7816 28.5722Z" fill="#8D8D8F"/>
<path id="Vector_27" d="M28.3373 27.9076C18.5977 29.3207 15.5221 24.2492 15.5221 17.7219C15.5221 12.9819 18.5117 9.73874 22.8268 9.73874C24.4067 9.73874 25.7321 10.0719 26.9276 10.6119C27.4824 10.8614 27.9529 10.9451 28.3795 10.9451C29.4047 10.9451 30.0876 10.2804 30.0876 9.28251C30.0876 8.65883 29.7031 8.03514 28.806 7.61992C27.1822 6.8305 25.0896 6.37256 22.825 6.37256C16.0751 6.37256 11.4194 11.0288 11.4194 17.8056C11.4194 24.4577 15.9048 29.0729 23.1234 29.0729C25.0914 29.0712 26.7995 28.697 28.3373 27.9076Z" fill="#8D8D8F"/>
<path id="Vector_28" d="M11.4219 17.8037C11.4219 11.0269 16.0775 6.37061 22.8275 6.37061C25.0921 6.37061 27.1846 6.82854 28.8085 7.61797C29.7056 8.03319 30.09 8.65688 30.09 9.28056C30.09 10.2785 29.4071 10.9431 28.3819 10.9431C27.9553 10.9431 27.4848 10.8594 26.9301 10.6099C25.4783 9.94525 24.0686 9.73679 22.8292 9.73679C16.8885 9.7385 11.4219 13.3969 11.4219 17.8037Z" fill="#8D8D8F"/>
<path id="Vector_29" d="M36.9227 7.70215C36.5382 8.07636 36.324 8.5343 36.324 9.07425C36.324 10.4464 37.6477 12.4832 40.7234 14.5627L44.2256 16.9327C46.7887 18.679 47.8139 20.3416 47.8139 22.8363C47.8139 24.6236 47.0871 26.1632 45.8916 27.2431C46.3182 26.8689 46.5745 26.3699 46.5745 25.7052C46.5745 24.2494 45.0788 21.9631 41.875 19.8016L38.6712 17.6401C35.98 15.81 34.9126 14.1064 34.9126 11.7775C34.9126 10.4053 35.4252 9.15798 36.2801 8.24381C36.4961 8.03364 36.7085 7.86789 36.9227 7.70215Z" fill="#8D8D8F"/>
<path id="Vector_30" d="M34.1477 26.3701C34.1477 27.0348 34.49 27.5764 35.3871 27.9917C36.6265 28.5743 38.633 29.0733 40.4272 29.0733C42.6918 29.0733 44.5702 28.4086 45.8956 27.2432C46.3222 26.869 46.5785 26.3701 46.5785 25.7054C46.5785 24.2496 45.0828 21.9633 41.879 19.8018C43.3308 20.7997 43.9294 21.6318 43.9294 22.8364C43.9294 24.6238 42.4776 25.8301 40.3833 25.8301C38.375 25.8301 36.6669 24.8322 35.7277 24.8322C34.7885 24.8322 34.1477 25.4559 34.1477 26.3701Z" fill="#8D8D8F"/>
<path id="Vector_31" d="M40.7255 14.5625C39.358 13.6056 38.7611 12.7324 38.7611 11.6935C38.7611 10.3624 39.8724 9.53199 41.4523 9.53199C43.4606 9.53199 44.3998 10.4462 45.5953 10.4462C46.5345 10.4462 47.1753 9.82247 47.1753 8.9083C47.1753 8.24361 46.833 7.70194 45.9359 7.28672C44.5262 6.62203 42.9884 6.37256 41.3224 6.37256C39.5704 6.37256 38.0326 6.87151 36.9231 7.70365C36.5386 8.07786 36.3245 8.5358 36.3245 9.07576C36.3245 10.4462 37.6499 12.483 40.7255 14.5625Z" fill="#8D8D8F"/>
<path id="Vector_32" d="M15.5234 17.7217C15.5234 24.249 18.5991 29.3222 28.3387 27.9074C31.4565 26.3268 33.679 23.1264 35.215 18.2206L36.1121 15.3517C35.2572 14.2701 34.9166 13.0654 34.9166 11.7753C34.9166 10.4032 35.4292 9.15587 36.2842 8.2417C35.0026 9.57279 33.9353 11.5259 33.0803 14.2701L32.0972 17.4295C30.3452 23.0016 27.5698 25.6621 23.2547 25.6621C18.5131 25.6621 15.5234 22.4617 15.5234 17.7217Z" fill="#8D8D8F"/>
</g>
</g>
</svg>
