<svg width="24" height="24" viewBox="0 0 24 24" fill="none" xmlns="http://www.w3.org/2000/svg">
<g id="twitter">
<path id="Icon" d="M21.7395 5.41761C21.9409 4.99243 22.0416 4.77984 21.9974 4.60546C21.9595 4.45625 21.8498 4.32828 21.7081 4.26814C21.5425 4.19785 21.2832 4.27504 20.7646 4.42943C20.2351 4.58705 19.703 4.71996 19.1602 4.87982C17.9614 3.5296 16.1841 3.45489 14.4763 4.09317C12.7684 4.73145 11.6498 6.29194 11.6744 8.08191V9.14927C8.63307 9.22692 5.88332 8.02475 3.90751 5.85463C3.62109 5.54004 3.47787 5.38274 3.32285 5.3485C3.19048 5.31927 3.04337 5.34796 2.93168 5.42478C2.80088 5.51474 2.73843 5.68403 2.61352 6.02262C1.75204 8.35781 0.688827 13.702 7.39685 16.6208C6.39397 17.2876 5.39243 17.8456 4.33859 18.2247C3.2256 18.6251 2.6691 18.8253 2.57886 18.9991C2.49442 19.1617 2.49734 19.317 2.58781 19.4764C2.68451 19.6467 3.16299 19.7988 4.11996 20.103C6.71189 20.9269 9.34173 21.0611 11.7108 20.3747C15.5392 19.2647 18.6854 16.4009 19.8928 12.1112C20.2529 10.8065 20.4317 9.45866 20.4242 8.10539C20.4242 7.92599 21.16 6.64117 21.7395 5.41761Z" stroke="#39393D" stroke-width="2" stroke-linecap="round" stroke-linejoin="round"/>
</g>
</svg>
