<svg width="24" height="24" viewBox="0 0 24 24" fill="none" xmlns="http://www.w3.org/2000/svg">
<g id="users-check-01">
<path id="Icon" d="M14.4286 16C14.9809 16 15.4286 15.5523 15.4286 15C15.4286 14.4477 14.9809 14 14.4286 14V16ZM3 21C3 21.5523 3.44772 22 4 22C4.55228 22 5 21.5523 5 21H3ZM19.5602 3.17162C19.1027 2.86225 18.481 2.98233 18.1716 3.43983C17.8622 3.89734 17.9823 4.51901 18.4398 4.82838L19.5602 3.17162ZM18.4398 10.1716C17.9823 10.481 17.8622 11.1027 18.1716 11.5602C18.481 12.0177 19.1027 12.1378 19.5602 11.8284L18.4398 10.1716ZM15.1259 17.9738C14.7599 17.5602 14.1279 17.5216 13.7143 17.8877C13.3007 18.2537 13.2622 18.8857 13.6282 19.2992L15.1259 17.9738ZM16.2979 20.8069L15.549 21.4697H15.549L16.2979 20.8069ZM17.1229 20.8069L17.8717 21.4697H17.8717L17.1229 20.8069ZM22.1259 16.6627C22.4919 16.2492 22.4534 15.6172 22.0398 15.2511C21.6262 14.8851 20.9942 14.9237 20.6282 15.3373L22.1259 16.6627ZM9.57143 16H14.4286V14H9.57143V16ZM5 21V20.5714H3V21H5ZM9.57143 14C5.94213 14 3 16.9421 3 20.5714H5C5 18.0467 7.0467 16 9.57143 16V14ZM15.5 7.5C15.5 9.433 13.933 11 12 11V13C15.0376 13 17.5 10.5376 17.5 7.5H15.5ZM12 11C10.067 11 8.5 9.433 8.5 7.5H6.5C6.5 10.5376 8.96243 13 12 13V11ZM8.5 7.5C8.5 5.567 10.067 4 12 4V2C8.96243 2 6.5 4.46243 6.5 7.5H8.5ZM12 4C13.933 4 15.5 5.567 15.5 7.5H17.5C17.5 4.46243 15.0376 2 12 2V4ZM18.4398 4.82838C19.4372 5.50279 20 6.47699 20 7.5H22C22 5.69574 21.0028 4.14716 19.5602 3.17162L18.4398 4.82838ZM20 7.5C20 8.52301 19.4372 9.49721 18.4398 10.1716L19.5602 11.8284C21.0028 10.8528 22 9.30426 22 7.5H20ZM13.6282 19.2992L15.549 21.4697L17.0467 20.1442L15.1259 17.9738L13.6282 19.2992ZM17.8717 21.4697L22.1259 16.6627L20.6282 15.3373L16.374 20.1442L17.8717 21.4697ZM15.549 21.4697C16.1748 22.1768 17.2459 22.1768 17.8717 21.4697L16.374 20.1442C16.4436 20.0656 16.5638 20 16.7104 20C16.8569 20 16.9772 20.0656 17.0467 20.1442L15.549 21.4697Z" fill="#FF6C0A"/>
</g>
</svg>
