<svg width="24" height="24" viewBox="0 0 24 24" fill="none" xmlns="http://www.w3.org/2000/svg">
<g id="wallet-01">
<path id="Icon" d="M3.79116 8.16936L13.6051 3.69784C14.7351 3.18297 15.3001 2.92554 15.7569 3.00487C16.156 3.07419 16.5101 3.30197 16.7386 3.63641C17.0002 4.01915 17.0002 4.64005 17.0002 5.88183V8.02724M17 14.5001H17.01M5.4 21.0001H18.6C19.4401 21.0001 19.8601 21.0001 20.181 20.8366C20.4632 20.6928 20.6927 20.4633 20.8365 20.181C21 19.8602 21 19.4401 21 18.6001V10.4001C21 9.55998 21 9.13994 20.8365 8.81908C20.6927 8.53683 20.4632 8.30736 20.181 8.16355C19.8601 8.00006 19.4401 8.00006 18.6 8.00006H5.4C4.55992 8.00006 4.13988 8.00006 3.81901 8.16355C3.53677 8.30736 3.3073 8.53683 3.16349 8.81908C3 9.13994 3 9.55998 3 10.4001V18.6001C3 19.4401 3 19.8602 3.16349 20.181C3.3073 20.4633 3.53677 20.6928 3.81901 20.8366C4.13988 21.0001 4.55992 21.0001 5.4 21.0001ZM17.5 14.5001C17.5 14.7762 17.2761 15.0001 17 15.0001C16.7239 15.0001 16.5 14.7762 16.5 14.5001C16.5 14.2239 16.7239 14.0001 17 14.0001C17.2761 14.0001 17.5 14.2239 17.5 14.5001Z" stroke="#FF6C0A" stroke-width="2" stroke-linecap="round" stroke-linejoin="round"/>
</g>
</svg>
