<svg width="111" height="40" viewBox="0 0 111 40" fill="none" xmlns="http://www.w3.org/2000/svg">
<path d="M112.875 8.88037V35.5731L109.19 39.1693V13.0663L112.875 8.88037Z" fill="#E79224"/>
<path d="M109.249 13.0663H84.8425V39.2014H109.249V13.0663Z" fill="url(#paint0_linear_185_118)"/>
<path d="M88.6646 8.89857L84.8419 13.0671H109.248L112.875 8.8811L88.6638 8.89857" fill="#FEF26F"/>
<path d="M58.4367 10.0433L82.4441 6.70605L80.4355 12.4625L57.6916 16.0694L57.7886 11.9545L58.4367 10.0433Z" fill="#91C9ED"/>
<path d="M80.436 12.4614L83.7619 35.8757L60.0892 39.2019L56.8926 16.5659L58.2749 15.4858L80.4367 12.462" fill="url(#paint1_linear_185_118)"/>
<path d="M82.4449 6.70508L82.4635 6.84633L85.5768 30.8216L83.7619 35.8756L80.4363 12.4615" fill="#0B9AD6"/>
<mask id="mask0_185_118" style="mask-type:luminance" maskUnits="userSpaceOnUse" x="28" y="8" width="32" height="32">
<path d="M38.1598 8.04562L59.4142 17.6358L49.8238 39.407L28.5695 29.8174L38.1598 8.04471" fill="white"/>
</mask>
<g mask="url(#mask0_185_118)">
<path d="M0.337402 0.592995H112.876V39.3989H0.337402V0.592995Z" fill="url(#paint2_linear_185_118)"/>
</g>
<path d="M35.9527 0.593262L38.1588 8.04548L59.4126 17.6355L57.626 10.5147L35.9527 0.593262Z" fill="#98D0A0"/>
<path d="M35.9527 0.593262L27.398 20.8959L28.5684 29.8177L38.1588 8.04548L35.9527 0.593262Z" fill="#68BF6B"/>
<path d="M24.0952 12.4278L27.5983 35.4681L4.10959 39.1511L0.336914 16.0667L24.0947 12.429" fill="url(#paint3_linear_185_118)"/>
<path d="M0.337402 16.065L1.98664 7.83938L25.703 4.0376L24.0957 12.4274L0.337402 16.0658" fill="#EF463D"/>
<path d="M25.7034 4.0376L29.1803 27.3L27.599 35.467L24.0956 12.4274L25.7034 4.0376Z" fill="#761116"/>
<path d="M76.409 16.9488C76.3019 16.2215 76.0536 15.6666 75.6512 15.3034C75.3314 15.0127 74.9286 14.8661 74.4699 14.8668C74.3486 14.8674 74.2275 14.8767 74.1075 14.8948C73.4928 14.9829 73.0221 15.2673 72.7338 15.7376C72.5238 16.0772 72.4222 16.4866 72.4222 16.9581C72.4222 17.1385 72.4369 17.3287 72.4664 17.5281L73.3298 23.6206L66.5233 24.6218L65.6599 18.5285C65.5555 17.8203 65.3107 17.2712 64.9137 16.8975C64.5931 16.5948 64.1934 16.4404 63.7425 16.4412C63.6362 16.4412 63.5268 16.4497 63.4154 16.4664C62.7747 16.5584 62.2865 16.8378 61.9905 17.3007C61.7755 17.6344 61.6719 18.0458 61.6719 18.5246C61.6719 18.7086 61.6874 18.9026 61.7169 19.1075L64.046 34.9518C64.1527 35.6806 64.4077 36.2343 64.8264 36.5921C65.1531 36.8715 65.5625 37.012 66.0317 37.0112C66.1597 37.0112 66.2932 37.0011 66.4306 36.9809C67.0166 36.896 67.4694 36.6123 67.7422 36.1431C67.9378 35.8094 68.0333 35.4086 68.0333 34.9499C68.0333 34.7663 68.0177 34.5738 67.9882 34.3724L67.0367 28.1123L73.8432 27.1119L74.7951 33.372C74.8999 34.0907 75.1521 34.641 75.565 35.0038C75.8933 35.2921 76.2984 35.4373 76.7583 35.4365C76.8766 35.4365 76.9973 35.4276 77.1223 35.4093C77.7346 35.3201 78.2034 35.0399 78.4836 34.5735C78.6854 34.2409 78.7824 33.8377 78.7824 33.3728C78.7824 33.1889 78.7676 32.9956 78.7382 32.7923L76.409 16.9488ZM48.7267 25.7122C47.9258 27.5982 46.8687 28.8927 45.5602 29.6095C44.8594 29.9936 44.1411 30.1838 43.3979 30.1838C42.7522 30.1838 42.0867 30.0398 41.3995 29.7488C39.912 29.1147 38.9854 28.0956 38.5841 26.6579C38.448 26.1621 38.3801 25.6501 38.3823 25.1359C38.3823 24.0808 38.6474 22.9236 39.1817 21.664C40.0005 19.7331 41.0696 18.416 42.3785 17.6942C43.0778 17.3089 43.7969 17.1176 44.5423 17.1176C45.195 17.1176 45.8695 17.2639 46.5684 17.5599C48.0465 18.189 48.9638 19.2107 49.3577 20.6547C49.4878 21.1413 49.5525 21.6431 49.5502 22.1468C49.5502 23.224 49.2778 24.413 48.7267 25.7122ZM51.0551 16.2281C50.22 15.3473 49.2056 14.655 48.0162 14.1505C46.8353 13.6487 45.6413 13.3984 44.4383 13.3984L44.3828 13.3988C43.1612 13.4066 41.954 13.6786 40.7638 14.2126C39.5182 14.7547 38.4328 15.513 37.5119 16.4874C36.5907 17.461 35.8406 18.6321 35.2612 19.9965C34.6904 21.345 34.3733 22.6943 34.3143 24.0436C34.255 25.3885 34.4596 26.732 34.9166 27.9982C35.3493 29.2012 35.9876 30.2431 36.8293 31.1209C37.6706 31.9991 38.7056 32.6976 39.9299 33.216C41.1014 33.7135 42.2908 33.9623 43.4957 33.9615H43.5268C44.7414 33.9561 45.9467 33.6957 47.138 33.1838L47.1392 33.1834L47.14 33.1831C48.3726 32.6375 49.4863 31.8557 50.4183 30.8819C51.3496 29.9079 52.1028 28.7398 52.6787 27.3832C53.2542 26.0265 53.5677 24.6761 53.6193 23.3327C53.6698 21.9913 53.4545 20.6533 52.986 19.3954C52.5339 18.1653 51.8898 17.1086 51.0551 16.2281ZM21.5714 31.7996C21.3863 31.5784 21.1372 31.4151 20.8333 31.3087C20.5209 31.1997 20.1437 31.1473 19.699 31.1473C19.2799 31.1473 18.8014 31.1939 18.2613 31.2866L12.0617 32.346C12.1269 31.8683 12.3644 31.2401 12.7827 30.4756C13.2499 29.618 13.9387 28.5885 14.8483 27.3898L14.8487 27.389L15.5647 26.4328C15.683 26.2861 15.848 26.0704 16.0614 25.7856C17.4797 23.9248 18.3575 22.4102 18.6943 21.2212C18.8868 20.5472 19.004 19.8677 19.0463 19.184C19.058 18.9965 19.0634 18.8103 19.0634 18.6259C19.0639 18.1408 19.0232 17.6564 18.9419 17.1781C18.8682 16.745 18.7615 16.3849 18.6187 16.0962C18.4759 15.8079 18.2943 15.5882 18.0704 15.4501C17.8181 15.2964 17.4627 15.2312 16.9982 15.2304C16.6144 15.2304 16.1545 15.277 15.6159 15.3686L8.45124 16.5948C7.58393 16.7431 6.94325 16.9984 6.53424 17.3834C6.20944 17.6884 6.04141 18.083 6.04335 18.5359C6.04335 18.6543 6.05422 18.7765 6.07595 18.9034C6.17684 19.5122 6.49388 19.9585 7.00573 20.1855C7.30725 20.3217 7.67241 20.3869 8.0981 20.3869C8.38798 20.3869 8.70658 20.3567 9.05466 20.2977L15.0513 19.286C15.0614 19.392 15.0684 19.4979 15.0684 19.6027C15.0682 19.9782 15.0022 20.3508 14.8736 20.7036C14.6954 21.1999 14.2507 21.9093 13.5421 22.8111C13.3411 23.0575 13.0338 23.4413 12.6189 23.9609C11.0019 25.9198 9.84358 27.59 9.14275 28.9792L9.14236 28.9808C8.64487 29.937 8.29951 30.8796 8.11013 31.8066C8.00243 32.3192 7.94665 32.8413 7.94366 33.365C7.94366 33.7217 7.97237 34.067 8.02981 34.4012C8.11169 34.8808 8.23004 35.2766 8.38953 35.5898C8.54902 35.9018 8.75237 36.1354 9.00344 36.2731C9.23744 36.4 9.58086 36.4505 10.0539 36.4516C10.6538 36.4516 11.4622 36.3632 12.4847 36.1889L18.9858 35.0772C20.1367 34.8792 20.9377 34.6045 21.4026 34.2227C21.7743 33.9173 21.9672 33.4978 21.9653 33.0042C21.9653 32.8792 21.9536 32.75 21.9303 32.6161C21.876 32.2952 21.7569 32.0204 21.5714 31.7996ZM100.507 31.081C99.5717 32.211 98.3124 32.7721 96.6873 32.7737C95.0504 32.7721 93.7862 32.2129 92.8455 31.0887C91.9084 29.9634 91.4338 28.4162 91.433 26.4305C91.4338 24.4068 91.9064 22.8371 92.8389 21.7028C93.7737 20.5689 95.0419 20.0062 96.6873 20.0039C98.3124 20.0062 99.5713 20.5685 100.507 21.7028C101.44 22.8367 101.914 24.4068 101.914 26.4305C101.914 28.4069 101.441 29.9525 100.507 31.081ZM105.523 22.4685C105.04 21.255 104.325 20.1673 103.38 19.2069C102.475 18.2841 101.457 17.5879 100.334 17.1203C99.21 16.6527 97.9942 16.4191 96.6888 16.4194C95.3745 16.4194 94.1471 16.6523 93.0139 17.1199C91.8816 17.5875 90.8649 18.2844 89.9685 19.2076C89.0243 20.158 88.3123 21.2422 87.8396 22.4553C87.367 23.6699 87.1302 24.9939 87.1302 26.4266C87.1302 27.8407 87.3673 29.1605 87.847 30.3828C88.3243 31.6052 89.0329 32.7026 89.9685 33.6716C90.8455 34.5777 91.8517 35.2634 92.9794 35.726C94.1079 36.1878 95.3458 36.4194 96.6892 36.4194C97.9841 36.4194 99.198 36.1882 100.326 35.726C101.454 35.2638 102.474 34.5785 103.379 33.6728C104.325 32.7026 105.04 31.6087 105.523 30.3898C106.006 29.1729 106.248 27.85 106.248 26.4266C106.248 25.0028 106.006 23.6827 105.523 22.4685Z" fill="white"/>
<defs>
<linearGradient id="paint0_linear_185_118" x1="97.0467" y1="13.4281" x2="97.0467" y2="38.4019" gradientUnits="userSpaceOnUse">
<stop stop-color="#FFE500"/>
<stop offset="1" stop-color="#FCB822"/>
</linearGradient>
<linearGradient id="paint1_linear_185_118" x1="58.111" y1="16.0716" x2="82.5954" y2="35.7344" gradientUnits="userSpaceOnUse">
<stop stop-color="#168CCC"/>
<stop offset="1" stop-color="#00649E"/>
</linearGradient>
<linearGradient id="paint2_linear_185_118" x1="43.9906" y1="16.7568" x2="43.9906" y2="38.6359" gradientUnits="userSpaceOnUse">
<stop stop-color="#25A149"/>
<stop offset="1" stop-color="#008A52"/>
</linearGradient>
<linearGradient id="paint3_linear_185_118" x1="12.2521" y1="14.6151" x2="16.0148" y2="37.3301" gradientUnits="userSpaceOnUse">
<stop stop-color="#D92231"/>
<stop offset="1" stop-color="#BA2234"/>
</linearGradient>
</defs>
</svg>
